<svg xmlns="http://www.w3.org/2000/svg" xmlns:xlink="http://www.w3.org/1999/xlink" width="1920" zoomAndPan="magnify" viewBox="0 0 1440 899.99999" height="1200" preserveAspectRatio="xMidYMid meet" version="1.0"><defs><g/><clipPath id="c543f9d6ee"><path d="M 1079.691406 224 L 1084 224 L 1084 229 L 1079.691406 229 Z M 1079.691406 224 " clip-rule="nonzero"/></clipPath><clipPath id="c24cc6d5f1"><path d="M 268 362 L 279.441406 362 L 279.441406 375 L 268 375 Z M 268 362 " clip-rule="nonzero"/></clipPath><clipPath id="f393808f0d"><path d="M 239 391 L 244 391 L 244 396.039062 L 239 396.039062 Z M 239 391 " clip-rule="nonzero"/></clipPath><clipPath id="c924a08eb1"><path d="M 1180 45 L 1440 45 L 1440 369 L 1180 369 Z M 1180 45 " clip-rule="nonzero"/></clipPath><clipPath id="0d1ae71da1"><path d="M 1228 596.570312 L 1302.902344 596.570312 L 1302.902344 824 L 1228 824 Z M 1228 596.570312 " clip-rule="nonzero"/></clipPath><clipPath id="d5a6f4426f"><path d="M 686 630.15625 L 859 630.15625 L 859 791 L 686 791 Z M 686 630.15625 " clip-rule="nonzero"/></clipPath><clipPath id="c4a612c264"><path d="M 866 704 L 941.253906 704 L 941.253906 811 L 866 811 Z M 866 704 " clip-rule="nonzero"/></clipPath><clipPath id="89c9a11c83"><path d="M 333.476562 630.15625 L 551 630.15625 L 551 796 L 333.476562 796 Z M 333.476562 630.15625 " clip-rule="nonzero"/></clipPath><clipPath id="c8c88febb8"><path d="M 394 750 L 582.476562 750 L 582.476562 900 L 394 900 Z M 394 750 " clip-rule="nonzero"/></clipPath><clipPath id="228db4092c"><path d="M 1345.636719 613.363281 L 1440 613.363281 L 1440 779 L 1345.636719 779 Z M 1345.636719 613.363281 " clip-rule="nonzero"/></clipPath></defs><rect x="-144" width="1728" fill="#ffffff" y="-89.999999" height="1079.999988" fill-opacity="1"/><rect x="-144" width="1728" fill="#516953" y="-89.999999" height="1079.999988" fill-opacity="1"/><g fill="#5bd886" fill-opacity="0.4"><g transform="translate(304.841505, 312.949691)"><g><path d="M 73.914062 1.839844 L 77.226562 1.839844 C 108.851562 1.65625 126.871094 -18.9375 128.15625 -39.347656 C 129.628906 -60.675781 113.449219 -84.582031 74.46875 -89.542969 L 74.101562 -89.542969 C 59.941406 -91.199219 45.230469 -98.1875 45.96875 -108.484375 C 46.519531 -115.839844 57.550781 -122.640625 77.59375 -121.722656 L 78.144531 -121.722656 C 89.175781 -121.722656 102.414062 -116.390625 109.21875 -111.425781 L 125.03125 -133.488281 C 114.550781 -141.027344 96.164062 -148.75 78.511719 -148.75 C 39.53125 -150.773438 20.59375 -130.914062 18.9375 -110.691406 C 18.019531 -98.921875 22.984375 -87.339844 32.546875 -78.511719 C 41.921875 -69.871094 55.34375 -64.355469 71.15625 -62.699219 C 92.671875 -59.757812 101.679688 -49.828125 101.128906 -41.1875 C 100.578125 -33.28125 92.117188 -25.375 76.859375 -25.375 L 75.9375 -25.375 C 75.753906 -25.375 55.710938 -24.269531 43.394531 -34.382812 C 40.265625 -36.773438 37.691406 -39.714844 35.304688 -43.210938 L 12.871094 -27.949219 C 16.546875 -22.433594 21.144531 -17.46875 26.292969 -13.238281 C 43.027344 0.367188 65.089844 1.839844 73.914062 1.839844 Z M 73.914062 1.839844 "/></g></g></g><g fill="#5bd886" fill-opacity="0.4"><g transform="translate(445.86765, 312.949691)"><g><path d="M 100.210938 -145.992188 L 100.210938 -78.878906 L 40.453125 -78.878906 L 40.453125 -145.992188 L 12.871094 -145.992188 L 12.871094 1.285156 L 40.453125 1.285156 L 40.453125 -51.484375 L 100.210938 -51.484375 L 100.210938 1.285156 L 127.605469 1.285156 L 127.605469 -145.992188 Z M 100.210938 -145.992188 "/></g></g></g><g fill="#5bd886" fill-opacity="0.4"><g transform="translate(586.342207, 312.949691)"><g><path d="M 99.65625 0 L 128.339844 0 L 85.132812 -146.726562 L 85.132812 -147.097656 L 56.265625 -147.097656 L 12.871094 0 L 41.738281 0 L 52.585938 -36.589844 L 88.808594 -36.589844 Z M 60.675781 -63.988281 L 70.789062 -98.1875 L 80.71875 -63.988281 Z M 60.675781 -63.988281 "/></g></g></g><g fill="#5bd886" fill-opacity="0.4"><g transform="translate(727.552222, 312.949691)"><g><path d="M 76.304688 -147.097656 L 12.871094 -147.097656 L 12.871094 0 L 40.453125 0 L 40.453125 -36.589844 L 76.304688 -36.589844 C 115.101562 -36.589844 127.789062 -61.414062 127.789062 -91.933594 C 127.789062 -122.457031 113.816406 -147.097656 76.304688 -147.097656 Z M 95.0625 -70.054688 C 91.933594 -66.007812 85.683594 -64.171875 76.304688 -64.171875 L 40.453125 -64.171875 L 40.453125 -119.699219 L 76.304688 -119.699219 C 89.914062 -119.699219 93.589844 -115.101562 94.875 -113.632812 C 98.371094 -109.21875 100.210938 -101.496094 100.210938 -91.933594 C 100.210938 -81.820312 98.371094 -74.101562 95.0625 -70.054688 Z M 95.0625 -70.054688 "/></g></g></g><g fill="#5bd886" fill-opacity="0.4"><g transform="translate(868.210635, 312.949691)"><g><path d="M 98.1875 -119.882812 L 98.1875 -147.28125 L 12.871094 -147.28125 L 12.871094 0 L 98.1875 0 L 98.1875 -27.398438 L 40.453125 -27.398438 L 40.453125 -60.125 L 74.835938 -60.125 L 74.835938 -87.523438 L 40.453125 -87.523438 L 40.453125 -119.882812 Z M 98.1875 -119.882812 "/></g></g></g><g fill="#5bd886" fill-opacity="0.4"><g transform="translate(979.266431, 312.949691)"><g><path d="M 73.914062 1.839844 L 77.226562 1.839844 C 108.851562 1.65625 126.871094 -18.9375 128.15625 -39.347656 C 129.628906 -60.675781 113.449219 -84.582031 74.46875 -89.542969 L 74.101562 -89.542969 C 59.941406 -91.199219 45.230469 -98.1875 45.96875 -108.484375 C 46.519531 -115.839844 57.550781 -122.640625 77.59375 -121.722656 L 78.144531 -121.722656 C 89.175781 -121.722656 102.414062 -116.390625 109.21875 -111.425781 L 125.03125 -133.488281 C 114.550781 -141.027344 96.164062 -148.75 78.511719 -148.75 C 39.53125 -150.773438 20.59375 -130.914062 18.9375 -110.691406 C 18.019531 -98.921875 22.984375 -87.339844 32.546875 -78.511719 C 41.921875 -69.871094 55.34375 -64.355469 71.15625 -62.699219 C 92.671875 -59.757812 101.679688 -49.828125 101.128906 -41.1875 C 100.578125 -33.28125 92.117188 -25.375 76.859375 -25.375 L 75.9375 -25.375 C 75.753906 -25.375 55.710938 -24.269531 43.394531 -34.382812 C 40.265625 -36.773438 37.691406 -39.714844 35.304688 -43.210938 L 12.871094 -27.949219 C 16.546875 -22.433594 21.144531 -17.46875 26.292969 -13.238281 C 43.027344 0.367188 65.089844 1.839844 73.914062 1.839844 Z M 73.914062 1.839844 "/></g></g></g><g fill="#5bd886" fill-opacity="1"><g transform="translate(315.570402, 308.831255)"><g><path d="M 73.914062 1.839844 L 77.226562 1.839844 C 108.851562 1.65625 126.871094 -18.9375 128.15625 -39.347656 C 129.628906 -60.675781 113.449219 -84.582031 74.46875 -89.542969 L 74.101562 -89.542969 C 59.941406 -91.199219 45.230469 -98.1875 45.96875 -108.484375 C 46.519531 -115.839844 57.550781 -122.640625 77.59375 -121.722656 L 78.144531 -121.722656 C 89.175781 -121.722656 102.414062 -116.390625 109.21875 -111.425781 L 125.03125 -133.488281 C 114.550781 -141.027344 96.164062 -148.75 78.511719 -148.75 C 39.53125 -150.773438 20.59375 -130.914062 18.9375 -110.691406 C 18.019531 -98.921875 22.984375 -87.339844 32.546875 -78.511719 C 41.921875 -69.871094 55.34375 -64.355469 71.15625 -62.699219 C 92.671875 -59.757812 101.679688 -49.828125 101.128906 -41.1875 C 100.578125 -33.28125 92.117188 -25.375 76.859375 -25.375 L 75.9375 -25.375 C 75.753906 -25.375 55.710938 -24.269531 43.394531 -34.382812 C 40.265625 -36.773438 37.691406 -39.714844 35.304688 -43.210938 L 12.871094 -27.949219 C 16.546875 -22.433594 21.144531 -17.46875 26.292969 -13.238281 C 43.027344 0.367188 65.089844 1.839844 73.914062 1.839844 Z M 73.914062 1.839844 "/></g></g></g><g fill="#5bd886" fill-opacity="1"><g transform="translate(456.596547, 308.831255)"><g><path d="M 100.210938 -145.992188 L 100.210938 -78.878906 L 40.453125 -78.878906 L 40.453125 -145.992188 L 12.871094 -145.992188 L 12.871094 1.285156 L 40.453125 1.285156 L 40.453125 -51.484375 L 100.210938 -51.484375 L 100.210938 1.285156 L 127.605469 1.285156 L 127.605469 -145.992188 Z M 100.210938 -145.992188 "/></g></g></g><g fill="#5bd886" fill-opacity="1"><g transform="translate(597.071104, 308.831255)"><g><path d="M 99.65625 0 L 128.339844 0 L 85.132812 -146.726562 L 85.132812 -147.097656 L 56.265625 -147.097656 L 12.871094 0 L 41.738281 0 L 52.585938 -36.589844 L 88.808594 -36.589844 Z M 60.675781 -63.988281 L 70.789062 -98.1875 L 80.71875 -63.988281 Z M 60.675781 -63.988281 "/></g></g></g><g fill="#5bd886" fill-opacity="1"><g transform="translate(738.281119, 308.831255)"><g><path d="M 76.304688 -147.097656 L 12.871094 -147.097656 L 12.871094 0 L 40.453125 0 L 40.453125 -36.589844 L 76.304688 -36.589844 C 115.101562 -36.589844 127.789062 -61.414062 127.789062 -91.933594 C 127.789062 -122.457031 113.816406 -147.097656 76.304688 -147.097656 Z M 95.0625 -70.054688 C 91.933594 -66.007812 85.683594 -64.171875 76.304688 -64.171875 L 40.453125 -64.171875 L 40.453125 -119.699219 L 76.304688 -119.699219 C 89.914062 -119.699219 93.589844 -115.101562 94.875 -113.632812 C 98.371094 -109.21875 100.210938 -101.496094 100.210938 -91.933594 C 100.210938 -81.820312 98.371094 -74.101562 95.0625 -70.054688 Z M 95.0625 -70.054688 "/></g></g></g><g fill="#5bd886" fill-opacity="1"><g transform="translate(878.939532, 308.831255)"><g><path d="M 98.1875 -119.882812 L 98.1875 -147.28125 L 12.871094 -147.28125 L 12.871094 0 L 98.1875 0 L 98.1875 -27.398438 L 40.453125 -27.398438 L 40.453125 -60.125 L 74.835938 -60.125 L 74.835938 -87.523438 L 40.453125 -87.523438 L 40.453125 -119.882812 Z M 98.1875 -119.882812 "/></g></g></g><g fill="#5bd886" fill-opacity="1"><g transform="translate(989.995328, 308.831255)"><g><path d="M 73.914062 1.839844 L 77.226562 1.839844 C 108.851562 1.65625 126.871094 -18.9375 128.15625 -39.347656 C 129.628906 -60.675781 113.449219 -84.582031 74.46875 -89.542969 L 74.101562 -89.542969 C 59.941406 -91.199219 45.230469 -98.1875 45.96875 -108.484375 C 46.519531 -115.839844 57.550781 -122.640625 77.59375 -121.722656 L 78.144531 -121.722656 C 89.175781 -121.722656 102.414062 -116.390625 109.21875 -111.425781 L 125.03125 -133.488281 C 114.550781 -141.027344 96.164062 -148.75 78.511719 -148.75 C 39.53125 -150.773438 20.59375 -130.914062 18.9375 -110.691406 C 18.019531 -98.921875 22.984375 -87.339844 32.546875 -78.511719 C 41.921875 -69.871094 55.34375 -64.355469 71.15625 -62.699219 C 92.671875 -59.757812 101.679688 -49.828125 101.128906 -41.1875 C 100.578125 -33.28125 92.117188 -25.375 76.859375 -25.375 L 75.9375 -25.375 C 75.753906 -25.375 55.710938 -24.269531 43.394531 -34.382812 C 40.265625 -36.773438 37.691406 -39.714844 35.304688 -43.210938 L 12.871094 -27.949219 C 16.546875 -22.433594 21.144531 -17.46875 26.292969 -13.238281 C 43.027344 0.367188 65.089844 1.839844 73.914062 1.839844 Z M 73.914062 1.839844 "/></g></g></g><path fill="#ffffff" d="M 1325.3125 72.023438 L 1326.351562 79.457031 C 1326.402344 79.800781 1326.5625 80.117188 1326.808594 80.363281 C 1327.054688 80.605469 1327.371094 80.761719 1327.710938 80.820312 L 1335.136719 81.855469 L 1327.699219 82.894531 C 1327.355469 82.945312 1327.039062 83.105469 1326.796875 83.351562 C 1326.554688 83.597656 1326.394531 83.914062 1326.339844 84.253906 L 1325.300781 91.679688 L 1324.261719 84.246094 C 1324.179688 83.933594 1324 83.652344 1323.753906 83.445312 C 1323.507812 83.203125 1323.191406 83.042969 1322.851562 82.988281 L 1315.425781 81.949219 L 1322.859375 80.910156 C 1323.214844 80.828125 1323.53125 80.621094 1323.753906 80.332031 C 1323.996094 80.082031 1324.15625 79.769531 1324.210938 79.425781 Z M 1325.3125 72.023438 " fill-opacity="1" fill-rule="nonzero"/><path fill="#ffffff" d="M 1199.644531 370.019531 L 1200.496094 375.882812 C 1200.539062 376.15625 1200.664062 376.40625 1200.859375 376.601562 C 1201.046875 376.796875 1201.296875 376.921875 1201.566406 376.953125 L 1207.433594 377.804688 L 1201.566406 378.65625 C 1201.292969 378.699219 1201.042969 378.828125 1200.847656 379.019531 C 1200.652344 379.207031 1200.527344 379.457031 1200.496094 379.726562 L 1199.644531 385.59375 L 1198.792969 379.726562 C 1198.75 379.457031 1198.625 379.203125 1198.429688 379.011719 C 1198.242188 378.8125 1197.992188 378.6875 1197.722656 378.65625 L 1191.855469 377.804688 L 1197.722656 376.953125 C 1197.992188 376.914062 1198.246094 376.785156 1198.441406 376.589844 C 1198.636719 376.402344 1198.761719 376.15625 1198.792969 375.882812 Z M 1199.644531 370.019531 " fill-opacity="1" fill-rule="nonzero"/><path fill="#ffffff" d="M 1238.589844 111.480469 C 1238.589844 111.894531 1238.511719 112.289062 1238.351562 112.671875 C 1238.195312 113.054688 1237.96875 113.390625 1237.679688 113.683594 C 1237.386719 113.972656 1237.050781 114.199219 1236.667969 114.359375 C 1236.285156 114.515625 1235.886719 114.59375 1235.476562 114.59375 C 1235.0625 114.59375 1234.664062 114.515625 1234.28125 114.359375 C 1233.902344 114.199219 1233.5625 113.972656 1233.273438 113.683594 C 1232.980469 113.390625 1232.753906 113.054688 1232.597656 112.671875 C 1232.4375 112.289062 1232.359375 111.894531 1232.359375 111.480469 C 1232.359375 111.066406 1232.4375 110.667969 1232.597656 110.289062 C 1232.753906 109.90625 1232.980469 109.570312 1233.273438 109.277344 C 1233.5625 108.984375 1233.902344 108.761719 1234.28125 108.601562 C 1234.664062 108.445312 1235.0625 108.363281 1235.476562 108.363281 C 1235.886719 108.363281 1236.285156 108.445312 1236.667969 108.601562 C 1237.050781 108.761719 1237.386719 108.984375 1237.679688 109.277344 C 1237.96875 109.570312 1238.195312 109.90625 1238.351562 110.289062 C 1238.511719 110.667969 1238.589844 111.066406 1238.589844 111.480469 Z M 1238.589844 111.480469 " fill-opacity="1" fill-rule="nonzero"/><path fill="#ffffff" d="M 1357.507812 232.960938 L 1358.128906 237.269531 C 1358.164062 237.464844 1358.253906 237.644531 1358.390625 237.789062 C 1358.535156 237.925781 1358.722656 238.015625 1358.917969 238.050781 L 1363.21875 238.671875 L 1358.910156 239.296875 C 1358.714844 239.332031 1358.535156 239.421875 1358.390625 239.554688 C 1358.253906 239.703125 1358.164062 239.886719 1358.128906 240.085938 L 1357.507812 244.382812 L 1356.882812 240.074219 C 1356.847656 239.878906 1356.757812 239.699219 1356.625 239.554688 C 1356.476562 239.417969 1356.292969 239.328125 1356.09375 239.296875 L 1351.792969 238.671875 L 1356.105469 238.050781 C 1356.300781 238.015625 1356.480469 237.921875 1356.625 237.789062 C 1356.761719 237.640625 1356.851562 237.457031 1356.882812 237.261719 Z M 1357.507812 232.960938 " fill-opacity="1" fill-rule="nonzero"/><path fill="#ffffff" d="M 1418.78125 182.085938 L 1419.40625 186.394531 C 1419.441406 186.585938 1419.53125 186.765625 1419.664062 186.914062 C 1419.8125 187.046875 1419.996094 187.140625 1420.195312 187.171875 L 1424.496094 187.796875 L 1420.183594 188.417969 C 1419.988281 188.453125 1419.808594 188.542969 1419.664062 188.679688 C 1419.527344 188.824219 1419.4375 189.007812 1419.40625 189.207031 L 1418.78125 193.507812 L 1418.160156 189.195312 C 1418.125 189.003906 1418.035156 188.824219 1417.898438 188.679688 C 1417.753906 188.542969 1417.566406 188.453125 1417.371094 188.417969 L 1413.070312 187.796875 L 1417.378906 187.171875 C 1417.574219 187.136719 1417.753906 187.046875 1417.898438 186.914062 C 1418.035156 186.765625 1418.125 186.582031 1418.160156 186.382812 Z M 1418.78125 182.085938 " fill-opacity="1" fill-rule="nonzero"/><path fill="#ffffff" d="M 1178.871094 271.378906 L 1180.066406 279.59375 C 1180.109375 279.984375 1180.285156 280.351562 1180.566406 280.628906 C 1180.847656 280.910156 1181.210938 281.089844 1181.605469 281.140625 L 1189.777344 282.28125 L 1181.5625 283.476562 C 1181.167969 283.519531 1180.800781 283.695312 1180.523438 283.972656 C 1180.246094 284.253906 1180.066406 284.621094 1180.015625 285.011719 L 1178.871094 293.183594 L 1177.679688 284.96875 C 1177.636719 284.578125 1177.460938 284.210938 1177.179688 283.933594 C 1176.898438 283.652344 1176.535156 283.472656 1176.140625 283.421875 L 1167.96875 282.28125 L 1176.183594 281.085938 C 1176.578125 281.042969 1176.941406 280.871094 1177.222656 280.589844 C 1177.5 280.308594 1177.679688 279.941406 1177.730469 279.550781 Z M 1178.871094 271.378906 " fill-opacity="1" fill-rule="nonzero"/><path fill="#ffffff" d="M 1107.210938 352.367188 L 1107.835938 356.675781 C 1107.871094 356.871094 1107.960938 357.050781 1108.09375 357.195312 C 1108.242188 357.332031 1108.425781 357.421875 1108.625 357.453125 L 1112.925781 358.078125 L 1108.613281 358.699219 C 1108.417969 358.734375 1108.238281 358.828125 1108.09375 358.960938 C 1107.957031 359.109375 1107.867188 359.292969 1107.835938 359.488281 L 1107.210938 363.789062 L 1106.589844 359.480469 C 1106.554688 359.285156 1106.464844 359.105469 1106.328125 358.960938 C 1106.179688 358.824219 1105.996094 358.734375 1105.800781 358.699219 L 1101.5 358.078125 L 1105.808594 357.453125 C 1106.003906 357.417969 1106.183594 357.328125 1106.328125 357.195312 C 1106.464844 357.046875 1106.554688 356.863281 1106.589844 356.664062 Z M 1107.210938 352.367188 " fill-opacity="1" fill-rule="nonzero"/><path fill="#ffffff" d="M 1167.449219 352.367188 L 1168.070312 356.664062 C 1168.121094 357.078125 1168.449219 357.40625 1168.859375 357.453125 L 1173.160156 358.078125 L 1168.859375 358.699219 C 1168.449219 358.75 1168.121094 359.078125 1168.070312 359.488281 L 1167.449219 363.789062 L 1166.824219 359.480469 C 1166.789062 359.285156 1166.699219 359.105469 1166.566406 358.960938 C 1166.421875 358.820312 1166.234375 358.730469 1166.035156 358.699219 L 1161.738281 358.078125 L 1166.035156 357.453125 C 1166.449219 357.40625 1166.777344 357.078125 1166.824219 356.664062 Z M 1167.449219 352.367188 " fill-opacity="1" fill-rule="nonzero"/><path fill="#ffffff" d="M 1324.273438 155.089844 L 1325.125 160.957031 C 1325.164062 161.226562 1325.292969 161.476562 1325.488281 161.671875 C 1325.675781 161.867188 1325.925781 161.992188 1326.195312 162.023438 L 1332.0625 162.875 L 1326.195312 163.726562 C 1325.921875 163.769531 1325.671875 163.898438 1325.476562 164.089844 C 1325.28125 164.277344 1325.15625 164.527344 1325.125 164.796875 L 1324.273438 170.664062 L 1323.421875 164.796875 C 1323.378906 164.527344 1323.25 164.273438 1323.058594 164.082031 C 1322.871094 163.882812 1322.621094 163.757812 1322.351562 163.726562 L 1316.484375 162.875 L 1322.351562 162.023438 C 1322.621094 161.984375 1322.875 161.855469 1323.066406 161.660156 C 1323.265625 161.472656 1323.390625 161.226562 1323.421875 160.957031 Z M 1324.273438 155.089844 " fill-opacity="1" fill-rule="nonzero"/><path fill="#ffffff" d="M 1437.996094 101.097656 C 1437.996094 101.371094 1437.941406 101.636719 1437.835938 101.890625 C 1437.730469 102.144531 1437.582031 102.371094 1437.386719 102.566406 C 1437.191406 102.761719 1436.96875 102.910156 1436.714844 103.015625 C 1436.460938 103.121094 1436.195312 103.171875 1435.917969 103.171875 C 1435.644531 103.171875 1435.378906 103.121094 1435.125 103.015625 C 1434.871094 102.910156 1434.644531 102.761719 1434.449219 102.566406 C 1434.253906 102.371094 1434.105469 102.144531 1434 101.890625 C 1433.894531 101.636719 1433.839844 101.371094 1433.839844 101.097656 C 1433.839844 100.820312 1433.894531 100.554688 1434 100.300781 C 1434.105469 100.046875 1434.253906 99.824219 1434.449219 99.628906 C 1434.644531 99.433594 1434.871094 99.285156 1435.125 99.179688 C 1435.378906 99.074219 1435.644531 99.019531 1435.917969 99.019531 C 1436.195312 99.019531 1436.460938 99.074219 1436.714844 99.179688 C 1436.96875 99.285156 1437.191406 99.433594 1437.386719 99.628906 C 1437.582031 99.824219 1437.730469 100.046875 1437.835938 100.300781 C 1437.941406 100.554688 1437.996094 100.820312 1437.996094 101.097656 Z M 1437.996094 101.097656 " fill-opacity="1" fill-rule="nonzero"/><path fill="#ffffff" d="M 1089.035156 304.605469 C 1089.035156 305.019531 1088.957031 305.414062 1088.800781 305.796875 C 1088.640625 306.179688 1088.417969 306.515625 1088.125 306.808594 C 1087.832031 307.097656 1087.496094 307.324219 1087.113281 307.484375 C 1086.730469 307.640625 1086.335938 307.71875 1085.921875 307.71875 C 1085.507812 307.71875 1085.109375 307.640625 1084.730469 307.484375 C 1084.347656 307.324219 1084.011719 307.097656 1083.71875 306.808594 C 1083.425781 306.515625 1083.199219 306.179688 1083.042969 305.796875 C 1082.882812 305.414062 1082.804688 305.019531 1082.804688 304.605469 C 1082.804688 304.191406 1082.882812 303.792969 1083.042969 303.414062 C 1083.199219 303.03125 1083.425781 302.695312 1083.71875 302.402344 C 1084.011719 302.109375 1084.347656 301.886719 1084.730469 301.726562 C 1085.109375 301.570312 1085.507812 301.488281 1085.921875 301.488281 C 1086.335938 301.488281 1086.730469 301.570312 1087.113281 301.726562 C 1087.496094 301.886719 1087.832031 302.109375 1088.125 302.402344 C 1088.417969 302.695312 1088.640625 303.03125 1088.800781 303.414062 C 1088.957031 303.792969 1089.035156 304.191406 1089.035156 304.605469 Z M 1089.035156 304.605469 " fill-opacity="1" fill-rule="nonzero"/><path fill="#ffffff" d="M 1329.984375 267.296875 C 1329.984375 267.710938 1329.90625 268.109375 1329.746094 268.492188 C 1329.589844 268.871094 1329.363281 269.210938 1329.070312 269.5 C 1328.78125 269.792969 1328.441406 270.019531 1328.0625 270.175781 C 1327.679688 270.335938 1327.28125 270.414062 1326.867188 270.414062 C 1326.457031 270.414062 1326.058594 270.335938 1325.675781 270.175781 C 1325.292969 270.019531 1324.957031 269.792969 1324.664062 269.5 C 1324.375 269.210938 1324.148438 268.871094 1323.992188 268.492188 C 1323.832031 268.109375 1323.753906 267.710938 1323.753906 267.296875 C 1323.753906 266.886719 1323.832031 266.488281 1323.992188 266.105469 C 1324.148438 265.726562 1324.375 265.386719 1324.664062 265.097656 C 1324.957031 264.804688 1325.292969 264.578125 1325.675781 264.421875 C 1326.058594 264.261719 1326.457031 264.183594 1326.867188 264.183594 C 1327.28125 264.183594 1327.679688 264.261719 1328.0625 264.421875 C 1328.441406 264.578125 1328.78125 264.804688 1329.070312 265.097656 C 1329.363281 265.386719 1329.589844 265.726562 1329.746094 266.105469 C 1329.90625 266.488281 1329.984375 266.886719 1329.984375 267.296875 Z M 1329.984375 267.296875 " fill-opacity="1" fill-rule="nonzero"/><g clip-path="url(#c543f9d6ee)"><path fill="#ffffff" d="M 1083.84375 226.730469 C 1083.84375 227.007812 1083.792969 227.273438 1083.6875 227.527344 C 1083.582031 227.78125 1083.429688 228.003906 1083.234375 228.199219 C 1083.039062 228.394531 1082.816406 228.546875 1082.5625 228.652344 C 1082.308594 228.753906 1082.042969 228.808594 1081.765625 228.808594 C 1081.492188 228.808594 1081.226562 228.753906 1080.972656 228.652344 C 1080.71875 228.546875 1080.492188 228.394531 1080.296875 228.199219 C 1080.101562 228.003906 1079.953125 227.78125 1079.847656 227.527344 C 1079.742188 227.273438 1079.691406 227.007812 1079.691406 226.730469 C 1079.691406 226.457031 1079.742188 226.191406 1079.847656 225.9375 C 1079.953125 225.683594 1080.101562 225.457031 1080.296875 225.261719 C 1080.492188 225.070312 1080.71875 224.917969 1080.972656 224.8125 C 1081.226562 224.707031 1081.492188 224.65625 1081.765625 224.65625 C 1082.042969 224.65625 1082.308594 224.707031 1082.5625 224.8125 C 1082.816406 224.917969 1083.039062 225.070312 1083.234375 225.261719 C 1083.429688 225.457031 1083.582031 225.683594 1083.6875 225.9375 C 1083.792969 226.191406 1083.84375 226.457031 1083.84375 226.730469 Z M 1083.84375 226.730469 " fill-opacity="1" fill-rule="nonzero"/></g><path fill="#ffffff" d="M 235.371094 177.96875 L 236.792969 187.75 C 236.855469 188.199219 237.066406 188.613281 237.386719 188.933594 C 237.707031 189.253906 238.121094 189.464844 238.570312 189.535156 L 248.351562 190.949219 L 238.570312 192.371094 C 237.640625 192.492188 236.910156 193.21875 236.78125 194.144531 L 235.371094 203.925781 L 233.949219 194.144531 C 233.882812 193.699219 233.675781 193.28125 233.355469 192.960938 C 233.035156 192.644531 232.621094 192.433594 232.171875 192.359375 L 222.386719 190.949219 L 232.171875 189.527344 C 233.097656 189.402344 233.832031 188.675781 233.957031 187.75 Z M 235.371094 177.96875 " fill-opacity="1" fill-rule="nonzero"/><path fill="#ffffff" d="M -1.421875 233 L -0.800781 237.308594 C -0.765625 237.503906 -0.675781 237.683594 -0.539062 237.828125 C -0.394531 237.964844 -0.207031 238.054688 -0.0117188 238.085938 L 4.289062 238.710938 L -0.0195312 239.332031 C -0.214844 239.367188 -0.394531 239.460938 -0.539062 239.59375 C -0.675781 239.742188 -0.765625 239.925781 -0.800781 240.121094 L -1.421875 244.421875 L -2.046875 240.113281 C -2.082031 239.917969 -2.171875 239.738281 -2.304688 239.59375 C -2.453125 239.457031 -2.636719 239.367188 -2.835938 239.332031 L -7.136719 238.710938 L -2.824219 238.085938 C -2.628906 238.050781 -2.453125 237.960938 -2.304688 237.828125 C -2.167969 237.679688 -2.078125 237.496094 -2.046875 237.296875 Z M -1.421875 233 " fill-opacity="1" fill-rule="nonzero"/><path fill="#ffffff" d="M 59.851562 182.121094 L 60.476562 186.429688 C 60.511719 186.625 60.601562 186.804688 60.734375 186.949219 C 60.882812 187.085938 61.066406 187.175781 61.265625 187.210938 L 65.566406 187.832031 L 61.253906 188.457031 C 61.058594 188.492188 60.878906 188.582031 60.734375 188.714844 C 60.597656 188.863281 60.507812 189.046875 60.476562 189.246094 L 59.851562 193.542969 L 59.230469 189.234375 C 59.195312 189.039062 59.105469 188.859375 58.96875 188.714844 C 58.824219 188.578125 58.636719 188.488281 58.441406 188.457031 L 54.140625 187.832031 L 58.449219 187.210938 C 58.644531 187.175781 58.824219 187.085938 58.96875 186.949219 C 59.105469 186.804688 59.195312 186.621094 59.230469 186.421875 Z M 59.851562 182.121094 " fill-opacity="1" fill-rule="nonzero"/><path fill="#ffffff" d="M 153.324219 236.113281 L 153.945312 240.421875 C 153.980469 240.617188 154.074219 240.796875 154.207031 240.941406 C 154.355469 241.078125 154.539062 241.167969 154.734375 241.203125 L 159.035156 241.824219 L 154.734375 242.449219 C 154.324219 242.5 153.996094 242.824219 153.945312 243.238281 L 153.324219 247.535156 L 152.699219 243.226562 C 152.664062 243.03125 152.574219 242.851562 152.441406 242.707031 C 152.292969 242.570312 152.109375 242.480469 151.910156 242.449219 L 147.613281 241.824219 L 151.910156 241.203125 C 152.324219 241.152344 152.652344 240.828125 152.699219 240.414062 Z M 153.324219 236.113281 " fill-opacity="1" fill-rule="nonzero"/><g clip-path="url(#c24cc6d5f1)"><path fill="#ffffff" d="M 273.796875 362.789062 L 274.421875 367.097656 C 274.449219 367.296875 274.546875 367.476562 274.691406 367.617188 C 274.835938 367.75 275.015625 367.839844 275.210938 367.875 L 279.511719 368.5 L 275.210938 369.121094 C 274.796875 369.171875 274.472656 369.496094 274.421875 369.910156 L 273.796875 374.210938 L 273.175781 369.902344 C 273.140625 369.707031 273.050781 369.527344 272.914062 369.382812 C 272.765625 369.246094 272.582031 369.15625 272.386719 369.121094 L 268.085938 368.5 L 272.394531 367.875 C 272.589844 367.839844 272.769531 367.75 272.914062 367.617188 C 273.050781 367.46875 273.140625 367.285156 273.175781 367.085938 Z M 273.796875 362.789062 " fill-opacity="1" fill-rule="nonzero"/></g><path fill="#ffffff" d="M 205.253906 373.171875 L 206.105469 379.039062 C 206.144531 379.308594 206.273438 379.558594 206.46875 379.753906 C 206.652344 379.953125 206.902344 380.074219 207.171875 380.105469 L 213.042969 380.957031 L 207.171875 381.808594 C 206.902344 381.851562 206.652344 381.980469 206.457031 382.171875 C 206.257812 382.359375 206.136719 382.609375 206.105469 382.878906 L 205.253906 388.746094 L 204.402344 382.878906 C 204.359375 382.609375 204.230469 382.355469 204.035156 382.164062 C 203.851562 381.964844 203.601562 381.839844 203.332031 381.808594 L 197.464844 380.957031 L 203.332031 380.105469 C 203.601562 380.066406 203.851562 379.9375 204.046875 379.742188 C 204.246094 379.558594 204.371094 379.308594 204.402344 379.039062 Z M 205.253906 373.171875 " fill-opacity="1" fill-rule="nonzero"/><path fill="#ffffff" d="M 98.28125 253.765625 L 99.132812 259.632812 C 99.171875 259.902344 99.300781 260.15625 99.496094 260.347656 C 99.683594 260.546875 99.929688 260.671875 100.199219 260.703125 L 106.070312 261.554688 L 100.199219 262.40625 C 99.929688 262.445312 99.679688 262.574219 99.484375 262.769531 C 99.285156 262.953125 99.164062 263.203125 99.132812 263.472656 L 98.28125 269.339844 L 97.429688 263.472656 C 97.386719 263.203125 97.257812 262.953125 97.066406 262.757812 C 96.878906 262.558594 96.628906 262.4375 96.359375 262.40625 L 90.492188 261.554688 L 96.359375 260.703125 C 96.628906 260.660156 96.878906 260.53125 97.074219 260.339844 C 97.273438 260.152344 97.398438 259.902344 97.429688 259.632812 Z M 98.28125 253.765625 " fill-opacity="1" fill-rule="nonzero"/><path fill="#ffffff" d="M 126.320312 189.390625 L 127.878906 199.949219 C 127.949219 200.4375 128.171875 200.890625 128.523438 201.238281 C 128.871094 201.582031 129.316406 201.804688 129.800781 201.882812 L 140.339844 203.40625 L 129.78125 204.964844 C 128.78125 205.109375 127.996094 205.890625 127.847656 206.886719 L 126.320312 217.425781 L 124.761719 206.867188 C 124.695312 206.378906 124.46875 205.925781 124.121094 205.578125 C 123.769531 205.234375 123.324219 205.011719 122.839844 204.933594 L 112.300781 203.40625 L 122.863281 201.851562 C 123.859375 201.707031 124.644531 200.925781 124.792969 199.929688 Z M 126.320312 189.390625 " fill-opacity="1" fill-rule="nonzero"/><path fill="#ffffff" d="M 125.800781 80.367188 C 125.800781 80.78125 125.722656 81.179688 125.566406 81.558594 C 125.40625 81.941406 125.179688 82.277344 124.890625 82.570312 C 124.597656 82.863281 124.261719 83.089844 123.878906 83.246094 C 123.496094 83.40625 123.097656 83.484375 122.6875 83.484375 C 122.273438 83.484375 121.875 83.40625 121.492188 83.246094 C 121.113281 83.089844 120.773438 82.863281 120.484375 82.570312 C 120.191406 82.277344 119.964844 81.941406 119.808594 81.558594 C 119.648438 81.179688 119.570312 80.78125 119.570312 80.367188 C 119.570312 79.957031 119.648438 79.558594 119.808594 79.175781 C 119.964844 78.792969 120.191406 78.457031 120.484375 78.164062 C 120.773438 77.875 121.113281 77.648438 121.492188 77.492188 C 121.875 77.332031 122.273438 77.253906 122.6875 77.253906 C 123.097656 77.253906 123.496094 77.332031 123.878906 77.492188 C 124.261719 77.648438 124.597656 77.875 124.890625 78.164062 C 125.179688 78.457031 125.40625 78.792969 125.566406 79.175781 C 125.722656 79.558594 125.800781 79.957031 125.800781 80.367188 Z M 125.800781 80.367188 " fill-opacity="1" fill-rule="nonzero"/><path fill="#ffffff" d="M 79.066406 101.132812 C 79.066406 101.410156 79.011719 101.675781 78.90625 101.929688 C 78.800781 102.183594 78.652344 102.410156 78.457031 102.601562 C 78.261719 102.796875 78.039062 102.949219 77.785156 103.054688 C 77.53125 103.160156 77.265625 103.210938 76.988281 103.210938 C 76.714844 103.210938 76.449219 103.160156 76.195312 103.054688 C 75.941406 102.949219 75.714844 102.796875 75.519531 102.601562 C 75.324219 102.410156 75.175781 102.183594 75.070312 101.929688 C 74.964844 101.675781 74.910156 101.410156 74.910156 101.132812 C 74.910156 100.859375 74.964844 100.59375 75.070312 100.339844 C 75.175781 100.085938 75.324219 99.859375 75.519531 99.667969 C 75.714844 99.472656 75.941406 99.320312 76.195312 99.214844 C 76.449219 99.109375 76.714844 99.058594 76.988281 99.058594 C 77.265625 99.058594 77.53125 99.109375 77.785156 99.214844 C 78.039062 99.320312 78.261719 99.472656 78.457031 99.667969 C 78.652344 99.859375 78.800781 100.085938 78.90625 100.339844 C 79.011719 100.59375 79.066406 100.859375 79.066406 101.132812 Z M 79.066406 101.132812 " fill-opacity="1" fill-rule="nonzero"/><g clip-path="url(#f393808f0d)"><path fill="#ffffff" d="M 243.160156 393.9375 C 243.160156 394.210938 243.105469 394.476562 243 394.730469 C 242.894531 394.988281 242.746094 395.210938 242.550781 395.40625 C 242.355469 395.601562 242.132812 395.75 241.878906 395.855469 C 241.625 395.960938 241.359375 396.015625 241.082031 396.015625 C 240.808594 396.015625 240.542969 395.960938 240.289062 395.855469 C 240.035156 395.75 239.808594 395.601562 239.613281 395.40625 C 239.417969 395.210938 239.269531 394.988281 239.164062 394.730469 C 239.058594 394.476562 239.003906 394.210938 239.003906 393.9375 C 239.003906 393.660156 239.058594 393.398438 239.164062 393.144531 C 239.269531 392.886719 239.417969 392.664062 239.613281 392.46875 C 239.808594 392.273438 240.035156 392.125 240.289062 392.019531 C 240.542969 391.914062 240.808594 391.859375 241.082031 391.859375 C 241.359375 391.859375 241.625 391.914062 241.878906 392.019531 C 242.132812 392.125 242.355469 392.273438 242.550781 392.46875 C 242.746094 392.664062 242.894531 392.886719 243 393.144531 C 243.105469 393.398438 243.160156 393.660156 243.160156 393.9375 Z M 243.160156 393.9375 " fill-opacity="1" fill-rule="nonzero"/></g><path fill="#ffffff" d="M 187.078125 107.363281 C 187.078125 107.636719 187.050781 107.90625 186.996094 108.175781 C 186.945312 108.441406 186.867188 108.703125 186.761719 108.953125 C 186.65625 109.207031 186.527344 109.445312 186.378906 109.671875 C 186.226562 109.898438 186.054688 110.109375 185.859375 110.300781 C 185.667969 110.492188 185.457031 110.667969 185.230469 110.816406 C 185.003906 110.96875 184.765625 111.097656 184.511719 111.203125 C 184.261719 111.304688 184 111.382812 183.734375 111.4375 C 183.464844 111.492188 183.195312 111.519531 182.921875 111.519531 C 182.648438 111.519531 182.378906 111.492188 182.113281 111.4375 C 181.84375 111.382812 181.585938 111.304688 181.332031 111.203125 C 181.082031 111.097656 180.839844 110.96875 180.613281 110.816406 C 180.386719 110.667969 180.179688 110.492188 179.984375 110.300781 C 179.792969 110.109375 179.621094 109.898438 179.46875 109.671875 C 179.316406 109.445312 179.1875 109.207031 179.085938 108.953125 C 178.980469 108.703125 178.902344 108.441406 178.847656 108.175781 C 178.796875 107.90625 178.769531 107.636719 178.769531 107.363281 C 178.769531 107.089844 178.796875 106.820312 178.847656 106.554688 C 178.902344 106.285156 178.980469 106.027344 179.085938 105.773438 C 179.1875 105.523438 179.316406 105.285156 179.46875 105.058594 C 179.621094 104.832031 179.792969 104.621094 179.984375 104.425781 C 180.179688 104.234375 180.386719 104.0625 180.613281 103.910156 C 180.839844 103.757812 181.082031 103.632812 181.332031 103.527344 C 181.585938 103.421875 181.84375 103.34375 182.113281 103.292969 C 182.378906 103.238281 182.648438 103.210938 182.921875 103.210938 C 183.195312 103.210938 183.464844 103.238281 183.734375 103.292969 C 184 103.34375 184.261719 103.421875 184.511719 103.527344 C 184.765625 103.632812 185.003906 103.757812 185.230469 103.910156 C 185.457031 104.0625 185.667969 104.234375 185.859375 104.425781 C 186.054688 104.621094 186.226562 104.832031 186.378906 105.058594 C 186.527344 105.285156 186.65625 105.523438 186.761719 105.773438 C 186.867188 106.027344 186.945312 106.285156 186.996094 106.554688 C 187.050781 106.820312 187.078125 107.089844 187.078125 107.363281 Z M 187.078125 107.363281 " fill-opacity="1" fill-rule="nonzero"/><g clip-path="url(#c924a08eb1)"><path fill="#9aedb6" d="M 1967.203125 -39.230469 C 1976.546875 -27.90625 1982.753906 -17.253906 1984.457031 -9.195312 C 1986.101562 -1.378906 1983.570312 3.652344 1978.664062 6.628906 C 1974.882812 8.929688 1969.582031 9.910156 1964.597656 11.230469 C 1959.46875 12.585938 1954.503906 14.183594 1950.839844 16.84375 C 1947.484375 19.277344 1944.996094 22.652344 1946.242188 28.175781 C 1947.488281 33.714844 1952.949219 40.957031 1960.75 48.734375 C 1972.726562 60.628906 1986.898438 71.464844 2000.324219 80.828125 C 2015.617188 91.488281 2029.519531 99.78125 2043.253906 109.058594 C 2057.289062 118.570312 2071.652344 129.621094 2085.855469 145.722656 C 2098.46875 160.007812 2110.125 177.308594 2119.144531 194.824219 C 2128.140625 212.234375 2134.269531 229.289062 2137.523438 243.988281 C 2140.0625 255.457031 2140.941406 265.414062 2139.726562 272.042969 C 2138.644531 277.984375 2135.949219 281.042969 2132.304688 281.933594 C 2128.542969 282.847656 2123.855469 281.609375 2118.828125 279.554688 C 2113.492188 277.363281 2107.738281 274.246094 2101.878906 271.097656 C 2096.007812 267.941406 2090.019531 264.710938 2084.164062 262.078125 C 2077.886719 259.25 2071.863281 257.242188 2066.480469 256.722656 C 2059.425781 256.042969 2053.238281 257.132812 2046.804688 257.820312 C 2040.453125 258.515625 2033.851562 258.90625 2026.015625 257.199219 C 2018.253906 255.527344 2009.25 251.621094 1998.984375 245.085938 C 1990.992188 240 1982.679688 233.78125 1974.257812 225.917969 C 1967.191406 219.316406 1960.511719 212.160156 1954.050781 205.140625 C 1947.457031 197.972656 1941.023438 190.863281 1934.164062 184.066406 C 1927.65625 177.617188 1920.660156 171.367188 1913.054688 166.191406 C 1905.273438 160.894531 1897.167969 157.144531 1889.703125 155.410156 C 1880.542969 153.277344 1872.4375 153.722656 1866.539062 155.949219 C 1860.78125 158.128906 1857.046875 162.007812 1854.339844 166.402344 C 1851.542969 170.953125 1849.75 176.0625 1847.8125 181.054688 C 1845.878906 186.046875 1843.816406 190.992188 1840.667969 195.335938 C 1837.53125 199.691406 1833.25 203.476562 1827.296875 205.894531 C 1821.105469 208.40625 1813.355469 209.65625 1805.054688 209.574219 C 1797.066406 209.480469 1788.394531 208.078125 1780.53125 204.675781 C 1770.472656 200.335938 1763.707031 193.175781 1755.832031 187.042969 C 1751.855469 183.957031 1747.410156 181 1742.148438 179.082031 C 1737.6875 177.449219 1732.835938 176.707031 1728.222656 176.992188 C 1719.242188 177.53125 1712 181.578125 1707.054688 186.425781 C 1700.957031 192.398438 1698.390625 199.851562 1695.976562 207.195312 C 1693.382812 215.210938 1690.84375 223.453125 1685.40625 230.6875 C 1680.765625 236.878906 1674.53125 242.214844 1667.675781 246.378906 C 1660.808594 250.523438 1653.269531 253.507812 1645.535156 254.679688 C 1637.34375 255.914062 1629 255.113281 1621.144531 252.492188 C 1613.613281 249.964844 1606.445312 245.734375 1600.757812 239.863281 C 1601.046875 240.167969 1592.910156 245.355469 1592.464844 245.71875 C 1586.652344 249.539062 1580.964844 253.441406 1575.445312 257.496094 C 1571.027344 260.742188 1566.753906 264.179688 1562.410156 267.40625 C 1559.648438 269.460938 1556.507812 271.019531 1553.46875 272.554688 C 1548.4375 275.101562 1543.214844 277.25 1537.777344 278.839844 C 1527.578125 281.804688 1516.257812 282.949219 1505.101562 280.597656 C 1495.878906 278.636719 1487.265625 273.886719 1480.484375 266.863281 C 1474.054688 260.21875 1469.980469 252.027344 1465.984375 243.804688 C 1462.25 236.207031 1458.445312 228.164062 1451.605469 222.757812 C 1445.105469 217.613281 1435.59375 216.203125 1425.835938 219.484375 C 1418.453125 221.964844 1412.402344 227.300781 1408.460938 233.855469 C 1404.054688 241.164062 1402.039062 249.285156 1400.839844 257.105469 C 1399.488281 265.863281 1399.195312 274.609375 1398.949219 283.363281 C 1398.726562 291.296875 1398.683594 299.394531 1397.371094 307.414062 C 1395.820312 316.832031 1391.300781 325.652344 1385.945312 333.617188 C 1379.316406 343.433594 1370.796875 352.0625 1360.839844 358.496094 C 1350.9375 364.871094 1339.558594 368.953125 1328.082031 368.980469 C 1315.519531 369.011719 1303.800781 363.839844 1293.957031 356.160156 C 1283.691406 348.203125 1275.25 337.765625 1266.828125 327.660156 C 1262.683594 322.699219 1258.519531 317.796875 1254.011719 313.375 C 1249.6875 309.132812 1244.972656 305.480469 1240.039062 302.164062 C 1229.878906 295.308594 1218.890625 289.84375 1208.722656 283.050781 C 1198.882812 276.441406 1189.597656 268.445312 1184.382812 256.304688 C 1179.585938 245.167969 1178.222656 229.800781 1183.601562 213.460938 C 1187.636719 201.144531 1195.574219 189.019531 1204.835938 178.230469 C 1214.269531 167.230469 1224.894531 157.488281 1235.351562 147.878906 C 1245.269531 138.757812 1255.378906 129.546875 1263.335938 119.675781 C 1272.285156 108.582031 1277.019531 97.820312 1278.636719 87.992188 C 1280.4375 77.078125 1277.84375 68.203125 1272.265625 61.167969 C 1266.585938 53.996094 1258.257812 48.679688 1249.734375 43.632812 C 1241.125 38.511719 1232.078125 33.679688 1225.164062 27.214844 C 1218.144531 20.636719 1213.898438 12.113281 1215.382812 0.804688 C 1217.011719 -11.769531 1225.714844 -28.046875 1244.992188 -41.765625 C 1265.589844 -56.371094 1289.707031 -61.640625 1311.78125 -65.84375 C 1330.945312 -69.523438 1352.796875 -73.441406 1371.65625 -81.6875 C 1386.71875 -88.277344 1395.140625 -96.398438 1399.453125 -104.015625 C 1405.253906 -114.246094 1405.164062 -123.785156 1403.992188 -132.875 C 1402.820312 -142.226562 1400.167969 -151.570312 1405.421875 -161.777344 C 1411.082031 -172.746094 1427.386719 -183.78125 1449.996094 -191.609375 C 1471.675781 -199.175781 1498.550781 -203.394531 1525.125 -203.460938 C 1551.703125 -203.601562 1578.011719 -199.59375 1598.703125 -192.59375 C 1619.03125 -185.742188 1633.589844 -176.496094 1641.324219 -167.347656 C 1648.84375 -158.441406 1650.074219 -149.5625 1644.4375 -142.023438 C 1646.4375 -144.71875 1653.1875 -146.3125 1659.125 -147.433594 C 1667.074219 -148.949219 1675.949219 -149.816406 1684.996094 -150.335938 C 1703.960938 -151.429688 1723.863281 -151.320312 1744.722656 -149.035156 C 1770.742188 -146.199219 1798.238281 -140.054688 1825.417969 -130.621094 C 1851.828125 -121.492188 1878.121094 -109.179688 1901.960938 -94.300781 C 1925.492188 -79.675781 1946.472656 -62.472656 1961.707031 -45.542969 C 1963.660156 -43.433594 1965.480469 -41.324219 1967.203125 -39.230469 Z M 1967.203125 -39.230469 " fill-opacity="1" fill-rule="nonzero"/></g><path fill="#e1a8ae" d="M 1181.617188 769.382812 C 1180.738281 770.574219 1180.5625 772.0625 1180.128906 773.441406 C 1177.53125 781.78125 1173.726562 789.488281 1167.640625 795.847656 C 1163.007812 800.683594 1157.753906 804.375 1150.628906 804.707031 C 1144.664062 804.984375 1138.027344 800.828125 1135.695312 794.519531 C 1132.769531 786.613281 1134.3125 779.128906 1137.597656 771.828125 C 1140.933594 764.40625 1146.390625 758.675781 1152.855469 753.871094 C 1155.492188 751.910156 1158.101562 749.894531 1161.113281 748.507812 C 1162.667969 747.789062 1163.421875 746.75 1163.195312 744.964844 C 1162.132812 736.613281 1159.507812 728.980469 1153.320312 722.929688 C 1151.527344 721.152344 1149.402344 719.953125 1146.953125 719.339844 C 1143.964844 718.59375 1143.359375 719.066406 1143.242188 722.175781 C 1142.871094 732.089844 1141.355469 741.785156 1137.628906 751.035156 C 1133.960938 760.136719 1129.121094 768.515625 1121.902344 775.324219 C 1118.453125 778.578125 1114.476562 780.996094 1109.683594 781.609375 C 1098.875 782.984375 1092.433594 777.25 1089.972656 767.816406 C 1087.757812 759.335938 1088.757812 750.875 1091.792969 742.796875 C 1097.417969 727.8125 1106.460938 715.332031 1120.117188 706.582031 C 1121.875 705.449219 1122.167969 704.359375 1121.425781 702.527344 C 1119.535156 697.859375 1116.765625 693.867188 1112.875 690.652344 C 1111.027344 689.121094 1108.917969 688.207031 1106.539062 687.910156 C 1097.007812 686.6875 1088.863281 689.347656 1082.847656 697.101562 C 1076.246094 705.613281 1071.925781 715.078125 1071.523438 726.058594 C 1071.445312 727.566406 1071.199219 729.046875 1070.789062 730.5 C 1069.675781 734.625 1066.539062 737.371094 1062.746094 737.6875 C 1059.234375 737.980469 1054.875 735.148438 1053.390625 731.441406 C 1052.519531 729.277344 1051.96875 726.980469 1052.199219 724.621094 C 1053.78125 708.3125 1059.710938 693.882812 1070.921875 681.785156 C 1076.980469 675.253906 1084.480469 671.246094 1093.15625 669.363281 C 1105.875 666.605469 1117.417969 668.957031 1127.273438 677.65625 C 1132.914062 682.632812 1136.757812 688.984375 1139.339844 696.011719 C 1140.269531 698.53125 1141.417969 699.523438 1144.289062 699.667969 C 1158.0625 700.402344 1167.828125 707.648438 1174.570312 719.324219 C 1178.371094 725.90625 1180.933594 732.957031 1181.949219 740.519531 C 1182.296875 743.078125 1183.148438 744.789062 1185.882812 746.027344 C 1193.394531 749.425781 1197.871094 755.761719 1200.816406 763.28125 C 1203.78125 770.855469 1205.277344 778.800781 1206.316406 786.800781 C 1207.371094 794.933594 1208.4375 803.097656 1208.105469 811.332031 C 1207.765625 819.707031 1206.503906 827.9375 1203.699219 835.875 C 1202.671875 838.777344 1201.164062 841.320312 1198.316406 842.851562 C 1194.691406 844.792969 1190.761719 844.617188 1187.917969 842.195312 C 1184.804688 839.539062 1183.585938 836.171875 1184.988281 832.253906 C 1188.8125 821.574219 1189.355469 810.535156 1188.449219 799.40625 C 1187.71875 790.417969 1186.648438 781.4375 1183.820312 772.796875 C 1183.457031 771.769531 1183.027344 770.769531 1182.539062 769.796875 C 1182.453125 769.636719 1182.089844 769.589844 1181.617188 769.382812 Z M 1158.90625 774.222656 C 1156.601562 776.199219 1154.878906 778.507812 1154.609375 781.65625 C 1156.363281 779.359375 1158.832031 777.464844 1158.871094 774.1875 C 1158.9375 774.113281 1159.007812 774.039062 1159.074219 773.964844 Z M 1108.554688 760.710938 C 1115.605469 756.886719 1124.867188 736.265625 1122.839844 728.886719 C 1113.613281 736.847656 1106.519531 752.644531 1108.554688 760.710938 Z M 1108.554688 760.710938 " fill-opacity="1" fill-rule="nonzero"/><path fill="#ead089" d="M 1029.917969 847.234375 C 1030.09375 837.398438 1031.691406 827.914062 1036.878906 819.320312 C 1038.25 817.046875 1040.011719 815.148438 1042.242188 813.742188 C 1050.484375 808.5625 1060.242188 812.03125 1063.6875 821.226562 C 1066.652344 829.144531 1064.675781 836.628906 1061.773438 843.972656 C 1059.53125 849.625 1056.460938 854.785156 1052.5625 859.453125 C 1051.507812 860.710938 1051.023438 861.820312 1051.621094 863.523438 C 1054.519531 871.746094 1058.160156 879.480469 1064.765625 885.496094 C 1067.429688 887.953125 1070.519531 889.640625 1074.027344 890.5625 C 1075.828125 891.039062 1077.578125 891.089844 1079.246094 890.308594 C 1083.402344 888.378906 1086.136719 884.996094 1088.175781 881.039062 C 1088.90625 879.613281 1088.175781 878.113281 1087.613281 876.691406 C 1085.542969 871.367188 1084.839844 865.890625 1085.699219 860.207031 C 1086.144531 857.152344 1087.332031 854.421875 1089.261719 852.015625 C 1093.007812 847.316406 1100.523438 846.667969 1105.070312 850.632812 C 1107.273438 852.566406 1108.925781 854.824219 1109.824219 857.6875 C 1111.363281 862.578125 1112.023438 867.507812 1111.332031 872.617188 C 1110.722656 877.128906 1112.152344 878.90625 1116.703125 879.375 C 1119.5 879.664062 1122.136719 878.847656 1124.667969 877.75 C 1128.613281 876.066406 1132.132812 873.734375 1135.222656 870.757812 C 1139.0625 867.042969 1142.988281 863.417969 1146.953125 859.84375 C 1149.886719 857.195312 1153.300781 855.332031 1157.367188 855.902344 C 1163.320312 856.734375 1166.324219 862.203125 1164.183594 867.890625 C 1163.65625 869.296875 1162.992188 870.699219 1161.902344 871.753906 C 1154.4375 879.015625 1147.300781 886.644531 1138.414062 892.238281 C 1131.132812 896.816406 1123.234375 899.035156 1114.578125 898.398438 C 1111.511719 898.171875 1108.6875 897.199219 1105.898438 896.054688 C 1102.5625 894.691406 1102.453125 894.570312 1100.164062 897.546875 C 1097.277344 901.304688 1093.886719 904.417969 1089.714844 906.640625 C 1079.21875 912.226562 1069.007812 910.535156 1059.183594 904.992188 C 1048.332031 898.871094 1041.777344 889.007812 1036.65625 878.019531 C 1036.480469 877.652344 1036.402344 877.238281 1036.238281 876.863281 C 1035.027344 874.136719 1034.703125 873.898438 1031.894531 874.792969 C 1028.484375 875.882812 1025.042969 876.785156 1021.464844 876.867188 C 1007.484375 877.195312 995.667969 869.152344 989.703125 855.574219 C 984.152344 842.941406 984.78125 829.980469 988.347656 817 C 990.335938 809.683594 993.101562 802.695312 997.714844 796.574219 C 1001.226562 791.910156 1005.328125 787.921875 1010.933594 785.863281 C 1015.789062 784.085938 1020.816406 785.476562 1023.917969 789.289062 C 1026.28125 792.195312 1026.402344 795.371094 1024.128906 798.320312 C 1022.789062 800.0625 1021.273438 801.746094 1019.296875 802.722656 C 1015.410156 804.640625 1012.8125 807.714844 1010.9375 811.46875 C 1005.777344 821.789062 1003.40625 832.566406 1005.914062 844.066406 C 1006.6875 847.613281 1008.546875 850.671875 1010.847656 853.429688 C 1015.667969 859.179688 1024.234375 857.925781 1028.601562 855.359375 C 1029.679688 854.730469 1029.957031 853.746094 1029.929688 852.566406 C 1029.886719 850.800781 1029.917969 849.015625 1029.917969 847.234375 Z M 1029.917969 847.234375 " fill-opacity="1" fill-rule="nonzero"/><g clip-path="url(#0d1ae71da1)"><path fill="#bbc494" d="M 1258.855469 709.128906 C 1262.273438 708.808594 1266.113281 709.761719 1269.792969 711.355469 C 1271.816406 712.234375 1273.074219 711.730469 1274.238281 709.902344 C 1279.644531 701.410156 1283.066406 692.285156 1283.019531 682.117188 C 1282.996094 676.914062 1281.25 672.179688 1278.070312 668.023438 C 1275.914062 665.203125 1275.402344 665.210938 1273.453125 668.097656 C 1270.765625 672.085938 1267.816406 675.839844 1264.25 679.09375 C 1261.054688 682.007812 1257.480469 684.199219 1253.183594 685.046875 C 1240.039062 687.644531 1233.03125 675.90625 1235.164062 667.144531 C 1236.921875 659.964844 1241.367188 655.085938 1246.972656 650.949219 C 1251.015625 647.96875 1255.507812 646.03125 1260.449219 645.132812 C 1263.125 644.636719 1264.3125 643.273438 1265.058594 640.742188 C 1267.164062 633.484375 1268.410156 626.097656 1269.160156 618.59375 C 1269.582031 614.378906 1270.214844 610.191406 1270.78125 605.992188 C 1271.042969 604.046875 1271.855469 602.289062 1273 600.742188 C 1275.019531 598.023438 1277.835938 596.621094 1281.191406 597.066406 C 1284.859375 597.554688 1287.515625 599.660156 1288.628906 603.300781 C 1289.265625 605.386719 1289.738281 607.5625 1289.425781 609.78125 C 1288.125 619.117188 1287.777344 628.582031 1285.550781 637.789062 C 1284.96875 640.179688 1284.519531 642.625 1283.695312 644.929688 C 1283.007812 646.851562 1283.425781 647.988281 1285.117188 649.015625 C 1291.058594 652.625 1294.910156 658.027344 1297.960938 664.132812 C 1302.242188 672.683594 1302.90625 681.746094 1301.535156 690.976562 C 1299.652344 703.671875 1294.914062 715.21875 1286.558594 725.109375 C 1285.289062 726.609375 1285.855469 727.808594 1286.429688 729.234375 C 1289.480469 736.867188 1290.332031 744.925781 1290.167969 753 C 1289.992188 761.925781 1288.296875 770.660156 1284.648438 778.929688 C 1279.519531 790.550781 1273.113281 801.3125 1263.882812 810.207031 C 1258.804688 815.101562 1253.078125 819.050781 1246.625 821.890625 C 1243.113281 823.4375 1239.46875 824.613281 1235.511719 823.589844 C 1231.40625 822.527344 1228.628906 819.351562 1228.226562 815.160156 C 1227.902344 811.800781 1230.277344 807.988281 1233.757812 806.289062 C 1236.335938 805.027344 1239.152344 804.417969 1241.710938 803.007812 C 1251.214844 797.773438 1257.335938 789.460938 1262.671875 780.410156 C 1268.746094 770.113281 1271.707031 759.054688 1270.832031 747.039062 C 1270.644531 744.855469 1270.332031 742.6875 1269.898438 740.539062 C 1269.441406 738.097656 1269.09375 737.878906 1266.550781 738.785156 C 1261.199219 740.6875 1255.753906 741.875 1250.039062 741.363281 C 1243.714844 740.792969 1238.941406 737.863281 1236.058594 732.042969 C 1232.839844 725.542969 1235.988281 718.625 1239.941406 715.320312 C 1244.882812 711.183594 1250.992188 709.128906 1258.855469 709.128906 Z M 1258.855469 709.128906 " fill-opacity="1" fill-rule="nonzero"/></g><path fill="#c87062" d="M 1275.730469 830.039062 C 1282.179688 830.054688 1284.890625 833.796875 1283.300781 839.511719 C 1282.25 843.320312 1279.71875 845.980469 1276.609375 848.015625 C 1270.75 851.839844 1264.519531 854.90625 1257.914062 857.21875 C 1252.867188 858.972656 1247.75 856.832031 1245.820312 852.476562 C 1243.828125 847.96875 1245.46875 842.6875 1250.171875 840.167969 C 1256.671875 836.691406 1263.328125 833.519531 1270.265625 830.976562 C 1272.207031 830.257812 1274.214844 829.898438 1275.730469 830.039062 Z M 1275.730469 830.039062 " fill-opacity="1" fill-rule="nonzero"/><path fill="#c87062" d="M 1177.195312 886.96875 C 1182.597656 886.953125 1184.355469 889.21875 1183.019531 894.261719 C 1181.878906 898.589844 1179.75 902.367188 1176.640625 905.585938 C 1173.425781 908.949219 1170.03125 912.140625 1166.738281 915.421875 C 1165.359375 916.800781 1163.726562 917.789062 1161.980469 918.597656 C 1157.871094 920.503906 1153.480469 919.707031 1150.695312 916.585938 C 1147.835938 913.378906 1146.859375 908.414062 1149.933594 905.285156 C 1156.644531 898.453125 1162.519531 890.308594 1172.570312 887.679688 C 1174.164062 887.261719 1175.746094 886.839844 1177.195312 886.96875 Z M 1177.195312 886.96875 " fill-opacity="1" fill-rule="nonzero"/><path fill="#c87062" d="M 1213.171875 886.882812 C 1213.535156 883.085938 1213.71875 879.257812 1214.3125 875.496094 C 1214.785156 872.523438 1215.773438 869.582031 1218.339844 867.65625 C 1221.148438 865.546875 1224.261719 864.875 1227.589844 866.382812 C 1231.136719 867.988281 1233.472656 870.949219 1233.417969 874.636719 C 1233.3125 881.835938 1232.835938 889.09375 1229.863281 895.867188 C 1228.902344 898.054688 1227.265625 899.722656 1225.484375 901.21875 C 1222.230469 903.953125 1219.769531 903.675781 1217.089844 900.402344 C 1214.457031 897.183594 1213.707031 893.316406 1213.300781 889.335938 C 1213.21875 888.523438 1213.289062 887.699219 1213.289062 886.878906 Z M 1213.171875 886.882812 " fill-opacity="1" fill-rule="nonzero"/><path fill="#7ec5cc" d="M 1241.976562 768.691406 C 1241.515625 774.078125 1239.078125 777.960938 1234.804688 780.351562 C 1230.898438 782.53125 1226.898438 781.886719 1223.285156 779.207031 C 1218.78125 775.871094 1217.589844 769.226562 1220.582031 764.125 C 1221.617188 762.367188 1222.691406 760.628906 1223.792969 758.902344 C 1227.492188 753.070312 1235.597656 752.992188 1239.023438 758.9375 C 1240.789062 761.996094 1241.332031 765.578125 1241.976562 768.691406 Z M 1241.976562 768.691406 " fill-opacity="1" fill-rule="nonzero"/><path fill="#7ec5cc" d="M 1142.296875 827.921875 C 1142.097656 829.769531 1141.800781 831.671875 1141.066406 833.445312 C 1139.347656 837.582031 1135.175781 839.695312 1130.703125 839.09375 C 1124.273438 838.226562 1117.527344 827.132812 1120.308594 821.148438 C 1122.910156 815.554688 1129.300781 812.839844 1134.597656 815.996094 C 1139.023438 818.628906 1142.078125 822.371094 1142.296875 827.921875 Z M 1142.296875 827.921875 " fill-opacity="1" fill-rule="nonzero"/><path fill="#fbfcfa" d="M 1158.90625 774.222656 L 1159.082031 773.964844 C 1159.011719 774.039062 1158.945312 774.113281 1158.878906 774.1875 Z M 1158.90625 774.222656 " fill-opacity="1" fill-rule="nonzero"/><g clip-path="url(#d5a6f4426f)"><path fill="#c87062" d="M 731.039062 714.882812 C 725.613281 715.25 721.117188 717.109375 717.132812 720.085938 C 708.027344 726.859375 702.59375 736.070312 699.953125 746.980469 C 697.984375 755.023438 697.476562 763.160156 698.433594 771.386719 C 698.820312 774.746094 699.128906 778.101562 699.730469 781.433594 C 699.925781 782.65625 699.976562 783.882812 699.886719 785.113281 C 699.746094 787.761719 698.0625 789.648438 695.636719 790.027344 C 693.085938 790.429688 690.925781 789.308594 689.835938 786.984375 C 689.082031 785.382812 688.964844 783.632812 688.671875 781.914062 C 687.421875 774.519531 686.671875 767.070312 687.089844 759.582031 C 687.886719 745.484375 691.503906 732.304688 700.550781 721.070312 C 707.652344 712.246094 716.261719 705.839844 727.800781 704.128906 C 729.734375 703.84375 731.671875 703.78125 733.617188 703.9375 C 735.5 704.085938 736.601562 703.425781 737.597656 701.8125 C 741.554688 695.464844 746.589844 690.136719 752.703125 685.824219 C 755.667969 683.683594 758.847656 681.949219 762.253906 680.621094 C 765.65625 679.289062 769.171875 678.402344 772.796875 677.960938 C 774.726562 677.722656 776.644531 677.277344 778.59375 677.394531 C 780.074219 677.480469 780.492188 676.722656 780.746094 675.425781 C 781.863281 669.660156 783.675781 664.132812 786.609375 659 C 791.523438 650.398438 797.738281 643.039062 806.496094 638.113281 C 812.996094 634.457031 820.074219 632.507812 827.386719 631.222656 C 833.492188 630.152344 839.410156 630.910156 845.316406 632.390625 C 848.097656 633.089844 850.902344 633.691406 853.65625 634.480469 C 855.871094 635.117188 857.433594 636.585938 857.898438 638.917969 C 858.3125 641.019531 857.554688 642.8125 855.84375 644.050781 C 854.304688 645.171875 852.550781 645.523438 850.601562 644.988281 C 847.246094 644.074219 843.839844 643.335938 840.472656 642.453125 C 834.933594 641.007812 829.460938 641.738281 824.058594 643.039062 C 806.683594 647.234375 796.445312 658.542969 792.007812 675.535156 C 791.441406 677.703125 791.492188 677.84375 793.808594 678.253906 C 800.046875 679.359375 805.890625 681.488281 811.167969 684.984375 C 822.378906 692.40625 828.84375 703.007812 831.449219 716.039062 C 832.863281 723.105469 831.230469 729.648438 827.34375 735.671875 C 822.894531 742.566406 817.046875 744.300781 809.242188 741.492188 C 800.410156 738.308594 793.824219 732.289062 788.972656 724.367188 C 784.464844 717.011719 782.285156 708.777344 780.539062 700.425781 C 779.835938 697.21875 779.429688 693.972656 779.324219 690.6875 C 779.273438 688.441406 779.09375 688.265625 776.757812 688.472656 C 769.109375 689.15625 762.164062 691.636719 756.378906 696.84375 C 753.328125 699.582031 750.417969 702.46875 747.996094 705.816406 C 747.175781 706.953125 747.371094 707.515625 748.519531 708.210938 C 760.441406 715.453125 768.246094 725.953125 772.367188 739.15625 C 775.175781 748.160156 775.378906 757.195312 770.449219 765.644531 C 766.964844 771.609375 761.777344 775.53125 754.753906 776.277344 C 749.046875 776.886719 744.035156 774.765625 739.785156 771.0625 C 729.007812 761.675781 725.300781 749.621094 726.726562 735.683594 C 727.082031 732.214844 727.371094 728.746094 728.234375 725.359375 C 729.097656 721.976562 730.03125 718.644531 731.039062 714.882812 Z M 742.15625 717.253906 C 738.882812 725.511719 737.304688 733.675781 737.410156 742.191406 C 737.507812 750.234375 740.488281 756.933594 746.378906 762.359375 C 751.628906 767.199219 757.753906 766.125 761.199219 759.84375 C 763.375 755.878906 763.691406 751.621094 763.027344 747.292969 C 761.746094 738.953125 757.945312 731.757812 752.453125 725.457031 C 749.628906 722.222656 746.457031 719.324219 742.160156 717.253906 Z M 790.34375 692.296875 C 790.800781 696.785156 791.660156 701.191406 792.925781 705.523438 C 794.742188 711.855469 796.976562 718.015625 801.476562 723.054688 C 804.726562 726.707031 808.433594 729.730469 813.148438 731.269531 C 815.839844 732.15625 817.109375 731.691406 818.539062 729.230469 C 820.265625 726.253906 821.507812 722.972656 820.933594 719.550781 C 818.980469 707.808594 813.355469 698.429688 802.648438 692.589844 C 799.570312 690.910156 796.242188 689.878906 792.8125 689.191406 C 790.691406 688.769531 790.371094 689.089844 790.347656 691.351562 C 790.34375 691.558594 790.34375 691.761719 790.34375 692.296875 Z M 790.34375 692.296875 " fill-opacity="1" fill-rule="nonzero"/></g><g clip-path="url(#c4a612c264)"><path fill="#adbd8c" d="M 919.160156 743.324219 C 920.125 743.765625 921.152344 743.5625 922.132812 743.574219 C 925.824219 743.605469 929.515625 743.632812 933.207031 743.613281 C 934.875 743.585938 936.472656 743.910156 937.996094 744.585938 C 939.878906 745.441406 941.203125 746.734375 941.175781 749.035156 C 941.148438 751.261719 940.039062 752.683594 938.070312 753.53125 C 935.753906 754.550781 933.34375 754.882812 930.839844 754.527344 C 924.988281 753.671875 919.195312 755.121094 913.378906 754.496094 C 913.027344 755.917969 914.074219 756.316406 914.640625 756.910156 C 919.445312 761.957031 924.574219 766.695312 929.167969 771.953125 C 930.425781 773.398438 931.347656 774.921875 930.933594 776.945312 C 930.140625 780.832031 925.996094 782.578125 922.566406 780.394531 C 921.628906 779.796875 920.855469 778.933594 920.046875 778.152344 C 916.976562 775.160156 913.910156 772.160156 910.855469 769.148438 C 909.917969 769.636719 910.296875 770.449219 910.351562 771.070312 C 910.816406 776.269531 911.378906 781.460938 911.835938 786.660156 C 912.339844 792.371094 913.277344 798.039062 913.476562 803.773438 C 913.53125 805.347656 913.34375 806.8125 912.289062 808.109375 C 909.671875 811.320312 904.855469 810.707031 903.253906 806.890625 C 902.699219 805.5625 902.5625 804.132812 902.421875 802.691406 C 901.421875 792.203125 900.371094 781.722656 899.296875 771.023438 C 897.929688 771.578125 897.617188 772.75 896.992188 773.589844 C 895.964844 774.988281 895.175781 776.5625 893.882812 777.773438 C 892 779.535156 889.308594 779.960938 887.414062 778.769531 C 885.300781 777.4375 884.507812 775.25 885.121094 772.621094 C 885.386719 771.492188 885.941406 770.535156 886.574219 769.59375 C 889.03125 765.933594 891.484375 762.273438 893.929688 758.605469 C 894.492188 757.761719 895.019531 756.894531 895.527344 756.109375 C 895.082031 755.039062 894.253906 755.351562 893.625 755.414062 C 888.738281 755.902344 883.871094 756.5 878.976562 756.953125 C 876.523438 757.179688 874.066406 757.261719 871.601562 757.203125 C 868.941406 757.136719 867.054688 755.410156 866.660156 752.992188 C 866.21875 750.308594 867.417969 748.050781 869.910156 747.023438 C 871.339844 746.429688 872.855469 746.257812 874.410156 746.175781 C 877.785156 746.007812 881.148438 745.710938 884.519531 745.449219 C 885.433594 745.378906 886.339844 745.222656 887.34375 744.632812 C 885.253906 742.210938 883.171875 739.855469 881.15625 737.445312 C 880.113281 736.195312 879.085938 734.914062 878.925781 733.15625 C 878.671875 730.40625 879.742188 728.207031 881.878906 727.28125 C 884.082031 726.332031 886.878906 727.046875 888.515625 729.121094 C 890.617188 731.773438 892.761719 734.382812 895.136719 736.800781 C 895.695312 737.371094 896.144531 738.097656 897.039062 738.367188 C 897.796875 737.734375 897.429688 736.863281 897.417969 736.125 C 897.304688 728.847656 897.160156 721.574219 896.988281 714.296875 C 896.96875 712.546875 897.140625 710.816406 897.503906 709.105469 C 898.058594 706.289062 900.222656 704.707031 903.050781 704.867188 C 905.679688 705.019531 907.59375 706.804688 907.90625 709.539062 C 908.042969 710.753906 908.007812 711.996094 907.984375 713.226562 C 907.835938 721.320312 908.152344 729.398438 908.574219 737.75 C 909.703125 737.089844 910.257812 736.113281 910.898438 735.265625 C 913.546875 731.742188 916.148438 728.1875 918.792969 724.664062 C 920.960938 721.777344 923.550781 720.925781 925.917969 722.269531 C 928.5 723.738281 929.402344 726.921875 928.144531 730.085938 C 927.757812 731.042969 927.183594 731.878906 926.550781 732.699219 C 924.550781 735.296875 922.558594 737.902344 920.632812 740.554688 C 920.035156 741.335938 919.167969 742.015625 919.160156 743.324219 Z M 919.160156 743.324219 " fill-opacity="1" fill-rule="nonzero"/></g><path fill="#ead089" d="M 700.90625 854.195312 C 707.53125 849.195312 713.566406 845.011719 720.203125 841.65625 C 733.308594 835.027344 746.757812 835.269531 760.421875 839.0625 C 780.023438 844.5 788.011719 859.570312 790.441406 879.476562 C 790.964844 883.773438 790.855469 888.148438 791.046875 892.714844 C 797.816406 891.449219 804.386719 890.316406 811.167969 890.984375 C 826.652344 892.523438 837.085938 903.929688 836.554688 919.425781 C 836.1875 930.058594 832.449219 939.792969 827.410156 949.003906 C 825.332031 952.808594 821.300781 954.148438 817.480469 952.863281 C 813.242188 951.4375 810.890625 948.007812 811.242188 943.640625 C 811.433594 941.261719 812.28125 939.074219 813.363281 936.957031 C 815.515625 932.746094 816.785156 928.21875 817.964844 923.664062 C 818.367188 922.023438 818.535156 920.359375 818.464844 918.667969 C 818.308594 912.488281 815.398438 909.367188 809.257812 908.949219 C 805.734375 908.710938 802.242188 908.828125 798.742188 909.636719 C 792.648438 911.050781 787.949219 913.953125 785.429688 920.003906 C 784.179688 923.003906 781.984375 925.476562 778.78125 926.535156 C 772.242188 928.683594 766.15625 923.3125 767.347656 916.210938 C 768.117188 911.589844 769.675781 907.121094 770.832031 902.570312 C 772.925781 894.332031 773.570312 885.957031 772.089844 877.585938 C 770.945312 871.101562 769.011719 864.839844 763.550781 860.367188 C 761.585938 858.753906 759.390625 857.566406 756.964844 856.796875 C 744.777344 852.859375 733.269531 853.605469 722.304688 860.933594 C 714.230469 866.324219 706.726562 872.085938 702.605469 881.210938 C 701.429688 883.808594 700.667969 886.589844 699.445312 889.160156 C 697.171875 893.953125 692.570312 896.332031 688.492188 895.078125 C 684.015625 893.710938 681.453125 889.730469 682.027344 884.394531 C 683.003906 875.359375 683.628906 866.328125 683.054688 857.234375 C 682.917969 855.042969 682.746094 852.890625 682.039062 850.789062 C 680.519531 846.265625 677.410156 844.042969 672.589844 844.117188 C 670.300781 844.144531 668.0625 844.5 665.878906 845.1875 C 663.695312 845.871094 661.65625 846.855469 659.761719 848.136719 C 652.390625 853.113281 646.285156 859.164062 644.753906 868.589844 C 643.917969 873.714844 639.988281 876.648438 635.171875 876.261719 C 631.027344 875.921875 627.320312 871.972656 627.132812 867.304688 C 627.03125 865.1875 627.222656 863.101562 627.703125 861.039062 C 628.1875 858.976562 628.941406 857.019531 629.96875 855.167969 C 635.996094 844.40625 643.777344 835.34375 655.335938 830.167969 C 660.136719 828.019531 665.152344 826.707031 670.390625 826.234375 C 683.390625 825.035156 695.890625 832.335938 699.144531 845.535156 C 699.765625 848.125 700.523438 850.683594 700.90625 854.195312 Z M 700.90625 854.195312 " fill-opacity="1" fill-rule="nonzero"/><path fill="#e1a8ae" d="M 834.878906 817.710938 C 834.863281 826.363281 829.566406 833.988281 822.210938 836.550781 C 812.660156 839.882812 798.246094 833.394531 796.324219 821.332031 C 795.90625 818.871094 796.039062 816.445312 796.714844 814.042969 C 798.253906 808.644531 801.152344 804.222656 805.976562 801.148438 C 809.132812 799.140625 812.457031 798.753906 815.949219 799.855469 C 818.582031 800.683594 821.363281 800.765625 823.964844 801.816406 C 830.683594 804.527344 834.894531 810.515625 834.878906 817.710938 Z M 820.648438 817.894531 C 820.75 816.730469 820.207031 815.824219 819.054688 815.308594 C 818.03125 814.851562 816.972656 814.484375 815.953125 814.023438 C 814.667969 813.441406 813.390625 813.09375 812.324219 814.335938 C 811.125 815.75 810.097656 817.324219 810.640625 819.308594 C 811.214844 821.414062 814.828125 823.511719 817.050781 823.15625 C 818.832031 822.867188 820.621094 820.304688 820.648438 817.894531 Z M 820.648438 817.894531 " fill-opacity="1" fill-rule="nonzero"/><path fill="#7ec5cc" d="M 645.210938 747.222656 C 648.898438 746.945312 651.742188 748.359375 653.714844 751.546875 C 654.097656 752.152344 654.570312 752.679688 655.132812 753.128906 C 659.820312 756.960938 661.34375 761.859375 659.855469 767.644531 C 658.460938 773.089844 655.453125 777.539062 650.824219 780.742188 C 643.351562 785.902344 634.363281 783.828125 629.710938 776.007812 C 625.542969 769.003906 626.683594 762.296875 630.910156 755.816406 C 633.121094 752.421875 635.84375 749.550781 639.804688 748.113281 C 641.539062 747.492188 643.316406 747.070312 645.210938 747.222656 Z M 642.683594 768.746094 C 643.824219 768.3125 644.546875 767.238281 645.207031 766.101562 C 645.6875 765.273438 645.992188 764.484375 645.195312 763.621094 C 644.269531 762.609375 643.519531 762.566406 642.8125 763.738281 C 642.148438 764.847656 641.363281 765.964844 641.484375 767.375 C 641.539062 768.007812 641.699219 768.582031 642.683594 768.746094 Z M 642.683594 768.746094 " fill-opacity="1" fill-rule="nonzero"/><g clip-path="url(#89c9a11c83)"><path fill="#c87062" d="M 333.828125 729.796875 C 333.746094 706.234375 344.726562 688.53125 363.21875 674.90625 C 376.078125 665.433594 390.332031 660.230469 406.527344 660.988281 C 418.910156 661.570312 430.4375 664.746094 440.855469 671.621094 C 445.808594 674.894531 445.804688 674.839844 450.234375 670.867188 C 462.011719 660.292969 475.453125 652.398438 490.011719 646.316406 C 505.789062 639.71875 521.953125 634.394531 538.707031 630.878906 C 542.101562 630.164062 544.992188 630.917969 547.519531 633.097656 C 550.140625 635.351562 551.121094 638.351562 550.339844 641.683594 C 549.410156 645.640625 546.628906 648.019531 542.820312 649.089844 C 537.578125 650.566406 532.257812 651.785156 527.019531 653.28125 C 510.386719 657.996094 494.226562 663.910156 479.257812 672.714844 C 472.875 676.492188 466.960938 680.898438 461.519531 685.9375 C 458.433594 688.777344 458.410156 688.898438 460.613281 692.441406 C 465.777344 700.734375 469.742188 709.566406 471.636719 719.140625 C 475.359375 737.949219 474.554688 756.304688 464.644531 773.371094 C 459.292969 782.585938 452.238281 789.933594 441.820312 793.523438 C 423.535156 799.820312 410.339844 789.308594 407.894531 772.121094 C 405.980469 758.605469 408.1875 745.484375 411.425781 732.46875 C 414.988281 718.152344 420.75 704.808594 429.871094 693.066406 C 430.300781 692.511719 430.609375 691.851562 431.082031 691.339844 C 432.753906 689.511719 432.003906 688.207031 430.242188 687.074219 C 425.757812 684.175781 420.832031 682.34375 415.675781 681.070312 C 388.113281 674.292969 363.898438 693.738281 355.890625 712.070312 C 351.996094 720.972656 352.140625 730.210938 353.476562 739.546875 C 353.773438 741.625 354.574219 743.632812 354.863281 745.714844 C 355.46875 750.109375 353.609375 753.664062 350.023438 755.378906 C 346.269531 757.171875 341.953125 756.28125 338.914062 753.109375 C 336.601562 750.707031 335.675781 747.644531 335.144531 744.53125 C 334.320312 739.683594 333.476562 734.804688 333.828125 729.796875 Z M 445.824219 704.691406 C 444.769531 704.753906 444.25 705.210938 443.835938 705.777344 C 442.996094 706.90625 442.160156 708.03125 441.402344 709.207031 C 432 723.714844 427.847656 739.941406 426.078125 756.878906 C 425.574219 761.753906 425.59375 766.714844 426.949219 771.539062 C 428.171875 775.894531 429.832031 777.035156 434.273438 776.152344 C 439 775.210938 442.535156 772.296875 445.332031 768.574219 C 449.089844 763.605469 451.75 758.105469 453.316406 752.078125 C 455.46875 743.78125 455.386719 735.378906 454.121094 727.011719 C 452.910156 718.988281 450.324219 711.398438 445.824219 704.691406 Z M 445.824219 704.691406 " fill-opacity="1" fill-rule="nonzero"/></g><g clip-path="url(#c8c88febb8)"><path fill="#e1a8ae" d="M 581.734375 817.640625 C 581.332031 837.554688 572.65625 853.753906 558.898438 867.445312 C 550.308594 875.988281 539.472656 880.546875 527.75 883.167969 C 521.808594 884.5 515.757812 885.011719 509.710938 885.15625 C 506.863281 885.226562 505.535156 886.242188 504.667969 888.773438 C 502.546875 894.953125 498.722656 900.105469 494.621094 905.101562 C 488.023438 913.132812 479.289062 917.066406 469.269531 918.648438 C 458.214844 920.390625 447.617188 918.28125 437.160156 914.945312 C 425.074219 911.089844 414.417969 904.691406 404.894531 896.386719 C 400.394531 892.464844 396.773438 887.855469 395.28125 881.882812 C 393.871094 876.226562 396.046875 871.460938 400.925781 869.5625 C 405.632812 867.730469 410.136719 869.644531 412.632812 875.058594 C 414.582031 879.277344 417.535156 882.363281 421.1875 885.089844 C 433.21875 894.074219 446.421875 899.699219 461.632812 900.121094 C 472.257812 900.417969 479.632812 895.382812 484.722656 886.46875 C 486.59375 883.195312 486.277344 882.390625 482.460938 881.226562 C 477.492188 879.707031 472.59375 877.980469 468.085938 875.441406 C 457.703125 869.601562 449.144531 861.925781 445.441406 850.152344 C 440.921875 835.769531 449.472656 820.636719 463.746094 818.03125 C 470.671875 816.769531 477.691406 817.296875 484.050781 820.867188 C 499.140625 829.332031 507.605469 842.230469 509.566406 859.417969 C 509.667969 860.300781 509.746094 861.191406 509.875 862.074219 C 510.441406 866.035156 510.449219 866.070312 514.394531 865.671875 C 517.226562 865.390625 520.089844 865.167969 522.875 864.628906 C 544.476562 860.378906 560.234375 842.289062 562.441406 820.382812 C 564.5625 799.304688 555.488281 783.519531 540.46875 770.132812 C 539.140625 768.949219 537.714844 767.847656 536.519531 766.535156 C 532.75 762.410156 532.332031 757.648438 535.289062 753.933594 C 538.195312 750.289062 543.984375 749.398438 548.429688 752.335938 C 551.6875 754.488281 554.863281 756.917969 557.605469 759.6875 C 569.96875 772.167969 578.171875 786.949219 581.597656 804.289062 C 582.488281 808.757812 581.738281 813.191406 581.734375 817.640625 Z M 470.617188 836.238281 C 465.5 835.902344 462.210938 839.953125 463.585938 844.914062 C 464.070312 846.65625 465.109375 848.097656 466.1875 849.539062 C 471.695312 856.910156 479.414062 860.691406 488.027344 862.992188 C 490.695312 863.707031 491.273438 863.222656 490.8125 860.558594 C 489.738281 854.300781 487.464844 848.496094 483.144531 843.78125 C 479.773438 840.09375 475.945312 836.835938 470.617188 836.238281 Z M 470.617188 836.238281 " fill-opacity="1" fill-rule="nonzero"/></g><path fill="#ead089" d="M 534.890625 728.601562 C 534.871094 738.113281 529.050781 746.496094 520.964844 749.3125 C 510.46875 752.96875 494.628906 745.84375 492.515625 732.582031 C 492.054688 729.882812 492.199219 727.210938 492.941406 724.574219 C 494.640625 718.640625 497.820312 713.78125 503.121094 710.402344 C 506.589844 708.191406 510.246094 707.765625 514.085938 708.976562 C 516.976562 709.890625 520.03125 709.984375 522.894531 711.132812 C 530.277344 714.117188 534.902344 720.695312 534.890625 728.601562 Z M 519.25 728.804688 C 519.359375 727.523438 518.761719 726.527344 517.496094 725.964844 C 516.375 725.460938 515.210938 725.058594 514.089844 724.550781 C 512.679688 723.910156 511.261719 723.527344 510.097656 724.886719 C 508.777344 726.4375 507.652344 728.175781 508.246094 730.351562 C 508.882812 732.667969 512.855469 734.972656 515.292969 734.582031 C 517.253906 734.269531 519.21875 731.457031 519.25 728.800781 Z M 519.25 728.804688 " fill-opacity="1" fill-rule="nonzero"/><path fill="#7ec5cc" d="M 380.492188 796.144531 C 384.542969 795.839844 387.671875 797.390625 389.835938 800.894531 C 390.261719 801.5625 390.777344 802.140625 391.394531 802.636719 C 396.550781 806.847656 398.21875 812.226562 396.585938 818.589844 C 395.050781 824.574219 391.742188 829.464844 386.65625 832.984375 C 378.449219 838.660156 368.570312 836.378906 363.453125 827.789062 C 358.875 820.082031 360.125 812.710938 364.761719 805.597656 C 367.195312 801.863281 370.191406 798.714844 374.53125 797.140625 C 376.449219 796.4375 378.40625 795.980469 380.492188 796.144531 Z M 377.714844 819.800781 C 378.964844 819.324219 379.761719 818.144531 380.488281 816.894531 C 381.011719 815.984375 381.347656 815.117188 380.476562 814.167969 C 379.457031 813.058594 378.632812 813.007812 377.859375 814.296875 C 377.125 815.519531 376.261719 816.738281 376.394531 818.292969 C 376.457031 818.988281 376.628906 819.613281 377.714844 819.800781 Z M 377.714844 819.800781 " fill-opacity="1" fill-rule="nonzero"/><path fill="#e1a8ae" d="M 93.285156 752.59375 C 94.160156 753.78125 94.335938 755.269531 94.773438 756.648438 C 97.371094 764.988281 101.171875 772.695312 107.261719 779.054688 C 111.890625 783.890625 117.148438 787.582031 124.273438 787.914062 C 130.234375 788.195312 136.875 784.035156 139.203125 777.726562 C 142.132812 769.824219 140.585938 762.335938 137.304688 755.039062 C 133.964844 747.613281 128.511719 741.882812 122.042969 737.078125 C 119.410156 735.117188 116.796875 733.101562 113.789062 731.714844 C 112.234375 730.996094 111.476562 729.957031 111.703125 728.175781 C 112.769531 719.820312 115.394531 712.191406 121.582031 706.140625 C 123.375 704.359375 125.496094 703.160156 127.949219 702.546875 C 130.933594 701.800781 131.542969 702.273438 131.660156 705.386719 C 132.03125 715.296875 133.542969 724.996094 137.269531 734.242188 C 140.9375 743.347656 145.78125 751.722656 152.996094 758.53125 C 156.449219 761.785156 160.421875 764.207031 165.21875 764.816406 C 176.027344 766.191406 182.46875 760.460938 184.929688 751.023438 C 187.144531 742.542969 186.140625 734.082031 183.105469 726.007812 C 177.480469 711.019531 168.4375 698.539062 154.78125 689.789062 C 153.023438 688.65625 152.734375 687.566406 153.472656 685.734375 C 155.363281 681.066406 158.136719 677.074219 162.027344 673.859375 C 163.871094 672.328125 165.984375 671.414062 168.363281 671.117188 C 177.894531 669.898438 186.039062 672.554688 192.050781 680.308594 C 198.65625 688.824219 202.976562 698.285156 203.378906 709.265625 C 203.457031 710.773438 203.699219 712.253906 204.113281 713.707031 C 205.222656 717.832031 208.363281 720.582031 212.152344 720.898438 C 215.667969 721.1875 220.023438 718.355469 221.511719 714.652344 C 222.378906 712.484375 222.929688 710.191406 222.699219 707.832031 C 221.117188 691.523438 215.191406 677.09375 203.976562 664.992188 C 197.921875 658.460938 190.421875 654.453125 181.742188 652.570312 C 169.027344 649.816406 157.484375 652.164062 147.625 660.863281 C 141.988281 665.839844 138.140625 672.191406 135.558594 679.21875 C 134.632812 681.738281 133.484375 682.730469 130.609375 682.875 C 116.835938 683.609375 107.074219 690.859375 100.332031 702.53125 C 96.53125 709.113281 93.964844 716.164062 92.953125 723.726562 C 92.601562 726.289062 91.753906 727.996094 89.015625 729.238281 C 81.507812 732.636719 77.03125 738.972656 74.085938 746.488281 C 71.121094 754.0625 69.621094 762.007812 68.582031 770.007812 C 67.527344 778.140625 66.460938 786.304688 66.796875 794.542969 C 67.132812 802.914062 68.398438 811.144531 71.203125 819.082031 C 72.226562 821.984375 73.734375 824.527344 76.585938 826.058594 C 80.207031 828 84.136719 827.824219 86.980469 825.402344 C 90.097656 822.75 91.316406 819.378906 89.914062 815.460938 C 86.089844 804.78125 85.546875 793.746094 86.449219 782.617188 C 87.179688 773.628906 88.25 764.648438 91.082031 756.003906 C 91.445312 754.976562 91.871094 753.976562 92.363281 753.003906 C 92.449219 752.84375 92.8125 752.796875 93.285156 752.59375 Z M 115.996094 757.429688 C 118.296875 759.40625 120.019531 761.71875 120.292969 764.863281 C 118.535156 762.566406 116.066406 760.671875 116.03125 757.394531 C 115.960938 757.320312 115.894531 757.246094 115.828125 757.171875 Z M 166.347656 743.917969 C 159.292969 740.09375 150.03125 719.472656 152.058594 712.09375 C 161.289062 720.058594 168.382812 735.851562 166.347656 743.917969 Z M 166.347656 743.917969 " fill-opacity="1" fill-rule="nonzero"/><path fill="#ead089" d="M 244.984375 830.445312 C 244.808594 820.609375 243.207031 811.121094 238.019531 802.527344 C 236.648438 800.253906 234.890625 798.355469 232.65625 796.953125 C 224.414062 791.769531 214.65625 795.242188 211.214844 804.433594 C 208.25 812.351562 210.222656 819.839844 213.128906 827.183594 C 215.371094 832.835938 218.441406 837.992188 222.339844 842.660156 C 223.394531 843.917969 223.875 845.027344 223.277344 846.730469 C 220.382812 854.953125 216.738281 862.6875 210.136719 868.703125 C 207.46875 871.160156 204.382812 872.851562 200.875 873.769531 C 199.074219 874.246094 197.324219 874.296875 195.652344 873.515625 C 191.5 871.585938 188.765625 868.203125 186.726562 864.25 C 185.992188 862.820312 186.726562 861.320312 187.289062 859.898438 C 189.359375 854.574219 190.0625 849.097656 189.199219 843.414062 C 188.753906 840.363281 187.566406 837.632812 185.640625 835.222656 C 181.894531 830.523438 174.375 829.875 169.832031 833.84375 C 167.625 835.773438 165.976562 838.03125 165.074219 840.894531 C 163.535156 845.785156 162.875 850.714844 163.566406 855.824219 C 164.175781 860.339844 162.746094 862.113281 158.199219 862.582031 C 155.398438 862.871094 152.765625 862.054688 150.234375 860.957031 C 146.285156 859.273438 142.765625 856.945312 139.675781 853.964844 C 135.839844 850.25 131.914062 846.628906 127.949219 843.050781 C 125.011719 840.402344 121.597656 838.539062 117.53125 839.109375 C 111.578125 839.941406 108.574219 845.414062 110.714844 851.097656 C 111.242188 852.503906 111.910156 853.90625 113 854.960938 C 120.464844 862.226562 127.597656 869.851562 136.484375 875.445312 C 143.769531 880.023438 151.667969 882.242188 160.320312 881.605469 C 163.386719 881.382812 166.210938 880.40625 169 879.265625 C 172.339844 877.898438 172.449219 877.777344 174.734375 880.753906 C 177.625 884.511719 181.015625 887.625 185.1875 889.847656 C 195.683594 895.4375 205.890625 893.746094 215.71875 888.203125 C 226.566406 882.078125 233.125 872.21875 238.242188 861.230469 C 238.417969 860.859375 238.496094 860.445312 238.664062 860.070312 C 239.875 857.34375 240.199219 857.105469 243.007812 858.003906 C 246.414062 859.089844 249.859375 859.996094 253.433594 860.078125 C 267.414062 860.402344 279.234375 852.359375 285.199219 838.785156 C 290.75 826.148438 290.117188 813.191406 286.554688 800.207031 C 284.566406 792.890625 281.800781 785.90625 277.1875 779.785156 C 273.675781 775.117188 269.574219 771.128906 263.96875 769.070312 C 259.109375 767.292969 254.085938 768.683594 250.984375 772.5 C 248.621094 775.402344 248.5 778.578125 250.769531 781.53125 C 252.109375 783.269531 253.625 784.953125 255.601562 785.929688 C 259.488281 787.847656 262.085938 790.921875 263.964844 794.675781 C 269.125 804.996094 271.496094 815.777344 268.988281 827.273438 C 268.214844 830.824219 266.351562 833.878906 264.050781 836.636719 C 259.234375 842.386719 250.664062 841.132812 246.296875 838.570312 C 245.21875 837.9375 244.945312 836.953125 244.972656 835.773438 C 245.015625 834.007812 244.984375 832.226562 244.984375 830.445312 Z M 244.984375 830.445312 " fill-opacity="1" fill-rule="nonzero"/><path fill="#bbc494" d="M 16.042969 692.339844 C 12.628906 692.015625 8.789062 692.96875 5.105469 694.5625 C 3.082031 695.441406 1.828125 694.941406 0.664062 693.113281 C -4.746094 684.617188 -8.167969 675.496094 -8.121094 665.324219 C -8.097656 660.121094 -6.347656 655.386719 -3.171875 651.230469 C -1.011719 648.410156 -0.503906 648.421875 1.445312 651.304688 C 4.132812 655.292969 7.085938 659.046875 10.652344 662.300781 C 13.847656 665.214844 17.421875 667.40625 21.71875 668.257812 C 34.863281 670.851562 41.871094 659.113281 39.734375 650.351562 C 37.980469 643.171875 33.535156 638.292969 27.929688 634.15625 C 23.886719 631.179688 19.394531 629.238281 14.453125 628.339844 C 11.777344 627.84375 10.589844 626.480469 9.84375 623.949219 C 7.734375 616.691406 6.488281 609.304688 5.738281 601.800781 C 5.320312 597.585938 4.683594 593.398438 4.117188 589.199219 C 3.859375 587.253906 3.046875 585.496094 1.898438 583.953125 C -0.121094 581.230469 -2.9375 579.828125 -6.289062 580.273438 C -9.957031 580.761719 -12.613281 582.871094 -13.726562 586.507812 C -14.363281 588.59375 -14.835938 590.769531 -14.527344 592.988281 C -13.226562 602.324219 -12.878906 611.792969 -10.648438 620.996094 C -10.070312 623.390625 -9.617188 625.832031 -8.796875 628.136719 C -8.105469 630.058594 -8.523438 631.195312 -10.214844 632.222656 C -16.160156 635.832031 -20.007812 641.238281 -23.0625 647.339844 C -27.339844 655.890625 -28.003906 664.957031 -26.636719 674.1875 C -24.75 686.882812 -20.015625 698.425781 -11.65625 708.316406 C -10.386719 709.816406 -10.953125 711.015625 -11.53125 712.441406 C -14.578125 720.074219 -15.429688 728.132812 -15.269531 736.207031 C -15.09375 745.132812 -13.394531 753.871094 -9.746094 762.136719 C -4.617188 773.757812 1.785156 784.519531 11.015625 793.414062 C 16.09375 798.308594 21.824219 802.257812 28.273438 805.097656 C 31.789062 806.644531 35.429688 807.820312 39.386719 806.796875 C 43.496094 805.734375 46.269531 802.558594 46.675781 798.367188 C 46.996094 795.011719 44.621094 791.195312 41.144531 789.496094 C 38.566406 788.234375 35.746094 787.625 33.1875 786.214844 C 23.683594 780.980469 17.566406 772.667969 12.226562 763.621094 C 6.15625 753.320312 3.191406 742.261719 4.070312 730.246094 C 4.257812 728.0625 4.566406 725.894531 5 723.746094 C 5.460938 721.304688 5.808594 721.089844 8.347656 721.992188 C 13.699219 723.898438 19.144531 725.082031 24.859375 724.570312 C 31.183594 724.003906 35.960938 721.070312 38.84375 715.25 C 42.0625 708.75 38.910156 701.835938 34.957031 698.527344 C 30.015625 694.390625 23.910156 692.335938 16.042969 692.339844 Z M 16.042969 692.339844 " fill-opacity="1" fill-rule="nonzero"/><path fill="#c87062" d="M -0.832031 813.246094 C -7.28125 813.261719 -9.992188 817.007812 -8.402344 822.71875 C -7.347656 826.527344 -4.820312 829.191406 -1.710938 831.222656 C 4.148438 835.046875 10.382812 838.113281 16.988281 840.425781 C 22.03125 842.183594 27.152344 840.039062 29.082031 835.683594 C 31.074219 831.179688 29.429688 825.894531 24.726562 823.378906 C 18.226562 819.898438 11.574219 816.726562 4.636719 814.1875 C 2.691406 813.46875 0.683594 813.105469 -0.832031 813.246094 Z M -0.832031 813.246094 " fill-opacity="1" fill-rule="nonzero"/><path fill="#c87062" d="M 97.707031 870.175781 C 92.300781 870.160156 90.542969 872.429688 91.878906 877.46875 C 93.023438 881.800781 95.148438 885.574219 98.261719 888.792969 C 101.476562 892.15625 104.867188 895.351562 108.160156 898.632812 C 109.542969 900.011719 111.171875 900.996094 112.917969 901.804688 C 117.03125 903.710938 121.417969 902.917969 124.207031 899.792969 C 127.0625 896.589844 128.042969 891.621094 124.96875 888.492188 C 118.257812 881.660156 112.382812 873.515625 102.332031 870.890625 C 100.738281 870.472656 99.15625 870.046875 97.707031 870.175781 Z M 97.707031 870.175781 " fill-opacity="1" fill-rule="nonzero"/><path fill="#c87062" d="M 61.726562 870.09375 C 61.367188 866.292969 61.183594 862.464844 60.585938 858.703125 C 60.113281 855.730469 59.128906 852.789062 56.5625 850.863281 C 53.75 848.753906 50.640625 848.082031 47.308594 849.589844 C 43.761719 851.195312 41.425781 854.15625 41.480469 857.84375 C 41.589844 865.046875 42.066406 872.304688 45.039062 879.078125 C 46 881.261719 47.636719 882.929688 49.414062 884.425781 C 52.667969 887.160156 55.132812 886.886719 57.808594 883.609375 C 60.445312 880.390625 61.191406 876.527344 61.597656 872.542969 C 61.679688 871.734375 61.609375 870.90625 61.609375 870.085938 Z M 61.726562 870.09375 " fill-opacity="1" fill-rule="nonzero"/><path fill="#7ec5cc" d="M 32.925781 751.898438 C 33.386719 757.285156 35.824219 761.171875 40.097656 763.558594 C 44 765.742188 48 765.097656 51.617188 762.417969 C 56.117188 759.078125 57.308594 752.433594 54.316406 747.332031 C 53.285156 745.578125 52.210938 743.839844 51.109375 742.113281 C 47.40625 736.28125 39.304688 736.199219 35.875 742.144531 C 34.113281 745.203125 33.566406 748.785156 32.925781 751.898438 Z M 32.925781 751.898438 " fill-opacity="1" fill-rule="nonzero"/><path fill="#7ec5cc" d="M 132.605469 811.128906 C 132.800781 812.976562 133.101562 814.878906 133.835938 816.652344 C 135.550781 820.789062 139.722656 822.90625 144.199219 822.300781 C 150.628906 821.433594 157.371094 810.339844 154.589844 804.355469 C 151.992188 798.761719 145.601562 796.046875 140.300781 799.203125 C 135.878906 801.839844 132.820312 805.578125 132.605469 811.128906 Z M 132.605469 811.128906 " fill-opacity="1" fill-rule="nonzero"/><path fill="#fbfcfa" d="M 115.996094 757.429688 L 115.820312 757.171875 C 115.886719 757.246094 115.957031 757.320312 116.023438 757.394531 Z M 115.996094 757.429688 " fill-opacity="1" fill-rule="nonzero"/><g clip-path="url(#228db4092c)"><path fill="#c87062" d="M 1345.984375 713.003906 C 1345.90625 689.445312 1356.886719 671.738281 1375.378906 658.113281 C 1388.238281 648.640625 1402.492188 643.4375 1418.683594 644.199219 C 1431.066406 644.777344 1442.59375 647.957031 1453.015625 654.832031 C 1457.96875 658.101562 1457.960938 658.050781 1462.390625 654.078125 C 1474.171875 643.5 1487.609375 635.609375 1502.171875 629.523438 C 1517.945312 622.925781 1534.113281 617.605469 1550.867188 614.085938 C 1554.261719 613.375 1557.152344 614.125 1559.679688 616.304688 C 1562.296875 618.5625 1563.28125 621.558594 1562.496094 624.894531 C 1561.570312 628.847656 1558.785156 631.230469 1554.980469 632.300781 C 1549.734375 633.777344 1544.417969 634.996094 1539.179688 636.488281 C 1522.542969 641.207031 1506.386719 647.117188 1491.414062 655.925781 C 1485.03125 659.699219 1479.121094 664.105469 1473.679688 669.144531 C 1470.59375 671.984375 1470.570312 672.109375 1472.773438 675.648438 C 1477.9375 683.941406 1481.902344 692.773438 1483.796875 702.351562 C 1487.519531 721.15625 1486.710938 739.511719 1476.800781 756.578125 C 1471.453125 765.792969 1464.398438 773.140625 1453.980469 776.730469 C 1435.695312 783.03125 1422.496094 772.519531 1420.054688 755.332031 C 1418.140625 741.816406 1420.347656 728.691406 1423.585938 715.675781 C 1427.148438 701.359375 1432.90625 688.019531 1442.027344 676.277344 C 1442.460938 675.71875 1442.765625 675.058594 1443.238281 674.550781 C 1444.914062 672.722656 1444.164062 671.417969 1442.402344 670.285156 C 1437.914062 667.382812 1432.992188 665.550781 1427.832031 664.28125 C 1400.273438 657.503906 1376.058594 676.949219 1368.050781 695.277344 C 1364.152344 704.183594 1364.300781 713.421875 1365.636719 722.753906 C 1365.933594 724.835938 1366.734375 726.84375 1367.019531 728.921875 C 1367.628906 733.320312 1365.769531 736.871094 1362.183594 738.585938 C 1358.429688 740.378906 1354.109375 739.488281 1351.070312 736.316406 C 1348.761719 733.914062 1347.835938 730.855469 1347.304688 727.738281 C 1346.480469 722.890625 1345.636719 718.011719 1345.984375 713.003906 Z M 1457.984375 687.898438 C 1456.929688 687.964844 1456.410156 688.417969 1455.992188 688.984375 C 1455.15625 690.113281 1454.320312 691.242188 1453.558594 692.417969 C 1444.160156 706.921875 1440.007812 723.148438 1438.238281 740.085938 C 1437.734375 744.964844 1437.75 749.921875 1439.105469 754.746094 C 1440.332031 759.101562 1441.992188 760.242188 1446.429688 759.359375 C 1451.15625 758.417969 1454.691406 755.503906 1457.492188 751.78125 C 1461.25 746.816406 1463.910156 741.316406 1465.472656 735.285156 C 1467.628906 726.988281 1467.546875 718.589844 1466.277344 710.21875 C 1465.066406 702.199219 1462.484375 694.605469 1457.984375 687.898438 Z M 1457.984375 687.898438 " fill-opacity="1" fill-rule="nonzero"/></g><path fill="#e1a8ae" d="M 1593.894531 800.847656 C 1593.492188 820.761719 1584.816406 836.960938 1571.058594 850.652344 C 1562.464844 859.199219 1551.632812 863.753906 1539.910156 866.375 C 1533.964844 867.707031 1527.917969 868.21875 1521.871094 868.363281 C 1519.023438 868.433594 1517.695312 869.453125 1516.828125 871.984375 C 1514.707031 878.160156 1510.882812 883.3125 1506.78125 888.308594 C 1500.183594 896.339844 1491.449219 900.273438 1481.425781 901.855469 C 1470.375 903.601562 1459.773438 901.488281 1449.320312 898.152344 C 1437.234375 894.300781 1426.574219 887.898438 1417.054688 879.597656 C 1412.554688 875.671875 1408.929688 871.0625 1407.441406 865.089844 C 1406.03125 859.433594 1408.203125 854.667969 1413.085938 852.769531 C 1417.792969 850.941406 1422.296875 852.851562 1424.792969 858.265625 C 1426.742188 862.484375 1429.695312 865.570312 1433.347656 868.300781 C 1445.378906 877.285156 1458.582031 882.90625 1473.792969 883.332031 C 1484.417969 883.628906 1491.792969 878.589844 1496.882812 869.675781 C 1498.75 866.402344 1498.433594 865.601562 1494.617188 864.4375 C 1489.652344 862.917969 1484.753906 861.1875 1480.246094 858.652344 C 1469.863281 852.808594 1461.304688 845.132812 1457.601562 833.363281 C 1453.078125 818.976562 1461.632812 803.847656 1475.90625 801.242188 C 1482.832031 799.976562 1489.847656 800.503906 1496.210938 804.074219 C 1511.300781 812.539062 1519.765625 825.441406 1521.726562 842.625 C 1521.828125 843.511719 1521.90625 844.402344 1522.03125 845.285156 C 1522.601562 849.246094 1522.609375 849.277344 1526.554688 848.878906 C 1529.386719 848.597656 1532.246094 848.378906 1535.035156 847.835938 C 1556.636719 843.585938 1572.394531 825.5 1574.597656 803.589844 C 1576.71875 782.515625 1567.644531 766.730469 1552.628906 753.34375 C 1551.296875 752.15625 1549.871094 751.054688 1548.675781 749.746094 C 1544.90625 745.621094 1544.492188 740.855469 1547.449219 737.140625 C 1550.355469 733.5 1556.144531 732.609375 1560.585938 735.546875 C 1563.847656 737.699219 1567.023438 740.125 1569.765625 742.894531 C 1582.128906 755.375 1590.332031 770.15625 1593.753906 787.496094 C 1594.644531 791.964844 1593.898438 796.402344 1593.894531 800.847656 Z M 1482.777344 819.445312 C 1477.660156 819.109375 1474.367188 823.160156 1475.742188 828.121094 C 1476.230469 829.867188 1477.269531 831.304688 1478.34375 832.746094 C 1483.855469 840.117188 1491.574219 843.898438 1500.1875 846.203125 C 1502.855469 846.914062 1503.429688 846.433594 1502.972656 843.769531 C 1501.898438 837.511719 1499.621094 831.707031 1495.300781 826.992188 C 1491.933594 823.300781 1488.101562 820.042969 1482.777344 819.445312 Z M 1482.777344 819.445312 " fill-opacity="1" fill-rule="nonzero"/><path fill="#7ec5cc" d="M 1392.652344 779.351562 C 1396.703125 779.046875 1399.828125 780.597656 1401.996094 784.105469 C 1402.417969 784.769531 1402.9375 785.351562 1403.550781 785.84375 C 1408.707031 790.058594 1410.378906 795.433594 1408.742188 801.800781 C 1407.210938 807.785156 1403.902344 812.675781 1398.816406 816.191406 C 1390.609375 821.867188 1380.730469 819.589844 1375.613281 810.996094 C 1371.03125 803.289062 1372.285156 795.917969 1376.921875 788.804688 C 1379.351562 785.074219 1382.347656 781.921875 1386.6875 780.351562 C 1388.609375 779.648438 1390.566406 779.1875 1392.652344 779.351562 Z M 1389.871094 803.007812 C 1391.125 802.53125 1391.921875 801.351562 1392.644531 800.101562 C 1393.171875 799.195312 1393.507812 798.324219 1392.636719 797.375 C 1391.617188 796.265625 1390.792969 796.214844 1390.015625 797.503906 C 1389.28125 798.726562 1388.417969 799.949219 1388.554688 801.503906 C 1388.617188 802.195312 1388.789062 802.820312 1389.871094 803.007812 Z M 1389.871094 803.007812 " fill-opacity="1" fill-rule="nonzero"/><path fill="#9aedb6" d="M 52.5625 17.9375 C 62.71875 23.832031 70.582031 31.308594 78.9375 41.902344 C 89.9375 55.855469 101.578125 64.230469 119.5 55.9375 C 147.847656 42.808594 165.359375 15.714844 200.265625 18.054688 C 226.910156 19.839844 254.027344 44.316406 242.132812 72.800781 C 230.789062 99.972656 183.421875 93.640625 179.058594 125.074219 C 174.042969 161.210938 223.792969 162.679688 246.761719 167.863281 C 314.796875 183.199219 289.804688 281 226.375 257.578125 C 204.847656 249.632812 168.898438 222.5 161.523438 262.007812 C 159.375 273.515625 161.796875 286.804688 152.746094 295.972656 C 144.285156 304.535156 130.324219 304.898438 119.496094 301.644531 C 91.300781 293.160156 74.953125 256.105469 42.4375 258.945312 C 11.085938 261.6875 16.355469 303.941406 -12.882812 311.992188 C -42.933594 320.273438 -66.515625 295.011719 -92.136719 284.820312 C -112.058594 276.898438 -137.222656 276.019531 -153.492188 260.617188 C -171.789062 243.304688 -169.296875 213.15625 -151.730469 196.175781 C -135.570312 180.558594 -83.746094 186.207031 -85.820312 155.960938 C -87.113281 137.050781 -109.5625 132.925781 -123.1875 126.292969 C -137.941406 119.113281 -146.96875 107.753906 -148.203125 90.992188 C -150.789062 55.914062 -116.707031 19.339844 -85.476562 9.519531 C -47 -2.574219 -2.386719 -3.703125 36.203125 10.390625 C 42.363281 12.671875 47.722656 15.125 52.5625 17.9375 Z M 52.5625 17.9375 " fill-opacity="1" fill-rule="nonzero"/></svg>