<svg xmlns="http://www.w3.org/2000/svg" xmlns:xlink="http://www.w3.org/1999/xlink" width="1920" zoomAndPan="magnify" viewBox="0 0 1440 809.999993" height="1080" preserveAspectRatio="xMidYMid meet" version="1.0"><defs><g/><clipPath id="ebe62e2b21"><path d="M 1079.691406 179 L 1084 179 L 1084 184 L 1079.691406 184 Z M 1079.691406 179 " clip-rule="nonzero"/></clipPath><clipPath id="6f59a2081b"><path d="M 268 317 L 279.441406 317 L 279.441406 330 L 268 330 Z M 268 317 " clip-rule="nonzero"/></clipPath><clipPath id="b92475b18a"><path d="M 239 346 L 244 346 L 244 351.039062 L 239 351.039062 Z M 239 346 " clip-rule="nonzero"/></clipPath><clipPath id="558a0c6101"><path d="M 1228 551.570312 L 1302.902344 551.570312 L 1302.902344 779 L 1228 779 Z M 1228 551.570312 " clip-rule="nonzero"/></clipPath><clipPath id="3c0ce1c7fb"><path d="M 686 585.15625 L 859 585.15625 L 859 746 L 686 746 Z M 686 585.15625 " clip-rule="nonzero"/></clipPath><clipPath id="c8d16d637f"><path d="M 866 659 L 941.253906 659 L 941.253906 766 L 866 766 Z M 866 659 " clip-rule="nonzero"/></clipPath><clipPath id="d42e9cfe41"><path d="M 333.476562 585.15625 L 551 585.15625 L 551 751 L 333.476562 751 Z M 333.476562 585.15625 " clip-rule="nonzero"/></clipPath><clipPath id="92ea6df3ac"><path d="M 394 705 L 582.476562 705 L 582.476562 810 L 394 810 Z M 394 705 " clip-rule="nonzero"/></clipPath><clipPath id="e0794e254f"><path d="M 1345.636719 568.363281 L 1440 568.363281 L 1440 734 L 1345.636719 734 Z M 1345.636719 568.363281 " clip-rule="nonzero"/></clipPath></defs><rect x="-144" width="1728" fill="#ffffff" y="-80.999999" height="971.999992" fill-opacity="1"/><rect x="-144" width="1728" fill="#516953" y="-80.999999" height="971.999992" fill-opacity="1"/><g fill="#5bd886" fill-opacity="0.4"><g transform="translate(304.841504, 267.949694)"><g><path d="M 73.914062 1.839844 L 77.226562 1.839844 C 108.851562 1.65625 126.871094 -18.9375 128.15625 -39.347656 C 129.628906 -60.675781 113.449219 -84.582031 74.46875 -89.542969 L 74.101562 -89.542969 C 59.941406 -91.199219 45.230469 -98.1875 45.96875 -108.484375 C 46.519531 -115.839844 57.550781 -122.640625 77.59375 -121.722656 L 78.144531 -121.722656 C 89.175781 -121.722656 102.414062 -116.390625 109.21875 -111.425781 L 125.03125 -133.488281 C 114.550781 -141.027344 96.164062 -148.75 78.511719 -148.75 C 39.53125 -150.773438 20.59375 -130.914062 18.9375 -110.691406 C 18.019531 -98.921875 22.984375 -87.339844 32.546875 -78.511719 C 41.921875 -69.871094 55.34375 -64.355469 71.15625 -62.699219 C 92.671875 -59.757812 101.679688 -49.828125 101.128906 -41.1875 C 100.578125 -33.28125 92.117188 -25.375 76.859375 -25.375 L 75.9375 -25.375 C 75.753906 -25.375 55.710938 -24.269531 43.394531 -34.382812 C 40.265625 -36.773438 37.691406 -39.714844 35.304688 -43.210938 L 12.871094 -27.949219 C 16.546875 -22.433594 21.144531 -17.46875 26.292969 -13.238281 C 43.027344 0.367188 65.089844 1.839844 73.914062 1.839844 Z M 73.914062 1.839844 "/></g></g></g><g fill="#5bd886" fill-opacity="0.4"><g transform="translate(445.867649, 267.949694)"><g><path d="M 100.210938 -145.992188 L 100.210938 -78.878906 L 40.453125 -78.878906 L 40.453125 -145.992188 L 12.871094 -145.992188 L 12.871094 1.285156 L 40.453125 1.285156 L 40.453125 -51.484375 L 100.210938 -51.484375 L 100.210938 1.285156 L 127.605469 1.285156 L 127.605469 -145.992188 Z M 100.210938 -145.992188 "/></g></g></g><g fill="#5bd886" fill-opacity="0.4"><g transform="translate(586.342207, 267.949694)"><g><path d="M 99.65625 0 L 128.339844 0 L 85.132812 -146.726562 L 85.132812 -147.097656 L 56.265625 -147.097656 L 12.871094 0 L 41.738281 0 L 52.585938 -36.589844 L 88.808594 -36.589844 Z M 60.675781 -63.988281 L 70.789062 -98.1875 L 80.71875 -63.988281 Z M 60.675781 -63.988281 "/></g></g></g><g fill="#5bd886" fill-opacity="0.4"><g transform="translate(727.552222, 267.949694)"><g><path d="M 76.304688 -147.097656 L 12.871094 -147.097656 L 12.871094 0 L 40.453125 0 L 40.453125 -36.589844 L 76.304688 -36.589844 C 115.101562 -36.589844 127.789062 -61.414062 127.789062 -91.933594 C 127.789062 -122.457031 113.816406 -147.097656 76.304688 -147.097656 Z M 95.0625 -70.054688 C 91.933594 -66.007812 85.683594 -64.171875 76.304688 -64.171875 L 40.453125 -64.171875 L 40.453125 -119.699219 L 76.304688 -119.699219 C 89.914062 -119.699219 93.589844 -115.101562 94.875 -113.632812 C 98.371094 -109.21875 100.210938 -101.496094 100.210938 -91.933594 C 100.210938 -81.820312 98.371094 -74.101562 95.0625 -70.054688 Z M 95.0625 -70.054688 "/></g></g></g><g fill="#5bd886" fill-opacity="0.4"><g transform="translate(868.210635, 267.949694)"><g><path d="M 98.1875 -119.882812 L 98.1875 -147.28125 L 12.871094 -147.28125 L 12.871094 0 L 98.1875 0 L 98.1875 -27.398438 L 40.453125 -27.398438 L 40.453125 -60.125 L 74.835938 -60.125 L 74.835938 -87.523438 L 40.453125 -87.523438 L 40.453125 -119.882812 Z M 98.1875 -119.882812 "/></g></g></g><g fill="#5bd886" fill-opacity="0.4"><g transform="translate(979.266431, 267.949694)"><g><path d="M 73.914062 1.839844 L 77.226562 1.839844 C 108.851562 1.65625 126.871094 -18.9375 128.15625 -39.347656 C 129.628906 -60.675781 113.449219 -84.582031 74.46875 -89.542969 L 74.101562 -89.542969 C 59.941406 -91.199219 45.230469 -98.1875 45.96875 -108.484375 C 46.519531 -115.839844 57.550781 -122.640625 77.59375 -121.722656 L 78.144531 -121.722656 C 89.175781 -121.722656 102.414062 -116.390625 109.21875 -111.425781 L 125.03125 -133.488281 C 114.550781 -141.027344 96.164062 -148.75 78.511719 -148.75 C 39.53125 -150.773438 20.59375 -130.914062 18.9375 -110.691406 C 18.019531 -98.921875 22.984375 -87.339844 32.546875 -78.511719 C 41.921875 -69.871094 55.34375 -64.355469 71.15625 -62.699219 C 92.671875 -59.757812 101.679688 -49.828125 101.128906 -41.1875 C 100.578125 -33.28125 92.117188 -25.375 76.859375 -25.375 L 75.9375 -25.375 C 75.753906 -25.375 55.710938 -24.269531 43.394531 -34.382812 C 40.265625 -36.773438 37.691406 -39.714844 35.304688 -43.210938 L 12.871094 -27.949219 C 16.546875 -22.433594 21.144531 -17.46875 26.292969 -13.238281 C 43.027344 0.367188 65.089844 1.839844 73.914062 1.839844 Z M 73.914062 1.839844 "/></g></g></g><g fill="#5bd886" fill-opacity="1"><g transform="translate(315.570401, 263.831258)"><g><path d="M 73.914062 1.839844 L 77.226562 1.839844 C 108.851562 1.65625 126.871094 -18.9375 128.15625 -39.347656 C 129.628906 -60.675781 113.449219 -84.582031 74.46875 -89.542969 L 74.101562 -89.542969 C 59.941406 -91.199219 45.230469 -98.1875 45.96875 -108.484375 C 46.519531 -115.839844 57.550781 -122.640625 77.59375 -121.722656 L 78.144531 -121.722656 C 89.175781 -121.722656 102.414062 -116.390625 109.21875 -111.425781 L 125.03125 -133.488281 C 114.550781 -141.027344 96.164062 -148.75 78.511719 -148.75 C 39.53125 -150.773438 20.59375 -130.914062 18.9375 -110.691406 C 18.019531 -98.921875 22.984375 -87.339844 32.546875 -78.511719 C 41.921875 -69.871094 55.34375 -64.355469 71.15625 -62.699219 C 92.671875 -59.757812 101.679688 -49.828125 101.128906 -41.1875 C 100.578125 -33.28125 92.117188 -25.375 76.859375 -25.375 L 75.9375 -25.375 C 75.753906 -25.375 55.710938 -24.269531 43.394531 -34.382812 C 40.265625 -36.773438 37.691406 -39.714844 35.304688 -43.210938 L 12.871094 -27.949219 C 16.546875 -22.433594 21.144531 -17.46875 26.292969 -13.238281 C 43.027344 0.367188 65.089844 1.839844 73.914062 1.839844 Z M 73.914062 1.839844 "/></g></g></g><g fill="#5bd886" fill-opacity="1"><g transform="translate(456.596546, 263.831258)"><g><path d="M 100.210938 -145.992188 L 100.210938 -78.878906 L 40.453125 -78.878906 L 40.453125 -145.992188 L 12.871094 -145.992188 L 12.871094 1.285156 L 40.453125 1.285156 L 40.453125 -51.484375 L 100.210938 -51.484375 L 100.210938 1.285156 L 127.605469 1.285156 L 127.605469 -145.992188 Z M 100.210938 -145.992188 "/></g></g></g><g fill="#5bd886" fill-opacity="1"><g transform="translate(597.071104, 263.831258)"><g><path d="M 99.65625 0 L 128.339844 0 L 85.132812 -146.726562 L 85.132812 -147.097656 L 56.265625 -147.097656 L 12.871094 0 L 41.738281 0 L 52.585938 -36.589844 L 88.808594 -36.589844 Z M 60.675781 -63.988281 L 70.789062 -98.1875 L 80.71875 -63.988281 Z M 60.675781 -63.988281 "/></g></g></g><g fill="#5bd886" fill-opacity="1"><g transform="translate(738.281119, 263.831258)"><g><path d="M 76.304688 -147.097656 L 12.871094 -147.097656 L 12.871094 0 L 40.453125 0 L 40.453125 -36.589844 L 76.304688 -36.589844 C 115.101562 -36.589844 127.789062 -61.414062 127.789062 -91.933594 C 127.789062 -122.457031 113.816406 -147.097656 76.304688 -147.097656 Z M 95.0625 -70.054688 C 91.933594 -66.007812 85.683594 -64.171875 76.304688 -64.171875 L 40.453125 -64.171875 L 40.453125 -119.699219 L 76.304688 -119.699219 C 89.914062 -119.699219 93.589844 -115.101562 94.875 -113.632812 C 98.371094 -109.21875 100.210938 -101.496094 100.210938 -91.933594 C 100.210938 -81.820312 98.371094 -74.101562 95.0625 -70.054688 Z M 95.0625 -70.054688 "/></g></g></g><g fill="#5bd886" fill-opacity="1"><g transform="translate(878.939532, 263.831258)"><g><path d="M 98.1875 -119.882812 L 98.1875 -147.28125 L 12.871094 -147.28125 L 12.871094 0 L 98.1875 0 L 98.1875 -27.398438 L 40.453125 -27.398438 L 40.453125 -60.125 L 74.835938 -60.125 L 74.835938 -87.523438 L 40.453125 -87.523438 L 40.453125 -119.882812 Z M 98.1875 -119.882812 "/></g></g></g><g fill="#5bd886" fill-opacity="1"><g transform="translate(989.995328, 263.831258)"><g><path d="M 73.914062 1.839844 L 77.226562 1.839844 C 108.851562 1.65625 126.871094 -18.9375 128.15625 -39.347656 C 129.628906 -60.675781 113.449219 -84.582031 74.46875 -89.542969 L 74.101562 -89.542969 C 59.941406 -91.199219 45.230469 -98.1875 45.96875 -108.484375 C 46.519531 -115.839844 57.550781 -122.640625 77.59375 -121.722656 L 78.144531 -121.722656 C 89.175781 -121.722656 102.414062 -116.390625 109.21875 -111.425781 L 125.03125 -133.488281 C 114.550781 -141.027344 96.164062 -148.75 78.511719 -148.75 C 39.53125 -150.773438 20.59375 -130.914062 18.9375 -110.691406 C 18.019531 -98.921875 22.984375 -87.339844 32.546875 -78.511719 C 41.921875 -69.871094 55.34375 -64.355469 71.15625 -62.699219 C 92.671875 -59.757812 101.679688 -49.828125 101.128906 -41.1875 C 100.578125 -33.28125 92.117188 -25.375 76.859375 -25.375 L 75.9375 -25.375 C 75.753906 -25.375 55.710938 -24.269531 43.394531 -34.382812 C 40.265625 -36.773438 37.691406 -39.714844 35.304688 -43.210938 L 12.871094 -27.949219 C 16.546875 -22.433594 21.144531 -17.46875 26.292969 -13.238281 C 43.027344 0.367188 65.089844 1.839844 73.914062 1.839844 Z M 73.914062 1.839844 "/></g></g></g><path fill="#ffffff" d="M 1325.3125 27.023438 L 1326.351562 34.457031 C 1326.402344 34.800781 1326.5625 35.117188 1326.808594 35.363281 C 1327.054688 35.605469 1327.371094 35.761719 1327.710938 35.820312 L 1335.136719 36.855469 L 1327.699219 37.894531 C 1327.355469 37.945312 1327.039062 38.105469 1326.796875 38.351562 C 1326.554688 38.597656 1326.394531 38.914062 1326.339844 39.253906 L 1325.300781 46.679688 L 1324.261719 39.246094 C 1324.179688 38.933594 1324 38.652344 1323.753906 38.445312 C 1323.507812 38.203125 1323.191406 38.042969 1322.851562 37.988281 L 1315.425781 36.949219 L 1322.859375 35.910156 C 1323.214844 35.828125 1323.53125 35.621094 1323.753906 35.332031 C 1323.996094 35.082031 1324.15625 34.769531 1324.210938 34.425781 Z M 1325.3125 27.023438 " fill-opacity="1" fill-rule="nonzero"/><path fill="#ffffff" d="M 1199.644531 325.019531 L 1200.496094 330.882812 C 1200.539062 331.15625 1200.664062 331.40625 1200.859375 331.601562 C 1201.046875 331.796875 1201.296875 331.921875 1201.566406 331.953125 L 1207.433594 332.804688 L 1201.566406 333.65625 C 1201.292969 333.699219 1201.042969 333.828125 1200.847656 334.019531 C 1200.652344 334.207031 1200.527344 334.457031 1200.496094 334.726562 L 1199.644531 340.59375 L 1198.792969 334.726562 C 1198.75 334.457031 1198.625 334.203125 1198.429688 334.011719 C 1198.242188 333.8125 1197.992188 333.6875 1197.722656 333.65625 L 1191.855469 332.804688 L 1197.722656 331.953125 C 1197.992188 331.914062 1198.246094 331.785156 1198.441406 331.589844 C 1198.636719 331.402344 1198.761719 331.15625 1198.792969 330.882812 Z M 1199.644531 325.019531 " fill-opacity="1" fill-rule="nonzero"/><path fill="#ffffff" d="M 1238.589844 66.480469 C 1238.589844 66.894531 1238.511719 67.289062 1238.351562 67.671875 C 1238.195312 68.054688 1237.96875 68.390625 1237.679688 68.683594 C 1237.386719 68.972656 1237.050781 69.199219 1236.667969 69.359375 C 1236.285156 69.515625 1235.886719 69.59375 1235.476562 69.59375 C 1235.0625 69.59375 1234.664062 69.515625 1234.28125 69.359375 C 1233.902344 69.199219 1233.5625 68.972656 1233.273438 68.683594 C 1232.980469 68.390625 1232.753906 68.054688 1232.597656 67.671875 C 1232.4375 67.289062 1232.359375 66.894531 1232.359375 66.480469 C 1232.359375 66.066406 1232.4375 65.667969 1232.597656 65.289062 C 1232.753906 64.90625 1232.980469 64.570312 1233.273438 64.277344 C 1233.5625 63.984375 1233.902344 63.761719 1234.28125 63.601562 C 1234.664062 63.445312 1235.0625 63.363281 1235.476562 63.363281 C 1235.886719 63.363281 1236.285156 63.445312 1236.667969 63.601562 C 1237.050781 63.761719 1237.386719 63.984375 1237.679688 64.277344 C 1237.96875 64.570312 1238.195312 64.90625 1238.351562 65.289062 C 1238.511719 65.667969 1238.589844 66.066406 1238.589844 66.480469 Z M 1238.589844 66.480469 " fill-opacity="1" fill-rule="nonzero"/><path fill="#ffffff" d="M 1357.507812 187.960938 L 1358.128906 192.269531 C 1358.164062 192.464844 1358.253906 192.644531 1358.390625 192.789062 C 1358.535156 192.925781 1358.722656 193.015625 1358.917969 193.050781 L 1363.21875 193.671875 L 1358.910156 194.296875 C 1358.714844 194.332031 1358.535156 194.421875 1358.390625 194.554688 C 1358.253906 194.703125 1358.164062 194.886719 1358.128906 195.085938 L 1357.507812 199.382812 L 1356.882812 195.074219 C 1356.847656 194.878906 1356.757812 194.699219 1356.625 194.554688 C 1356.476562 194.417969 1356.292969 194.328125 1356.09375 194.296875 L 1351.792969 193.671875 L 1356.105469 193.050781 C 1356.300781 193.015625 1356.480469 192.921875 1356.625 192.789062 C 1356.761719 192.640625 1356.851562 192.457031 1356.882812 192.261719 Z M 1357.507812 187.960938 " fill-opacity="1" fill-rule="nonzero"/><path fill="#ffffff" d="M 1418.78125 137.085938 L 1419.40625 141.394531 C 1419.441406 141.585938 1419.53125 141.765625 1419.664062 141.914062 C 1419.8125 142.046875 1419.996094 142.140625 1420.195312 142.171875 L 1424.496094 142.796875 L 1420.183594 143.417969 C 1419.988281 143.453125 1419.808594 143.542969 1419.664062 143.679688 C 1419.527344 143.824219 1419.4375 144.007812 1419.40625 144.207031 L 1418.78125 148.507812 L 1418.160156 144.195312 C 1418.125 144.003906 1418.035156 143.824219 1417.898438 143.679688 C 1417.753906 143.542969 1417.566406 143.453125 1417.371094 143.417969 L 1413.070312 142.796875 L 1417.378906 142.171875 C 1417.574219 142.136719 1417.753906 142.046875 1417.898438 141.914062 C 1418.035156 141.765625 1418.125 141.582031 1418.160156 141.382812 Z M 1418.78125 137.085938 " fill-opacity="1" fill-rule="nonzero"/><path fill="#ffffff" d="M 1178.871094 226.378906 L 1180.066406 234.59375 C 1180.109375 234.984375 1180.285156 235.351562 1180.566406 235.628906 C 1180.847656 235.910156 1181.210938 236.089844 1181.605469 236.140625 L 1189.777344 237.28125 L 1181.5625 238.476562 C 1181.167969 238.519531 1180.800781 238.695312 1180.523438 238.972656 C 1180.246094 239.253906 1180.066406 239.621094 1180.015625 240.011719 L 1178.871094 248.183594 L 1177.679688 239.96875 C 1177.636719 239.578125 1177.460938 239.210938 1177.179688 238.933594 C 1176.898438 238.652344 1176.535156 238.472656 1176.140625 238.421875 L 1167.96875 237.28125 L 1176.183594 236.085938 C 1176.578125 236.042969 1176.941406 235.871094 1177.222656 235.589844 C 1177.5 235.308594 1177.679688 234.941406 1177.730469 234.550781 Z M 1178.871094 226.378906 " fill-opacity="1" fill-rule="nonzero"/><path fill="#ffffff" d="M 1107.210938 307.367188 L 1107.835938 311.675781 C 1107.871094 311.871094 1107.960938 312.050781 1108.09375 312.195312 C 1108.242188 312.332031 1108.425781 312.421875 1108.625 312.453125 L 1112.925781 313.078125 L 1108.613281 313.699219 C 1108.417969 313.734375 1108.238281 313.828125 1108.09375 313.960938 C 1107.957031 314.109375 1107.867188 314.292969 1107.835938 314.488281 L 1107.210938 318.789062 L 1106.589844 314.480469 C 1106.554688 314.285156 1106.464844 314.105469 1106.328125 313.960938 C 1106.179688 313.824219 1105.996094 313.734375 1105.800781 313.699219 L 1101.5 313.078125 L 1105.808594 312.453125 C 1106.003906 312.417969 1106.183594 312.328125 1106.328125 312.195312 C 1106.464844 312.046875 1106.554688 311.863281 1106.589844 311.664062 Z M 1107.210938 307.367188 " fill-opacity="1" fill-rule="nonzero"/><path fill="#ffffff" d="M 1167.449219 307.367188 L 1168.070312 311.664062 C 1168.121094 312.078125 1168.449219 312.40625 1168.859375 312.453125 L 1173.160156 313.078125 L 1168.859375 313.699219 C 1168.449219 313.75 1168.121094 314.078125 1168.070312 314.488281 L 1167.449219 318.789062 L 1166.824219 314.480469 C 1166.789062 314.285156 1166.699219 314.105469 1166.566406 313.960938 C 1166.421875 313.820312 1166.234375 313.730469 1166.035156 313.699219 L 1161.738281 313.078125 L 1166.035156 312.453125 C 1166.449219 312.40625 1166.777344 312.078125 1166.824219 311.664062 Z M 1167.449219 307.367188 " fill-opacity="1" fill-rule="nonzero"/><path fill="#ffffff" d="M 1324.273438 110.089844 L 1325.125 115.957031 C 1325.164062 116.226562 1325.292969 116.476562 1325.488281 116.671875 C 1325.675781 116.867188 1325.925781 116.992188 1326.195312 117.023438 L 1332.0625 117.875 L 1326.195312 118.726562 C 1325.921875 118.769531 1325.671875 118.898438 1325.476562 119.089844 C 1325.28125 119.277344 1325.15625 119.527344 1325.125 119.796875 L 1324.273438 125.664062 L 1323.421875 119.796875 C 1323.378906 119.527344 1323.25 119.273438 1323.058594 119.082031 C 1322.871094 118.882812 1322.621094 118.757812 1322.351562 118.726562 L 1316.484375 117.875 L 1322.351562 117.023438 C 1322.621094 116.984375 1322.875 116.855469 1323.066406 116.660156 C 1323.265625 116.472656 1323.390625 116.226562 1323.421875 115.957031 Z M 1324.273438 110.089844 " fill-opacity="1" fill-rule="nonzero"/><path fill="#ffffff" d="M 1437.996094 56.097656 C 1437.996094 56.371094 1437.941406 56.636719 1437.835938 56.890625 C 1437.730469 57.144531 1437.582031 57.371094 1437.386719 57.566406 C 1437.191406 57.761719 1436.96875 57.910156 1436.714844 58.015625 C 1436.460938 58.121094 1436.195312 58.171875 1435.917969 58.171875 C 1435.644531 58.171875 1435.378906 58.121094 1435.125 58.015625 C 1434.871094 57.910156 1434.644531 57.761719 1434.449219 57.566406 C 1434.253906 57.371094 1434.105469 57.144531 1434 56.890625 C 1433.894531 56.636719 1433.839844 56.371094 1433.839844 56.097656 C 1433.839844 55.820312 1433.894531 55.554688 1434 55.300781 C 1434.105469 55.046875 1434.253906 54.824219 1434.449219 54.628906 C 1434.644531 54.433594 1434.871094 54.285156 1435.125 54.179688 C 1435.378906 54.074219 1435.644531 54.019531 1435.917969 54.019531 C 1436.195312 54.019531 1436.460938 54.074219 1436.714844 54.179688 C 1436.96875 54.285156 1437.191406 54.433594 1437.386719 54.628906 C 1437.582031 54.824219 1437.730469 55.046875 1437.835938 55.300781 C 1437.941406 55.554688 1437.996094 55.820312 1437.996094 56.097656 Z M 1437.996094 56.097656 " fill-opacity="1" fill-rule="nonzero"/><path fill="#ffffff" d="M 1089.035156 259.605469 C 1089.035156 260.019531 1088.957031 260.414062 1088.800781 260.796875 C 1088.640625 261.179688 1088.417969 261.515625 1088.125 261.808594 C 1087.832031 262.097656 1087.496094 262.324219 1087.113281 262.484375 C 1086.730469 262.640625 1086.335938 262.71875 1085.921875 262.71875 C 1085.507812 262.71875 1085.109375 262.640625 1084.730469 262.484375 C 1084.347656 262.324219 1084.011719 262.097656 1083.71875 261.808594 C 1083.425781 261.515625 1083.199219 261.179688 1083.042969 260.796875 C 1082.882812 260.414062 1082.804688 260.019531 1082.804688 259.605469 C 1082.804688 259.191406 1082.882812 258.792969 1083.042969 258.414062 C 1083.199219 258.03125 1083.425781 257.695312 1083.71875 257.402344 C 1084.011719 257.109375 1084.347656 256.886719 1084.730469 256.726562 C 1085.109375 256.570312 1085.507812 256.488281 1085.921875 256.488281 C 1086.335938 256.488281 1086.730469 256.570312 1087.113281 256.726562 C 1087.496094 256.886719 1087.832031 257.109375 1088.125 257.402344 C 1088.417969 257.695312 1088.640625 258.03125 1088.800781 258.414062 C 1088.957031 258.792969 1089.035156 259.191406 1089.035156 259.605469 Z M 1089.035156 259.605469 " fill-opacity="1" fill-rule="nonzero"/><path fill="#ffffff" d="M 1329.984375 222.296875 C 1329.984375 222.710938 1329.90625 223.109375 1329.746094 223.492188 C 1329.589844 223.871094 1329.363281 224.210938 1329.070312 224.5 C 1328.78125 224.792969 1328.441406 225.019531 1328.0625 225.175781 C 1327.679688 225.335938 1327.28125 225.414062 1326.867188 225.414062 C 1326.457031 225.414062 1326.058594 225.335938 1325.675781 225.175781 C 1325.292969 225.019531 1324.957031 224.792969 1324.664062 224.5 C 1324.375 224.210938 1324.148438 223.871094 1323.992188 223.492188 C 1323.832031 223.109375 1323.753906 222.710938 1323.753906 222.296875 C 1323.753906 221.886719 1323.832031 221.488281 1323.992188 221.105469 C 1324.148438 220.726562 1324.375 220.386719 1324.664062 220.097656 C 1324.957031 219.804688 1325.292969 219.578125 1325.675781 219.421875 C 1326.058594 219.261719 1326.457031 219.183594 1326.867188 219.183594 C 1327.28125 219.183594 1327.679688 219.261719 1328.0625 219.421875 C 1328.441406 219.578125 1328.78125 219.804688 1329.070312 220.097656 C 1329.363281 220.386719 1329.589844 220.726562 1329.746094 221.105469 C 1329.90625 221.488281 1329.984375 221.886719 1329.984375 222.296875 Z M 1329.984375 222.296875 " fill-opacity="1" fill-rule="nonzero"/><g clip-path="url(#ebe62e2b21)"><path fill="#ffffff" d="M 1083.84375 181.730469 C 1083.84375 182.007812 1083.792969 182.273438 1083.6875 182.527344 C 1083.582031 182.78125 1083.429688 183.003906 1083.234375 183.199219 C 1083.039062 183.394531 1082.816406 183.546875 1082.5625 183.652344 C 1082.308594 183.753906 1082.042969 183.808594 1081.765625 183.808594 C 1081.492188 183.808594 1081.226562 183.753906 1080.972656 183.652344 C 1080.71875 183.546875 1080.492188 183.394531 1080.296875 183.199219 C 1080.101562 183.003906 1079.953125 182.78125 1079.847656 182.527344 C 1079.742188 182.273438 1079.691406 182.007812 1079.691406 181.730469 C 1079.691406 181.457031 1079.742188 181.191406 1079.847656 180.9375 C 1079.953125 180.683594 1080.101562 180.457031 1080.296875 180.261719 C 1080.492188 180.070312 1080.71875 179.917969 1080.972656 179.8125 C 1081.226562 179.707031 1081.492188 179.65625 1081.765625 179.65625 C 1082.042969 179.65625 1082.308594 179.707031 1082.5625 179.8125 C 1082.816406 179.917969 1083.039062 180.070312 1083.234375 180.261719 C 1083.429688 180.457031 1083.582031 180.683594 1083.6875 180.9375 C 1083.792969 181.191406 1083.84375 181.457031 1083.84375 181.730469 Z M 1083.84375 181.730469 " fill-opacity="1" fill-rule="nonzero"/></g><path fill="#ffffff" d="M 235.371094 132.96875 L 236.792969 142.75 C 236.855469 143.199219 237.066406 143.613281 237.386719 143.933594 C 237.707031 144.253906 238.121094 144.464844 238.570312 144.535156 L 248.351562 145.949219 L 238.570312 147.371094 C 237.640625 147.492188 236.910156 148.21875 236.78125 149.144531 L 235.371094 158.925781 L 233.949219 149.144531 C 233.882812 148.699219 233.675781 148.28125 233.355469 147.960938 C 233.035156 147.644531 232.621094 147.433594 232.171875 147.359375 L 222.386719 145.949219 L 232.171875 144.527344 C 233.097656 144.402344 233.832031 143.675781 233.957031 142.75 Z M 235.371094 132.96875 " fill-opacity="1" fill-rule="nonzero"/><path fill="#ffffff" d="M -1.421875 188 L -0.800781 192.308594 C -0.765625 192.503906 -0.675781 192.683594 -0.539062 192.828125 C -0.394531 192.964844 -0.207031 193.054688 -0.0117188 193.085938 L 4.289062 193.710938 L -0.0195312 194.332031 C -0.214844 194.367188 -0.394531 194.460938 -0.539062 194.59375 C -0.675781 194.742188 -0.765625 194.925781 -0.800781 195.121094 L -1.421875 199.421875 L -2.046875 195.113281 C -2.082031 194.917969 -2.171875 194.738281 -2.304688 194.59375 C -2.453125 194.457031 -2.636719 194.367188 -2.835938 194.332031 L -7.136719 193.710938 L -2.824219 193.085938 C -2.628906 193.050781 -2.453125 192.960938 -2.304688 192.828125 C -2.167969 192.679688 -2.078125 192.496094 -2.046875 192.296875 Z M -1.421875 188 " fill-opacity="1" fill-rule="nonzero"/><path fill="#ffffff" d="M 59.851562 137.121094 L 60.476562 141.429688 C 60.511719 141.625 60.601562 141.804688 60.734375 141.949219 C 60.882812 142.085938 61.066406 142.175781 61.265625 142.210938 L 65.566406 142.832031 L 61.253906 143.457031 C 61.058594 143.492188 60.878906 143.582031 60.734375 143.714844 C 60.597656 143.863281 60.507812 144.046875 60.476562 144.246094 L 59.851562 148.542969 L 59.230469 144.234375 C 59.195312 144.039062 59.105469 143.859375 58.96875 143.714844 C 58.824219 143.578125 58.636719 143.488281 58.441406 143.457031 L 54.140625 142.832031 L 58.449219 142.210938 C 58.644531 142.175781 58.824219 142.085938 58.96875 141.949219 C 59.105469 141.804688 59.195312 141.621094 59.230469 141.421875 Z M 59.851562 137.121094 " fill-opacity="1" fill-rule="nonzero"/><path fill="#ffffff" d="M 153.324219 191.113281 L 153.945312 195.421875 C 153.980469 195.617188 154.074219 195.796875 154.207031 195.941406 C 154.355469 196.078125 154.539062 196.167969 154.734375 196.203125 L 159.035156 196.824219 L 154.734375 197.449219 C 154.324219 197.5 153.996094 197.824219 153.945312 198.238281 L 153.324219 202.535156 L 152.699219 198.226562 C 152.664062 198.03125 152.574219 197.851562 152.441406 197.707031 C 152.292969 197.570312 152.109375 197.480469 151.910156 197.449219 L 147.613281 196.824219 L 151.910156 196.203125 C 152.324219 196.152344 152.652344 195.828125 152.699219 195.414062 Z M 153.324219 191.113281 " fill-opacity="1" fill-rule="nonzero"/><g clip-path="url(#6f59a2081b)"><path fill="#ffffff" d="M 273.796875 317.789062 L 274.421875 322.097656 C 274.449219 322.296875 274.546875 322.476562 274.691406 322.617188 C 274.835938 322.75 275.015625 322.839844 275.210938 322.875 L 279.511719 323.5 L 275.210938 324.121094 C 274.796875 324.171875 274.472656 324.496094 274.421875 324.910156 L 273.796875 329.210938 L 273.175781 324.902344 C 273.140625 324.707031 273.050781 324.527344 272.914062 324.382812 C 272.765625 324.246094 272.582031 324.15625 272.386719 324.121094 L 268.085938 323.5 L 272.394531 322.875 C 272.589844 322.839844 272.769531 322.75 272.914062 322.617188 C 273.050781 322.46875 273.140625 322.285156 273.175781 322.085938 Z M 273.796875 317.789062 " fill-opacity="1" fill-rule="nonzero"/></g><path fill="#ffffff" d="M 205.253906 328.171875 L 206.105469 334.039062 C 206.144531 334.308594 206.273438 334.558594 206.46875 334.753906 C 206.652344 334.953125 206.902344 335.074219 207.171875 335.105469 L 213.042969 335.957031 L 207.171875 336.808594 C 206.902344 336.851562 206.652344 336.980469 206.457031 337.171875 C 206.257812 337.359375 206.136719 337.609375 206.105469 337.878906 L 205.253906 343.746094 L 204.402344 337.878906 C 204.359375 337.609375 204.230469 337.355469 204.035156 337.164062 C 203.851562 336.964844 203.601562 336.839844 203.332031 336.808594 L 197.464844 335.957031 L 203.332031 335.105469 C 203.601562 335.066406 203.851562 334.9375 204.046875 334.742188 C 204.246094 334.558594 204.371094 334.308594 204.402344 334.039062 Z M 205.253906 328.171875 " fill-opacity="1" fill-rule="nonzero"/><path fill="#ffffff" d="M 98.28125 208.765625 L 99.132812 214.632812 C 99.171875 214.902344 99.300781 215.15625 99.496094 215.347656 C 99.683594 215.546875 99.929688 215.671875 100.199219 215.703125 L 106.070312 216.554688 L 100.199219 217.40625 C 99.929688 217.445312 99.679688 217.574219 99.484375 217.769531 C 99.285156 217.953125 99.164062 218.203125 99.132812 218.472656 L 98.28125 224.339844 L 97.429688 218.472656 C 97.386719 218.203125 97.257812 217.953125 97.066406 217.757812 C 96.878906 217.558594 96.628906 217.4375 96.359375 217.40625 L 90.492188 216.554688 L 96.359375 215.703125 C 96.628906 215.660156 96.878906 215.53125 97.074219 215.339844 C 97.273438 215.152344 97.398438 214.902344 97.429688 214.632812 Z M 98.28125 208.765625 " fill-opacity="1" fill-rule="nonzero"/><path fill="#ffffff" d="M 126.320312 144.390625 L 127.878906 154.949219 C 127.949219 155.4375 128.171875 155.890625 128.523438 156.238281 C 128.871094 156.582031 129.316406 156.804688 129.800781 156.882812 L 140.339844 158.40625 L 129.78125 159.964844 C 128.78125 160.109375 127.996094 160.890625 127.847656 161.886719 L 126.320312 172.425781 L 124.761719 161.867188 C 124.695312 161.378906 124.46875 160.925781 124.121094 160.578125 C 123.769531 160.234375 123.324219 160.011719 122.839844 159.933594 L 112.300781 158.40625 L 122.863281 156.851562 C 123.859375 156.707031 124.644531 155.925781 124.792969 154.929688 Z M 126.320312 144.390625 " fill-opacity="1" fill-rule="nonzero"/><path fill="#ffffff" d="M 125.800781 35.367188 C 125.800781 35.78125 125.722656 36.179688 125.566406 36.558594 C 125.40625 36.941406 125.179688 37.277344 124.890625 37.570312 C 124.597656 37.863281 124.261719 38.089844 123.878906 38.246094 C 123.496094 38.40625 123.097656 38.484375 122.6875 38.484375 C 122.273438 38.484375 121.875 38.40625 121.492188 38.246094 C 121.113281 38.089844 120.773438 37.863281 120.484375 37.570312 C 120.191406 37.277344 119.964844 36.941406 119.808594 36.558594 C 119.648438 36.179688 119.570312 35.78125 119.570312 35.367188 C 119.570312 34.957031 119.648438 34.558594 119.808594 34.175781 C 119.964844 33.792969 120.191406 33.457031 120.484375 33.164062 C 120.773438 32.875 121.113281 32.648438 121.492188 32.492188 C 121.875 32.332031 122.273438 32.253906 122.6875 32.253906 C 123.097656 32.253906 123.496094 32.332031 123.878906 32.492188 C 124.261719 32.648438 124.597656 32.875 124.890625 33.164062 C 125.179688 33.457031 125.40625 33.792969 125.566406 34.175781 C 125.722656 34.558594 125.800781 34.957031 125.800781 35.367188 Z M 125.800781 35.367188 " fill-opacity="1" fill-rule="nonzero"/><path fill="#ffffff" d="M 79.066406 56.132812 C 79.066406 56.410156 79.011719 56.675781 78.90625 56.929688 C 78.800781 57.183594 78.652344 57.410156 78.457031 57.601562 C 78.261719 57.796875 78.039062 57.949219 77.785156 58.054688 C 77.53125 58.160156 77.265625 58.210938 76.988281 58.210938 C 76.714844 58.210938 76.449219 58.160156 76.195312 58.054688 C 75.941406 57.949219 75.714844 57.796875 75.519531 57.601562 C 75.324219 57.410156 75.175781 57.183594 75.070312 56.929688 C 74.964844 56.675781 74.910156 56.410156 74.910156 56.132812 C 74.910156 55.859375 74.964844 55.59375 75.070312 55.339844 C 75.175781 55.085938 75.324219 54.859375 75.519531 54.667969 C 75.714844 54.472656 75.941406 54.320312 76.195312 54.214844 C 76.449219 54.109375 76.714844 54.058594 76.988281 54.058594 C 77.265625 54.058594 77.53125 54.109375 77.785156 54.214844 C 78.039062 54.320312 78.261719 54.472656 78.457031 54.667969 C 78.652344 54.859375 78.800781 55.085938 78.90625 55.339844 C 79.011719 55.59375 79.066406 55.859375 79.066406 56.132812 Z M 79.066406 56.132812 " fill-opacity="1" fill-rule="nonzero"/><g clip-path="url(#b92475b18a)"><path fill="#ffffff" d="M 243.160156 348.9375 C 243.160156 349.210938 243.105469 349.476562 243 349.730469 C 242.894531 349.988281 242.746094 350.210938 242.550781 350.40625 C 242.355469 350.601562 242.132812 350.75 241.878906 350.855469 C 241.625 350.960938 241.359375 351.015625 241.082031 351.015625 C 240.808594 351.015625 240.542969 350.960938 240.289062 350.855469 C 240.035156 350.75 239.808594 350.601562 239.613281 350.40625 C 239.417969 350.210938 239.269531 349.988281 239.164062 349.730469 C 239.058594 349.476562 239.003906 349.210938 239.003906 348.9375 C 239.003906 348.660156 239.058594 348.398438 239.164062 348.144531 C 239.269531 347.886719 239.417969 347.664062 239.613281 347.46875 C 239.808594 347.273438 240.035156 347.125 240.289062 347.019531 C 240.542969 346.914062 240.808594 346.859375 241.082031 346.859375 C 241.359375 346.859375 241.625 346.914062 241.878906 347.019531 C 242.132812 347.125 242.355469 347.273438 242.550781 347.46875 C 242.746094 347.664062 242.894531 347.886719 243 348.144531 C 243.105469 348.398438 243.160156 348.660156 243.160156 348.9375 Z M 243.160156 348.9375 " fill-opacity="1" fill-rule="nonzero"/></g><path fill="#ffffff" d="M 187.078125 62.363281 C 187.078125 62.636719 187.050781 62.90625 186.996094 63.175781 C 186.945312 63.441406 186.867188 63.703125 186.761719 63.953125 C 186.65625 64.207031 186.527344 64.445312 186.378906 64.671875 C 186.226562 64.898438 186.054688 65.109375 185.859375 65.300781 C 185.667969 65.492188 185.457031 65.667969 185.230469 65.816406 C 185.003906 65.96875 184.765625 66.097656 184.511719 66.203125 C 184.261719 66.304688 184 66.382812 183.734375 66.4375 C 183.464844 66.492188 183.195312 66.519531 182.921875 66.519531 C 182.648438 66.519531 182.378906 66.492188 182.113281 66.4375 C 181.84375 66.382812 181.585938 66.304688 181.332031 66.203125 C 181.082031 66.097656 180.839844 65.96875 180.613281 65.816406 C 180.386719 65.667969 180.179688 65.492188 179.984375 65.300781 C 179.792969 65.109375 179.621094 64.898438 179.46875 64.671875 C 179.316406 64.445312 179.1875 64.207031 179.085938 63.953125 C 178.980469 63.703125 178.902344 63.441406 178.847656 63.175781 C 178.796875 62.90625 178.769531 62.636719 178.769531 62.363281 C 178.769531 62.089844 178.796875 61.820312 178.847656 61.554688 C 178.902344 61.285156 178.980469 61.027344 179.085938 60.773438 C 179.1875 60.523438 179.316406 60.285156 179.46875 60.058594 C 179.621094 59.832031 179.792969 59.621094 179.984375 59.425781 C 180.179688 59.234375 180.386719 59.0625 180.613281 58.910156 C 180.839844 58.757812 181.082031 58.632812 181.332031 58.527344 C 181.585938 58.421875 181.84375 58.34375 182.113281 58.292969 C 182.378906 58.238281 182.648438 58.210938 182.921875 58.210938 C 183.195312 58.210938 183.464844 58.238281 183.734375 58.292969 C 184 58.34375 184.261719 58.421875 184.511719 58.527344 C 184.765625 58.632812 185.003906 58.757812 185.230469 58.910156 C 185.457031 59.0625 185.667969 59.234375 185.859375 59.425781 C 186.054688 59.621094 186.226562 59.832031 186.378906 60.058594 C 186.527344 60.285156 186.65625 60.523438 186.761719 60.773438 C 186.867188 61.027344 186.945312 61.285156 186.996094 61.554688 C 187.050781 61.820312 187.078125 62.089844 187.078125 62.363281 Z M 187.078125 62.363281 " fill-opacity="1" fill-rule="nonzero"/><path fill="#9aedb6" d="M 1967.203125 -84.230469 C 1976.546875 -72.90625 1982.753906 -62.253906 1984.457031 -54.195312 C 1986.101562 -46.378906 1983.570312 -41.347656 1978.664062 -38.371094 C 1974.882812 -36.070312 1969.582031 -35.089844 1964.597656 -33.769531 C 1959.46875 -32.414062 1954.503906 -30.816406 1950.839844 -28.15625 C 1947.484375 -25.722656 1944.996094 -22.347656 1946.242188 -16.824219 C 1947.488281 -11.285156 1952.949219 -4.042969 1960.75 3.734375 C 1972.726562 15.628906 1986.898438 26.464844 2000.324219 35.828125 C 2015.617188 46.488281 2029.519531 54.78125 2043.253906 64.058594 C 2057.289062 73.570312 2071.652344 84.621094 2085.855469 100.722656 C 2098.46875 115.007812 2110.125 132.308594 2119.144531 149.824219 C 2128.140625 167.234375 2134.269531 184.289062 2137.523438 198.988281 C 2140.0625 210.457031 2140.941406 220.414062 2139.726562 227.042969 C 2138.644531 232.984375 2135.949219 236.042969 2132.304688 236.933594 C 2128.542969 237.847656 2123.855469 236.609375 2118.828125 234.554688 C 2113.492188 232.363281 2107.738281 229.246094 2101.878906 226.097656 C 2096.007812 222.941406 2090.019531 219.710938 2084.164062 217.078125 C 2077.886719 214.25 2071.863281 212.242188 2066.480469 211.722656 C 2059.425781 211.042969 2053.238281 212.132812 2046.804688 212.820312 C 2040.453125 213.515625 2033.851562 213.90625 2026.015625 212.199219 C 2018.253906 210.527344 2009.25 206.621094 1998.984375 200.085938 C 1990.992188 195 1982.679688 188.78125 1974.257812 180.917969 C 1967.191406 174.316406 1960.511719 167.160156 1954.050781 160.140625 C 1947.457031 152.972656 1941.023438 145.863281 1934.164062 139.066406 C 1927.65625 132.617188 1920.660156 126.367188 1913.054688 121.191406 C 1905.273438 115.894531 1897.167969 112.144531 1889.703125 110.410156 C 1880.542969 108.277344 1872.4375 108.722656 1866.539062 110.949219 C 1860.78125 113.128906 1857.046875 117.007812 1854.339844 121.402344 C 1851.542969 125.953125 1849.75 131.0625 1847.8125 136.054688 C 1845.878906 141.046875 1843.816406 145.992188 1840.667969 150.335938 C 1837.53125 154.691406 1833.25 158.476562 1827.296875 160.894531 C 1821.105469 163.40625 1813.355469 164.65625 1805.054688 164.574219 C 1797.066406 164.480469 1788.394531 163.078125 1780.53125 159.675781 C 1770.472656 155.335938 1763.707031 148.175781 1755.832031 142.042969 C 1751.855469 138.957031 1747.410156 136 1742.148438 134.082031 C 1737.6875 132.449219 1732.835938 131.707031 1728.222656 131.992188 C 1719.242188 132.53125 1712 136.578125 1707.054688 141.425781 C 1700.957031 147.398438 1698.390625 154.851562 1695.976562 162.195312 C 1693.382812 170.210938 1690.84375 178.453125 1685.40625 185.6875 C 1680.765625 191.878906 1674.53125 197.214844 1667.675781 201.378906 C 1660.808594 205.523438 1653.269531 208.507812 1645.535156 209.679688 C 1637.34375 210.914062 1629 210.113281 1621.144531 207.492188 C 1613.613281 204.964844 1606.445312 200.734375 1600.757812 194.863281 C 1601.046875 195.167969 1592.910156 200.355469 1592.464844 200.71875 C 1586.652344 204.539062 1580.964844 208.441406 1575.445312 212.496094 C 1571.027344 215.742188 1566.753906 219.179688 1562.410156 222.40625 C 1559.648438 224.460938 1556.507812 226.019531 1553.46875 227.554688 C 1548.4375 230.101562 1543.214844 232.25 1537.777344 233.839844 C 1527.578125 236.804688 1516.257812 237.949219 1505.101562 235.597656 C 1495.878906 233.636719 1487.265625 228.886719 1480.484375 221.863281 C 1474.054688 215.21875 1469.980469 207.027344 1465.984375 198.804688 C 1462.25 191.207031 1458.445312 183.164062 1451.605469 177.757812 C 1445.105469 172.613281 1435.59375 171.203125 1425.835938 174.484375 C 1418.453125 176.964844 1412.402344 182.300781 1408.460938 188.855469 C 1404.054688 196.164062 1402.039062 204.285156 1400.839844 212.105469 C 1399.488281 220.863281 1399.195312 229.609375 1398.949219 238.363281 C 1398.726562 246.296875 1398.683594 254.394531 1397.371094 262.414062 C 1395.820312 271.832031 1391.300781 280.652344 1385.945312 288.617188 C 1379.316406 298.433594 1370.796875 307.0625 1360.839844 313.496094 C 1350.9375 319.871094 1339.558594 323.953125 1328.082031 323.980469 C 1315.519531 324.011719 1303.800781 318.839844 1293.957031 311.160156 C 1283.691406 303.203125 1275.25 292.765625 1266.828125 282.660156 C 1262.683594 277.699219 1258.519531 272.796875 1254.011719 268.375 C 1249.6875 264.132812 1244.972656 260.480469 1240.039062 257.164062 C 1229.878906 250.308594 1218.890625 244.84375 1208.722656 238.050781 C 1198.882812 231.441406 1189.597656 223.445312 1184.382812 211.304688 C 1179.585938 200.167969 1178.222656 184.800781 1183.601562 168.460938 C 1187.636719 156.144531 1195.574219 144.019531 1204.835938 133.230469 C 1214.269531 122.230469 1224.894531 112.488281 1235.351562 102.878906 C 1245.269531 93.757812 1255.378906 84.546875 1263.335938 74.675781 C 1272.285156 63.582031 1277.019531 52.820312 1278.636719 42.992188 C 1280.4375 32.078125 1277.84375 23.203125 1272.265625 16.167969 C 1266.585938 8.996094 1258.257812 3.679688 1249.734375 -1.367188 C 1241.125 -6.488281 1232.078125 -11.320312 1225.164062 -17.785156 C 1218.144531 -24.363281 1213.898438 -32.886719 1215.382812 -44.195312 C 1217.011719 -56.769531 1225.714844 -73.046875 1244.992188 -86.765625 C 1265.589844 -101.371094 1289.707031 -106.640625 1311.78125 -110.84375 C 1330.945312 -114.523438 1352.796875 -118.441406 1371.65625 -126.6875 C 1386.71875 -133.277344 1395.140625 -141.398438 1399.453125 -149.015625 C 1405.253906 -159.246094 1405.164062 -168.785156 1403.992188 -177.875 C 1402.820312 -187.226562 1400.167969 -196.570312 1405.421875 -206.777344 C 1411.082031 -217.746094 1427.386719 -228.78125 1449.996094 -236.609375 C 1471.675781 -244.175781 1498.550781 -248.394531 1525.125 -248.460938 C 1551.703125 -248.601562 1578.011719 -244.59375 1598.703125 -237.59375 C 1619.03125 -230.742188 1633.589844 -221.496094 1641.324219 -212.347656 C 1648.84375 -203.441406 1650.074219 -194.5625 1644.4375 -187.023438 C 1646.4375 -189.71875 1653.1875 -191.3125 1659.125 -192.433594 C 1667.074219 -193.949219 1675.949219 -194.816406 1684.996094 -195.335938 C 1703.960938 -196.429688 1723.863281 -196.320312 1744.722656 -194.035156 C 1770.742188 -191.199219 1798.238281 -185.054688 1825.417969 -175.621094 C 1851.828125 -166.492188 1878.121094 -154.179688 1901.960938 -139.300781 C 1925.492188 -124.675781 1946.472656 -107.472656 1961.707031 -90.542969 C 1963.660156 -88.433594 1965.480469 -86.324219 1967.203125 -84.230469 Z M 1967.203125 -84.230469 " fill-opacity="1" fill-rule="nonzero"/><path fill="#e1a8ae" d="M 1181.617188 724.382812 C 1180.738281 725.574219 1180.5625 727.0625 1180.128906 728.441406 C 1177.53125 736.78125 1173.726562 744.488281 1167.640625 750.847656 C 1163.007812 755.683594 1157.753906 759.375 1150.628906 759.707031 C 1144.664062 759.984375 1138.027344 755.828125 1135.695312 749.519531 C 1132.769531 741.613281 1134.3125 734.128906 1137.597656 726.828125 C 1140.933594 719.40625 1146.390625 713.675781 1152.855469 708.871094 C 1155.492188 706.910156 1158.101562 704.894531 1161.113281 703.507812 C 1162.667969 702.789062 1163.421875 701.75 1163.195312 699.964844 C 1162.132812 691.613281 1159.507812 683.980469 1153.320312 677.929688 C 1151.527344 676.152344 1149.402344 674.953125 1146.953125 674.339844 C 1143.964844 673.59375 1143.359375 674.066406 1143.242188 677.175781 C 1142.871094 687.089844 1141.355469 696.785156 1137.628906 706.035156 C 1133.960938 715.136719 1129.121094 723.515625 1121.902344 730.324219 C 1118.453125 733.578125 1114.476562 735.996094 1109.683594 736.609375 C 1098.875 737.984375 1092.433594 732.25 1089.972656 722.816406 C 1087.757812 714.335938 1088.757812 705.875 1091.792969 697.796875 C 1097.417969 682.8125 1106.460938 670.332031 1120.117188 661.582031 C 1121.875 660.449219 1122.167969 659.359375 1121.425781 657.527344 C 1119.535156 652.859375 1116.765625 648.867188 1112.875 645.652344 C 1111.027344 644.121094 1108.917969 643.207031 1106.539062 642.910156 C 1097.007812 641.6875 1088.863281 644.347656 1082.847656 652.101562 C 1076.246094 660.613281 1071.925781 670.078125 1071.523438 681.058594 C 1071.445312 682.566406 1071.199219 684.046875 1070.789062 685.5 C 1069.675781 689.625 1066.539062 692.371094 1062.746094 692.6875 C 1059.234375 692.980469 1054.875 690.148438 1053.390625 686.441406 C 1052.519531 684.277344 1051.96875 681.980469 1052.199219 679.621094 C 1053.78125 663.3125 1059.710938 648.882812 1070.921875 636.785156 C 1076.980469 630.253906 1084.480469 626.246094 1093.15625 624.363281 C 1105.875 621.605469 1117.417969 623.957031 1127.273438 632.65625 C 1132.914062 637.632812 1136.757812 643.984375 1139.339844 651.011719 C 1140.269531 653.53125 1141.417969 654.523438 1144.289062 654.667969 C 1158.0625 655.402344 1167.828125 662.648438 1174.570312 674.324219 C 1178.371094 680.90625 1180.933594 687.957031 1181.949219 695.519531 C 1182.296875 698.078125 1183.148438 699.789062 1185.882812 701.027344 C 1193.394531 704.425781 1197.871094 710.761719 1200.816406 718.28125 C 1203.78125 725.855469 1205.277344 733.800781 1206.316406 741.800781 C 1207.371094 749.933594 1208.4375 758.097656 1208.105469 766.332031 C 1207.765625 774.707031 1206.503906 782.9375 1203.699219 790.875 C 1202.671875 793.777344 1201.164062 796.320312 1198.316406 797.851562 C 1194.691406 799.792969 1190.761719 799.617188 1187.917969 797.195312 C 1184.804688 794.539062 1183.585938 791.171875 1184.988281 787.253906 C 1188.8125 776.574219 1189.355469 765.535156 1188.449219 754.40625 C 1187.71875 745.417969 1186.648438 736.4375 1183.820312 727.796875 C 1183.457031 726.769531 1183.027344 725.769531 1182.539062 724.796875 C 1182.453125 724.636719 1182.089844 724.589844 1181.617188 724.382812 Z M 1158.90625 729.222656 C 1156.601562 731.199219 1154.878906 733.507812 1154.609375 736.65625 C 1156.363281 734.359375 1158.832031 732.464844 1158.871094 729.1875 C 1158.9375 729.113281 1159.007812 729.039062 1159.074219 728.964844 Z M 1108.554688 715.710938 C 1115.605469 711.886719 1124.867188 691.265625 1122.839844 683.886719 C 1113.613281 691.847656 1106.519531 707.644531 1108.554688 715.710938 Z M 1108.554688 715.710938 " fill-opacity="1" fill-rule="nonzero"/><path fill="#ead089" d="M 1029.917969 802.234375 C 1030.09375 792.398438 1031.691406 782.914062 1036.878906 774.320312 C 1038.25 772.046875 1040.011719 770.148438 1042.242188 768.742188 C 1050.484375 763.5625 1060.242188 767.03125 1063.6875 776.226562 C 1066.652344 784.144531 1064.675781 791.628906 1061.773438 798.972656 C 1059.53125 804.625 1056.460938 809.785156 1052.5625 814.453125 C 1051.507812 815.710938 1051.023438 816.820312 1051.621094 818.523438 C 1054.519531 826.746094 1058.160156 834.480469 1064.765625 840.496094 C 1067.429688 842.953125 1070.519531 844.640625 1074.027344 845.5625 C 1075.828125 846.039062 1077.578125 846.089844 1079.246094 845.308594 C 1083.402344 843.378906 1086.136719 839.996094 1088.175781 836.039062 C 1088.90625 834.613281 1088.175781 833.113281 1087.613281 831.691406 C 1085.542969 826.367188 1084.839844 820.890625 1085.699219 815.207031 C 1086.144531 812.152344 1087.332031 809.421875 1089.261719 807.015625 C 1093.007812 802.316406 1100.523438 801.667969 1105.070312 805.632812 C 1107.273438 807.566406 1108.925781 809.824219 1109.824219 812.6875 C 1111.363281 817.578125 1112.023438 822.507812 1111.332031 827.617188 C 1110.722656 832.128906 1112.152344 833.90625 1116.703125 834.375 C 1119.5 834.664062 1122.136719 833.847656 1124.667969 832.75 C 1128.613281 831.066406 1132.132812 828.734375 1135.222656 825.757812 C 1139.0625 822.042969 1142.988281 818.417969 1146.953125 814.84375 C 1149.886719 812.195312 1153.300781 810.332031 1157.367188 810.902344 C 1163.320312 811.734375 1166.324219 817.203125 1164.183594 822.890625 C 1163.65625 824.296875 1162.992188 825.699219 1161.902344 826.753906 C 1154.4375 834.015625 1147.300781 841.644531 1138.414062 847.238281 C 1131.132812 851.816406 1123.234375 854.035156 1114.578125 853.398438 C 1111.511719 853.171875 1108.6875 852.199219 1105.898438 851.054688 C 1102.5625 849.691406 1102.453125 849.570312 1100.164062 852.546875 C 1097.277344 856.304688 1093.886719 859.417969 1089.714844 861.640625 C 1079.21875 867.226562 1069.007812 865.535156 1059.183594 859.992188 C 1048.332031 853.871094 1041.777344 844.007812 1036.65625 833.019531 C 1036.480469 832.652344 1036.402344 832.238281 1036.238281 831.863281 C 1035.027344 829.136719 1034.703125 828.898438 1031.894531 829.792969 C 1028.484375 830.882812 1025.042969 831.785156 1021.464844 831.867188 C 1007.484375 832.195312 995.667969 824.152344 989.703125 810.574219 C 984.152344 797.941406 984.78125 784.980469 988.347656 772 C 990.335938 764.683594 993.101562 757.695312 997.714844 751.574219 C 1001.226562 746.910156 1005.328125 742.921875 1010.933594 740.863281 C 1015.789062 739.085938 1020.816406 740.476562 1023.917969 744.289062 C 1026.28125 747.195312 1026.402344 750.371094 1024.128906 753.320312 C 1022.789062 755.0625 1021.273438 756.746094 1019.296875 757.722656 C 1015.410156 759.640625 1012.8125 762.714844 1010.9375 766.46875 C 1005.777344 776.789062 1003.40625 787.566406 1005.914062 799.066406 C 1006.6875 802.613281 1008.546875 805.671875 1010.847656 808.429688 C 1015.667969 814.179688 1024.234375 812.925781 1028.601562 810.359375 C 1029.679688 809.730469 1029.957031 808.746094 1029.929688 807.566406 C 1029.886719 805.800781 1029.917969 804.015625 1029.917969 802.234375 Z M 1029.917969 802.234375 " fill-opacity="1" fill-rule="nonzero"/><g clip-path="url(#558a0c6101)"><path fill="#bbc494" d="M 1258.855469 664.128906 C 1262.273438 663.808594 1266.113281 664.761719 1269.792969 666.355469 C 1271.816406 667.234375 1273.074219 666.730469 1274.238281 664.902344 C 1279.644531 656.410156 1283.066406 647.285156 1283.019531 637.117188 C 1282.996094 631.914062 1281.25 627.179688 1278.070312 623.023438 C 1275.914062 620.203125 1275.402344 620.210938 1273.453125 623.097656 C 1270.765625 627.085938 1267.816406 630.839844 1264.25 634.09375 C 1261.054688 637.007812 1257.480469 639.199219 1253.183594 640.046875 C 1240.039062 642.644531 1233.03125 630.90625 1235.164062 622.144531 C 1236.921875 614.964844 1241.367188 610.085938 1246.972656 605.949219 C 1251.015625 602.96875 1255.507812 601.03125 1260.449219 600.132812 C 1263.125 599.636719 1264.3125 598.273438 1265.058594 595.742188 C 1267.164062 588.484375 1268.410156 581.097656 1269.160156 573.59375 C 1269.582031 569.378906 1270.214844 565.191406 1270.78125 560.992188 C 1271.042969 559.046875 1271.855469 557.289062 1273 555.742188 C 1275.019531 553.023438 1277.835938 551.621094 1281.191406 552.066406 C 1284.859375 552.554688 1287.515625 554.660156 1288.628906 558.300781 C 1289.265625 560.386719 1289.738281 562.5625 1289.425781 564.78125 C 1288.125 574.117188 1287.777344 583.582031 1285.550781 592.789062 C 1284.96875 595.179688 1284.519531 597.625 1283.695312 599.929688 C 1283.007812 601.851562 1283.425781 602.988281 1285.117188 604.015625 C 1291.058594 607.625 1294.910156 613.027344 1297.960938 619.132812 C 1302.242188 627.683594 1302.90625 636.746094 1301.535156 645.976562 C 1299.652344 658.671875 1294.914062 670.21875 1286.558594 680.109375 C 1285.289062 681.609375 1285.855469 682.808594 1286.429688 684.234375 C 1289.480469 691.867188 1290.332031 699.925781 1290.167969 708 C 1289.992188 716.925781 1288.296875 725.660156 1284.648438 733.929688 C 1279.519531 745.550781 1273.113281 756.3125 1263.882812 765.207031 C 1258.804688 770.101562 1253.078125 774.050781 1246.625 776.890625 C 1243.113281 778.4375 1239.46875 779.613281 1235.511719 778.589844 C 1231.40625 777.527344 1228.628906 774.351562 1228.226562 770.160156 C 1227.902344 766.800781 1230.277344 762.988281 1233.757812 761.289062 C 1236.335938 760.027344 1239.152344 759.417969 1241.710938 758.007812 C 1251.214844 752.773438 1257.335938 744.460938 1262.671875 735.410156 C 1268.746094 725.113281 1271.707031 714.054688 1270.832031 702.039062 C 1270.644531 699.855469 1270.332031 697.6875 1269.898438 695.539062 C 1269.441406 693.097656 1269.09375 692.878906 1266.550781 693.785156 C 1261.199219 695.6875 1255.753906 696.875 1250.039062 696.363281 C 1243.714844 695.792969 1238.941406 692.863281 1236.058594 687.042969 C 1232.839844 680.542969 1235.988281 673.625 1239.941406 670.320312 C 1244.882812 666.183594 1250.992188 664.128906 1258.855469 664.128906 Z M 1258.855469 664.128906 " fill-opacity="1" fill-rule="nonzero"/></g><path fill="#c87062" d="M 1275.730469 785.039062 C 1282.179688 785.054688 1284.890625 788.796875 1283.300781 794.511719 C 1282.25 798.320312 1279.71875 800.980469 1276.609375 803.015625 C 1270.75 806.839844 1264.519531 809.90625 1257.914062 812.21875 C 1252.867188 813.972656 1247.75 811.832031 1245.820312 807.476562 C 1243.828125 802.96875 1245.46875 797.6875 1250.171875 795.167969 C 1256.671875 791.691406 1263.328125 788.519531 1270.265625 785.976562 C 1272.207031 785.257812 1274.214844 784.898438 1275.730469 785.039062 Z M 1275.730469 785.039062 " fill-opacity="1" fill-rule="nonzero"/><path fill="#7ec5cc" d="M 1241.976562 723.691406 C 1241.515625 729.078125 1239.078125 732.960938 1234.804688 735.351562 C 1230.898438 737.53125 1226.898438 736.886719 1223.285156 734.207031 C 1218.78125 730.871094 1217.589844 724.226562 1220.582031 719.125 C 1221.617188 717.367188 1222.691406 715.628906 1223.792969 713.902344 C 1227.492188 708.070312 1235.597656 707.992188 1239.023438 713.9375 C 1240.789062 716.996094 1241.332031 720.578125 1241.976562 723.691406 Z M 1241.976562 723.691406 " fill-opacity="1" fill-rule="nonzero"/><path fill="#7ec5cc" d="M 1142.296875 782.921875 C 1142.097656 784.769531 1141.800781 786.671875 1141.066406 788.445312 C 1139.347656 792.582031 1135.175781 794.695312 1130.703125 794.09375 C 1124.273438 793.226562 1117.527344 782.132812 1120.308594 776.148438 C 1122.910156 770.554688 1129.300781 767.839844 1134.597656 770.996094 C 1139.023438 773.628906 1142.078125 777.371094 1142.296875 782.921875 Z M 1142.296875 782.921875 " fill-opacity="1" fill-rule="nonzero"/><path fill="#fbfcfa" d="M 1158.90625 729.222656 L 1159.082031 728.964844 C 1159.011719 729.039062 1158.945312 729.113281 1158.878906 729.1875 Z M 1158.90625 729.222656 " fill-opacity="1" fill-rule="nonzero"/><g clip-path="url(#3c0ce1c7fb)"><path fill="#c87062" d="M 731.039062 669.882812 C 725.613281 670.25 721.117188 672.109375 717.132812 675.085938 C 708.027344 681.859375 702.59375 691.070312 699.953125 701.980469 C 697.984375 710.023438 697.476562 718.160156 698.433594 726.386719 C 698.820312 729.746094 699.128906 733.101562 699.730469 736.433594 C 699.925781 737.65625 699.976562 738.882812 699.886719 740.113281 C 699.746094 742.765625 698.0625 744.648438 695.636719 745.03125 C 693.085938 745.429688 690.925781 744.308594 689.835938 741.984375 C 689.082031 740.382812 688.964844 738.632812 688.671875 736.914062 C 687.421875 729.519531 686.671875 722.070312 687.089844 714.582031 C 687.886719 700.484375 691.503906 687.304688 700.550781 676.070312 C 707.652344 667.246094 716.261719 660.839844 727.800781 659.128906 C 729.734375 658.84375 731.671875 658.78125 733.617188 658.9375 C 735.5 659.085938 736.601562 658.425781 737.597656 656.8125 C 741.554688 650.464844 746.589844 645.136719 752.703125 640.824219 C 755.667969 638.683594 758.847656 636.949219 762.253906 635.621094 C 765.65625 634.289062 769.171875 633.402344 772.796875 632.960938 C 774.726562 632.722656 776.644531 632.277344 778.59375 632.394531 C 780.074219 632.480469 780.492188 631.722656 780.746094 630.425781 C 781.863281 624.660156 783.675781 619.132812 786.609375 614 C 791.523438 605.398438 797.738281 598.039062 806.496094 593.113281 C 812.996094 589.457031 820.074219 587.507812 827.386719 586.222656 C 833.492188 585.152344 839.410156 585.910156 845.316406 587.390625 C 848.097656 588.089844 850.902344 588.691406 853.65625 589.480469 C 855.871094 590.117188 857.433594 591.585938 857.898438 593.917969 C 858.3125 596.023438 857.554688 597.8125 855.84375 599.050781 C 854.304688 600.171875 852.550781 600.523438 850.601562 599.988281 C 847.246094 599.074219 843.839844 598.335938 840.472656 597.453125 C 834.933594 596.007812 829.460938 596.742188 824.058594 598.039062 C 806.683594 602.234375 796.445312 613.542969 792.007812 630.535156 C 791.441406 632.703125 791.492188 632.84375 793.808594 633.253906 C 800.046875 634.359375 805.890625 636.488281 811.167969 639.984375 C 822.378906 647.40625 828.84375 658.007812 831.449219 671.039062 C 832.863281 678.109375 831.230469 684.648438 827.34375 690.671875 C 822.894531 697.566406 817.046875 699.300781 809.242188 696.492188 C 800.410156 693.308594 793.824219 687.289062 788.972656 679.367188 C 784.464844 672.011719 782.285156 663.777344 780.539062 655.425781 C 779.835938 652.21875 779.429688 648.972656 779.324219 645.6875 C 779.273438 643.441406 779.09375 643.265625 776.757812 643.472656 C 769.109375 644.15625 762.164062 646.636719 756.378906 651.84375 C 753.328125 654.582031 750.417969 657.46875 747.996094 660.816406 C 747.175781 661.953125 747.371094 662.515625 748.519531 663.210938 C 760.441406 670.453125 768.246094 680.953125 772.367188 694.15625 C 775.175781 703.160156 775.378906 712.195312 770.449219 720.644531 C 766.964844 726.609375 761.777344 730.53125 754.753906 731.277344 C 749.046875 731.886719 744.035156 729.765625 739.785156 726.0625 C 729.007812 716.675781 725.300781 704.621094 726.726562 690.683594 C 727.082031 687.214844 727.371094 683.746094 728.234375 680.359375 C 729.097656 676.976562 730.03125 673.644531 731.039062 669.882812 Z M 742.15625 672.253906 C 738.882812 680.511719 737.304688 688.675781 737.410156 697.191406 C 737.507812 705.234375 740.488281 711.933594 746.378906 717.359375 C 751.628906 722.199219 757.753906 721.125 761.199219 714.84375 C 763.375 710.878906 763.691406 706.621094 763.027344 702.292969 C 761.746094 693.953125 757.945312 686.757812 752.453125 680.457031 C 749.628906 677.222656 746.457031 674.324219 742.160156 672.253906 Z M 790.34375 647.296875 C 790.800781 651.785156 791.660156 656.191406 792.925781 660.523438 C 794.742188 666.855469 796.976562 673.015625 801.476562 678.054688 C 804.726562 681.707031 808.433594 684.730469 813.148438 686.269531 C 815.839844 687.15625 817.109375 686.691406 818.539062 684.230469 C 820.265625 681.253906 821.507812 677.972656 820.933594 674.550781 C 818.980469 662.808594 813.355469 653.429688 802.648438 647.589844 C 799.570312 645.910156 796.242188 644.878906 792.8125 644.191406 C 790.691406 643.769531 790.371094 644.089844 790.347656 646.351562 C 790.34375 646.558594 790.34375 646.761719 790.34375 647.296875 Z M 790.34375 647.296875 " fill-opacity="1" fill-rule="nonzero"/></g><g clip-path="url(#c8d16d637f)"><path fill="#adbd8c" d="M 919.160156 698.324219 C 920.125 698.765625 921.152344 698.5625 922.132812 698.574219 C 925.824219 698.605469 929.515625 698.632812 933.207031 698.613281 C 934.875 698.585938 936.472656 698.910156 937.996094 699.585938 C 939.878906 700.441406 941.203125 701.734375 941.175781 704.035156 C 941.148438 706.261719 940.039062 707.683594 938.070312 708.53125 C 935.753906 709.550781 933.34375 709.882812 930.839844 709.527344 C 924.988281 708.671875 919.195312 710.121094 913.378906 709.496094 C 913.027344 710.917969 914.074219 711.316406 914.640625 711.910156 C 919.445312 716.960938 924.574219 721.695312 929.167969 726.953125 C 930.425781 728.398438 931.347656 729.925781 930.933594 731.945312 C 930.140625 735.832031 925.996094 737.578125 922.566406 735.394531 C 921.628906 734.796875 920.855469 733.933594 920.046875 733.152344 C 916.976562 730.160156 913.910156 727.160156 910.855469 724.148438 C 909.917969 724.636719 910.296875 725.449219 910.351562 726.070312 C 910.816406 731.269531 911.378906 736.460938 911.835938 741.660156 C 912.339844 747.371094 913.277344 753.039062 913.476562 758.773438 C 913.53125 760.347656 913.34375 761.8125 912.289062 763.109375 C 909.671875 766.320312 904.855469 765.707031 903.253906 761.894531 C 902.699219 760.5625 902.5625 759.132812 902.421875 757.691406 C 901.421875 747.203125 900.371094 736.722656 899.296875 726.023438 C 897.929688 726.578125 897.617188 727.75 896.992188 728.589844 C 895.964844 729.988281 895.175781 731.5625 893.882812 732.773438 C 892 734.535156 889.308594 734.960938 887.414062 733.769531 C 885.300781 732.4375 884.507812 730.25 885.121094 727.621094 C 885.386719 726.492188 885.941406 725.535156 886.574219 724.59375 C 889.03125 720.933594 891.484375 717.273438 893.929688 713.605469 C 894.492188 712.761719 895.019531 711.894531 895.527344 711.109375 C 895.082031 710.039062 894.253906 710.351562 893.625 710.414062 C 888.738281 710.902344 883.871094 711.5 878.976562 711.953125 C 876.523438 712.179688 874.066406 712.261719 871.601562 712.203125 C 868.941406 712.136719 867.054688 710.410156 866.660156 707.992188 C 866.21875 705.308594 867.417969 703.050781 869.910156 702.023438 C 871.339844 701.429688 872.855469 701.257812 874.410156 701.175781 C 877.785156 701.007812 881.148438 700.710938 884.519531 700.449219 C 885.433594 700.378906 886.339844 700.222656 887.34375 699.632812 C 885.253906 697.210938 883.171875 694.855469 881.15625 692.445312 C 880.113281 691.195312 879.085938 689.914062 878.925781 688.15625 C 878.671875 685.40625 879.742188 683.207031 881.878906 682.28125 C 884.082031 681.332031 886.878906 682.046875 888.515625 684.121094 C 890.617188 686.773438 892.761719 689.386719 895.136719 691.800781 C 895.695312 692.371094 896.144531 693.097656 897.039062 693.367188 C 897.796875 692.734375 897.429688 691.863281 897.417969 691.125 C 897.304688 683.847656 897.160156 676.574219 896.988281 669.296875 C 896.96875 667.546875 897.140625 665.816406 897.503906 664.105469 C 898.058594 661.289062 900.222656 659.707031 903.050781 659.867188 C 905.679688 660.019531 907.59375 661.804688 907.90625 664.539062 C 908.042969 665.753906 908.007812 666.996094 907.984375 668.226562 C 907.835938 676.320312 908.152344 684.398438 908.574219 692.75 C 909.703125 692.089844 910.257812 691.113281 910.898438 690.265625 C 913.546875 686.746094 916.148438 683.1875 918.792969 679.664062 C 920.960938 676.777344 923.550781 675.925781 925.917969 677.269531 C 928.5 678.738281 929.402344 681.921875 928.144531 685.085938 C 927.757812 686.042969 927.183594 686.878906 926.550781 687.699219 C 924.550781 690.296875 922.558594 692.902344 920.632812 695.554688 C 920.035156 696.339844 919.167969 697.015625 919.160156 698.324219 Z M 919.160156 698.324219 " fill-opacity="1" fill-rule="nonzero"/></g><path fill="#ead089" d="M 700.90625 809.195312 C 707.53125 804.195312 713.566406 800.011719 720.203125 796.65625 C 733.308594 790.027344 746.757812 790.269531 760.421875 794.0625 C 780.023438 799.5 788.011719 814.570312 790.441406 834.476562 C 790.964844 838.773438 790.855469 843.148438 791.046875 847.714844 C 797.816406 846.449219 804.386719 845.316406 811.167969 845.984375 C 826.652344 847.523438 837.085938 858.929688 836.554688 874.425781 C 836.1875 885.058594 832.449219 894.792969 827.410156 904.003906 C 825.332031 907.808594 821.300781 909.148438 817.480469 907.863281 C 813.242188 906.4375 810.890625 903.007812 811.242188 898.640625 C 811.433594 896.261719 812.28125 894.074219 813.363281 891.957031 C 815.515625 887.746094 816.785156 883.21875 817.964844 878.664062 C 818.367188 877.023438 818.535156 875.359375 818.464844 873.667969 C 818.308594 867.488281 815.398438 864.367188 809.257812 863.949219 C 805.734375 863.714844 802.242188 863.828125 798.742188 864.636719 C 792.648438 866.050781 787.949219 868.953125 785.429688 875.003906 C 784.179688 878.003906 781.984375 880.480469 778.78125 881.535156 C 772.242188 883.6875 766.15625 878.3125 767.347656 871.210938 C 768.117188 866.589844 769.675781 862.121094 770.832031 857.570312 C 772.925781 849.332031 773.570312 840.957031 772.089844 832.585938 C 770.945312 826.101562 769.011719 819.839844 763.550781 815.367188 C 761.585938 813.753906 759.390625 812.566406 756.964844 811.796875 C 744.777344 807.863281 733.269531 808.609375 722.304688 815.933594 C 714.230469 821.324219 706.726562 827.085938 702.605469 836.210938 C 701.429688 838.808594 700.667969 841.589844 699.445312 844.160156 C 697.171875 848.953125 692.570312 851.332031 688.492188 850.078125 C 684.015625 848.710938 681.453125 844.730469 682.027344 839.394531 C 683.003906 830.359375 683.628906 821.328125 683.054688 812.234375 C 682.917969 810.042969 682.746094 807.890625 682.039062 805.789062 C 680.519531 801.265625 677.410156 799.042969 672.589844 799.117188 C 670.300781 799.144531 668.0625 799.5 665.878906 800.1875 C 663.695312 800.871094 661.65625 801.855469 659.761719 803.136719 C 652.390625 808.113281 646.285156 814.164062 644.753906 823.589844 C 643.917969 828.714844 639.988281 831.648438 635.171875 831.261719 C 631.027344 830.921875 627.320312 826.972656 627.132812 822.304688 C 627.03125 820.1875 627.222656 818.101562 627.703125 816.039062 C 628.1875 813.976562 628.941406 812.019531 629.96875 810.171875 C 635.996094 799.40625 643.777344 790.34375 655.335938 785.167969 C 660.136719 783.019531 665.152344 781.707031 670.390625 781.234375 C 683.390625 780.035156 695.890625 787.335938 699.144531 800.535156 C 699.765625 803.125 700.523438 805.683594 700.90625 809.195312 Z M 700.90625 809.195312 " fill-opacity="1" fill-rule="nonzero"/><path fill="#e1a8ae" d="M 834.878906 772.710938 C 834.863281 781.363281 829.566406 788.988281 822.210938 791.550781 C 812.660156 794.882812 798.246094 788.394531 796.324219 776.332031 C 795.90625 773.871094 796.039062 771.445312 796.714844 769.042969 C 798.253906 763.648438 801.152344 759.226562 805.976562 756.148438 C 809.132812 754.140625 812.457031 753.753906 815.949219 754.855469 C 818.582031 755.6875 821.363281 755.765625 823.964844 756.816406 C 830.683594 759.527344 834.894531 765.515625 834.878906 772.710938 Z M 820.648438 772.894531 C 820.75 771.730469 820.207031 770.824219 819.054688 770.308594 C 818.03125 769.855469 816.972656 769.484375 815.953125 769.023438 C 814.667969 768.441406 813.390625 768.09375 812.324219 769.335938 C 811.125 770.75 810.097656 772.328125 810.640625 774.308594 C 811.214844 776.414062 814.828125 778.511719 817.050781 778.15625 C 818.832031 777.867188 820.621094 775.304688 820.648438 772.894531 Z M 820.648438 772.894531 " fill-opacity="1" fill-rule="nonzero"/><path fill="#7ec5cc" d="M 645.210938 702.226562 C 648.898438 701.945312 651.742188 703.359375 653.714844 706.546875 C 654.097656 707.152344 654.570312 707.679688 655.132812 708.128906 C 659.820312 711.960938 661.34375 716.859375 659.855469 722.644531 C 658.460938 728.089844 655.453125 732.539062 650.824219 735.742188 C 643.351562 740.902344 634.363281 738.828125 629.710938 731.007812 C 625.542969 724.003906 626.683594 717.296875 630.910156 710.816406 C 633.121094 707.421875 635.84375 704.550781 639.804688 703.113281 C 641.539062 702.492188 643.316406 702.074219 645.210938 702.226562 Z M 642.683594 723.746094 C 643.824219 723.3125 644.546875 722.238281 645.207031 721.101562 C 645.6875 720.277344 645.992188 719.484375 645.195312 718.621094 C 644.269531 717.609375 643.519531 717.566406 642.8125 718.738281 C 642.148438 719.847656 641.363281 720.964844 641.484375 722.378906 C 641.539062 723.007812 641.699219 723.582031 642.683594 723.746094 Z M 642.683594 723.746094 " fill-opacity="1" fill-rule="nonzero"/><g clip-path="url(#d42e9cfe41)"><path fill="#c87062" d="M 333.828125 684.796875 C 333.746094 661.234375 344.726562 643.53125 363.21875 629.90625 C 376.078125 620.433594 390.332031 615.230469 406.527344 615.988281 C 418.910156 616.570312 430.4375 619.746094 440.855469 626.621094 C 445.808594 629.894531 445.804688 629.839844 450.234375 625.867188 C 462.011719 615.292969 475.453125 607.398438 490.011719 601.316406 C 505.789062 594.71875 521.953125 589.394531 538.707031 585.878906 C 542.101562 585.164062 544.992188 585.917969 547.519531 588.097656 C 550.140625 590.351562 551.121094 593.351562 550.339844 596.683594 C 549.410156 600.640625 546.628906 603.019531 542.820312 604.09375 C 537.578125 605.566406 532.257812 606.785156 527.019531 608.28125 C 510.386719 612.996094 494.226562 618.910156 479.257812 627.714844 C 472.875 631.492188 466.960938 635.898438 461.519531 640.9375 C 458.433594 643.777344 458.410156 643.898438 460.613281 647.441406 C 465.777344 655.734375 469.742188 664.566406 471.636719 674.144531 C 475.359375 692.949219 474.554688 711.304688 464.644531 728.371094 C 459.292969 737.585938 452.238281 744.933594 441.820312 748.523438 C 423.535156 754.824219 410.339844 744.308594 407.894531 727.125 C 405.980469 713.605469 408.1875 700.484375 411.425781 687.46875 C 414.988281 673.152344 420.75 659.808594 429.871094 648.070312 C 430.300781 647.511719 430.609375 646.851562 431.082031 646.339844 C 432.753906 644.511719 432.003906 643.207031 430.242188 642.074219 C 425.757812 639.175781 420.832031 637.34375 415.675781 636.070312 C 388.113281 629.292969 363.898438 648.742188 355.890625 667.070312 C 351.996094 675.972656 352.140625 685.210938 353.476562 694.546875 C 353.773438 696.625 354.574219 698.636719 354.863281 700.714844 C 355.46875 705.109375 353.609375 708.664062 350.023438 710.378906 C 346.269531 712.171875 341.953125 711.28125 338.914062 708.109375 C 336.601562 705.707031 335.675781 702.644531 335.144531 699.53125 C 334.320312 694.683594 333.476562 689.804688 333.828125 684.796875 Z M 445.824219 659.691406 C 444.769531 659.753906 444.25 660.210938 443.835938 660.777344 C 442.996094 661.90625 442.160156 663.03125 441.402344 664.207031 C 432 678.714844 427.847656 694.941406 426.078125 711.878906 C 425.574219 716.753906 425.59375 721.714844 426.949219 726.539062 C 428.171875 730.894531 429.832031 732.035156 434.273438 731.152344 C 439 730.210938 442.535156 727.296875 445.332031 723.574219 C 449.089844 718.605469 451.75 713.109375 453.316406 707.078125 C 455.46875 698.78125 455.386719 690.378906 454.121094 682.011719 C 452.910156 673.988281 450.324219 666.398438 445.824219 659.691406 Z M 445.824219 659.691406 " fill-opacity="1" fill-rule="nonzero"/></g><g clip-path="url(#92ea6df3ac)"><path fill="#e1a8ae" d="M 581.734375 772.640625 C 581.332031 792.554688 572.65625 808.753906 558.898438 822.445312 C 550.308594 830.992188 539.472656 835.546875 527.75 838.167969 C 521.808594 839.5 515.757812 840.011719 509.710938 840.15625 C 506.863281 840.226562 505.535156 841.246094 504.667969 843.773438 C 502.546875 849.953125 498.722656 855.105469 494.621094 860.101562 C 488.023438 868.132812 479.289062 872.066406 469.269531 873.648438 C 458.214844 875.390625 447.617188 873.28125 437.160156 869.945312 C 425.074219 866.09375 414.417969 859.691406 404.894531 851.386719 C 400.394531 847.464844 396.773438 842.855469 395.28125 836.882812 C 393.871094 831.226562 396.046875 826.460938 400.925781 824.5625 C 405.632812 822.730469 410.136719 824.644531 412.632812 830.058594 C 414.582031 834.277344 417.535156 837.363281 421.1875 840.089844 C 433.21875 849.074219 446.421875 854.699219 461.632812 855.121094 C 472.257812 855.417969 479.632812 850.382812 484.722656 841.46875 C 486.59375 838.195312 486.277344 837.390625 482.460938 836.226562 C 477.492188 834.707031 472.59375 832.980469 468.085938 830.441406 C 457.703125 824.601562 449.144531 816.925781 445.441406 805.152344 C 440.921875 790.769531 449.472656 775.640625 463.746094 773.035156 C 470.671875 771.769531 477.691406 772.296875 484.050781 775.867188 C 499.140625 784.332031 507.605469 797.234375 509.566406 814.417969 C 509.667969 815.300781 509.746094 816.191406 509.875 817.074219 C 510.441406 821.035156 510.449219 821.070312 514.394531 820.671875 C 517.226562 820.390625 520.089844 820.171875 522.875 819.628906 C 544.476562 815.378906 560.234375 797.292969 562.441406 775.382812 C 564.5625 754.304688 555.488281 738.523438 540.46875 725.132812 C 539.140625 723.949219 537.714844 722.847656 536.519531 721.539062 C 532.75 717.414062 532.332031 712.648438 535.289062 708.933594 C 538.195312 705.289062 543.984375 704.398438 548.429688 707.335938 C 551.6875 709.492188 554.863281 711.917969 557.605469 714.6875 C 569.96875 727.167969 578.171875 741.949219 581.597656 759.289062 C 582.488281 763.757812 581.738281 768.191406 581.734375 772.640625 Z M 470.617188 791.238281 C 465.5 790.902344 462.210938 794.953125 463.585938 799.914062 C 464.070312 801.65625 465.109375 803.097656 466.1875 804.539062 C 471.695312 811.910156 479.414062 815.691406 488.027344 817.992188 C 490.695312 818.707031 491.273438 818.226562 490.8125 815.5625 C 489.738281 809.300781 487.464844 803.496094 483.144531 798.78125 C 479.773438 795.09375 475.945312 791.835938 470.617188 791.238281 Z M 470.617188 791.238281 " fill-opacity="1" fill-rule="nonzero"/></g><path fill="#ead089" d="M 534.890625 683.601562 C 534.871094 693.113281 529.050781 701.496094 520.964844 704.3125 C 510.46875 707.972656 494.628906 700.84375 492.515625 687.582031 C 492.054688 684.882812 492.199219 682.210938 492.941406 679.574219 C 494.640625 673.640625 497.820312 668.78125 503.121094 665.402344 C 506.589844 663.191406 510.246094 662.765625 514.085938 663.976562 C 516.976562 664.890625 520.03125 664.984375 522.894531 666.132812 C 530.277344 669.117188 534.902344 675.699219 534.890625 683.601562 Z M 519.25 683.804688 C 519.359375 682.523438 518.761719 681.527344 517.496094 680.964844 C 516.375 680.460938 515.210938 680.058594 514.089844 679.550781 C 512.679688 678.910156 511.261719 678.527344 510.097656 679.886719 C 508.777344 681.4375 507.652344 683.175781 508.246094 685.351562 C 508.882812 687.667969 512.855469 689.972656 515.292969 689.582031 C 517.253906 689.269531 519.21875 686.457031 519.25 683.800781 Z M 519.25 683.804688 " fill-opacity="1" fill-rule="nonzero"/><path fill="#7ec5cc" d="M 380.492188 751.144531 C 384.542969 750.839844 387.671875 752.390625 389.835938 755.894531 C 390.261719 756.5625 390.777344 757.140625 391.394531 757.636719 C 396.550781 761.847656 398.21875 767.226562 396.585938 773.589844 C 395.050781 779.574219 391.742188 784.46875 386.65625 787.984375 C 378.449219 793.660156 368.570312 791.378906 363.453125 782.789062 C 358.875 775.082031 360.125 767.710938 364.761719 760.597656 C 367.195312 756.863281 370.191406 753.714844 374.53125 752.140625 C 376.449219 751.441406 378.40625 750.980469 380.492188 751.144531 Z M 377.714844 774.800781 C 378.964844 774.324219 379.761719 773.144531 380.488281 771.894531 C 381.011719 770.984375 381.347656 770.117188 380.476562 769.167969 C 379.457031 768.058594 378.632812 768.007812 377.859375 769.296875 C 377.125 770.519531 376.261719 771.738281 376.394531 773.292969 C 376.457031 773.988281 376.628906 774.613281 377.714844 774.800781 Z M 377.714844 774.800781 " fill-opacity="1" fill-rule="nonzero"/><path fill="#e1a8ae" d="M 93.285156 707.59375 C 94.160156 708.78125 94.335938 710.269531 94.773438 711.648438 C 97.371094 719.988281 101.171875 727.695312 107.261719 734.054688 C 111.890625 738.890625 117.148438 742.582031 124.273438 742.914062 C 130.234375 743.195312 136.875 739.035156 139.203125 732.726562 C 142.132812 724.824219 140.585938 717.335938 137.304688 710.039062 C 133.964844 702.613281 128.511719 696.882812 122.042969 692.078125 C 119.410156 690.121094 116.796875 688.101562 113.789062 686.714844 C 112.234375 685.996094 111.476562 684.957031 111.703125 683.175781 C 112.769531 674.824219 115.394531 667.191406 121.582031 661.140625 C 123.375 659.359375 125.496094 658.160156 127.949219 657.546875 C 130.933594 656.804688 131.542969 657.273438 131.660156 660.386719 C 132.03125 670.296875 133.542969 679.996094 137.269531 689.242188 C 140.9375 698.347656 145.78125 706.726562 152.996094 713.53125 C 156.449219 716.785156 160.421875 719.207031 165.21875 719.816406 C 176.027344 721.191406 182.46875 715.460938 184.929688 706.023438 C 187.144531 697.542969 186.140625 689.082031 183.105469 681.007812 C 177.480469 666.019531 168.4375 653.539062 154.78125 644.789062 C 153.023438 643.65625 152.734375 642.566406 153.472656 640.734375 C 155.363281 636.066406 158.136719 632.074219 162.027344 628.859375 C 163.871094 627.328125 165.984375 626.414062 168.363281 626.117188 C 177.894531 624.898438 186.039062 627.554688 192.050781 635.308594 C 198.65625 643.824219 202.976562 653.285156 203.378906 664.265625 C 203.457031 665.773438 203.699219 667.253906 204.113281 668.707031 C 205.222656 672.832031 208.363281 675.582031 212.152344 675.898438 C 215.667969 676.1875 220.023438 673.355469 221.511719 669.652344 C 222.378906 667.484375 222.929688 665.191406 222.699219 662.832031 C 221.117188 646.523438 215.191406 632.09375 203.976562 619.992188 C 197.921875 613.460938 190.421875 609.453125 181.742188 607.570312 C 169.027344 604.816406 157.484375 607.164062 147.625 615.863281 C 141.988281 620.839844 138.140625 627.191406 135.558594 634.21875 C 134.632812 636.738281 133.484375 637.730469 130.609375 637.878906 C 116.835938 638.609375 107.074219 645.859375 100.332031 657.53125 C 96.53125 664.113281 93.964844 671.164062 92.953125 678.730469 C 92.601562 681.289062 91.753906 682.996094 89.015625 684.238281 C 81.507812 687.636719 77.03125 693.972656 74.085938 701.488281 C 71.121094 709.0625 69.621094 717.007812 68.582031 725.007812 C 67.527344 733.140625 66.460938 741.304688 66.796875 749.542969 C 67.132812 757.914062 68.398438 766.144531 71.203125 774.082031 C 72.226562 776.984375 73.734375 779.527344 76.585938 781.058594 C 80.207031 783 84.136719 782.824219 86.980469 780.402344 C 90.097656 777.75 91.316406 774.378906 89.914062 770.460938 C 86.089844 759.78125 85.546875 748.746094 86.449219 737.617188 C 87.179688 728.628906 88.25 719.648438 91.082031 711.003906 C 91.445312 709.976562 91.871094 708.976562 92.363281 708.003906 C 92.449219 707.84375 92.8125 707.796875 93.285156 707.59375 Z M 115.996094 712.429688 C 118.296875 714.40625 120.019531 716.71875 120.292969 719.863281 C 118.535156 717.566406 116.066406 715.675781 116.03125 712.394531 C 115.960938 712.320312 115.894531 712.246094 115.828125 712.171875 Z M 166.347656 698.917969 C 159.292969 695.09375 150.03125 674.472656 152.058594 667.09375 C 161.289062 675.058594 168.382812 690.851562 166.347656 698.917969 Z M 166.347656 698.917969 " fill-opacity="1" fill-rule="nonzero"/><path fill="#ead089" d="M 244.984375 785.445312 C 244.808594 775.609375 243.207031 766.121094 238.019531 757.527344 C 236.648438 755.253906 234.890625 753.355469 232.65625 751.953125 C 224.414062 746.769531 214.65625 750.242188 211.214844 759.433594 C 208.25 767.351562 210.222656 774.839844 213.128906 782.183594 C 215.371094 787.835938 218.441406 792.996094 222.339844 797.660156 C 223.394531 798.917969 223.875 800.03125 223.277344 801.730469 C 220.382812 809.957031 216.738281 817.6875 210.136719 823.703125 C 207.46875 826.160156 204.382812 827.851562 200.875 828.769531 C 199.074219 829.25 197.324219 829.296875 195.652344 828.515625 C 191.5 826.585938 188.765625 823.203125 186.726562 819.25 C 185.992188 817.824219 186.726562 816.320312 187.289062 814.898438 C 189.359375 809.574219 190.0625 804.097656 189.199219 798.414062 C 188.753906 795.363281 187.566406 792.632812 185.640625 790.222656 C 181.894531 785.523438 174.375 784.875 169.832031 788.84375 C 167.625 790.773438 165.976562 793.03125 165.074219 795.894531 C 163.535156 800.785156 162.875 805.71875 163.566406 810.824219 C 164.175781 815.339844 162.746094 817.113281 158.199219 817.582031 C 155.398438 817.871094 152.765625 817.054688 150.234375 815.957031 C 146.285156 814.273438 142.765625 811.945312 139.675781 808.964844 C 135.839844 805.25 131.914062 801.628906 127.949219 798.050781 C 125.011719 795.402344 121.597656 793.542969 117.53125 794.109375 C 111.578125 794.941406 108.574219 800.414062 110.714844 806.097656 C 111.242188 807.503906 111.910156 808.910156 113 809.960938 C 120.464844 817.226562 127.597656 824.851562 136.484375 830.445312 C 143.769531 835.023438 151.667969 837.242188 160.320312 836.605469 C 163.386719 836.382812 166.210938 835.40625 169 834.265625 C 172.339844 832.898438 172.449219 832.777344 174.734375 835.753906 C 177.625 839.511719 181.015625 842.625 185.1875 844.847656 C 195.683594 850.4375 205.890625 848.746094 215.71875 843.203125 C 226.566406 837.082031 233.125 827.21875 238.242188 816.230469 C 238.417969 815.859375 238.496094 815.445312 238.664062 815.070312 C 239.875 812.347656 240.199219 812.105469 243.007812 813.003906 C 246.414062 814.089844 249.859375 814.996094 253.433594 815.078125 C 267.414062 815.402344 279.234375 807.359375 285.199219 793.785156 C 290.75 781.148438 290.117188 768.191406 286.554688 755.207031 C 284.566406 747.894531 281.800781 740.90625 277.1875 734.785156 C 273.675781 730.117188 269.574219 726.128906 263.96875 724.070312 C 259.109375 722.292969 254.085938 723.683594 250.984375 727.5 C 248.621094 730.402344 248.5 733.578125 250.769531 736.53125 C 252.109375 738.269531 253.625 739.957031 255.601562 740.929688 C 259.488281 742.847656 262.085938 745.921875 263.964844 749.675781 C 269.125 759.996094 271.496094 770.777344 268.988281 782.273438 C 268.214844 785.824219 266.351562 788.878906 264.050781 791.636719 C 259.234375 797.386719 250.664062 796.132812 246.296875 793.570312 C 245.21875 792.9375 244.945312 791.953125 244.972656 790.773438 C 245.015625 789.007812 244.984375 787.226562 244.984375 785.445312 Z M 244.984375 785.445312 " fill-opacity="1" fill-rule="nonzero"/><path fill="#bbc494" d="M 16.042969 647.339844 C 12.628906 647.015625 8.789062 647.96875 5.105469 649.5625 C 3.082031 650.441406 1.828125 649.941406 0.664062 648.113281 C -4.746094 639.621094 -8.167969 630.496094 -8.121094 620.324219 C -8.097656 615.121094 -6.347656 610.386719 -3.171875 606.230469 C -1.011719 603.410156 -0.503906 603.421875 1.445312 606.304688 C 4.132812 610.292969 7.085938 614.050781 10.652344 617.300781 C 13.847656 620.214844 17.421875 622.40625 21.71875 623.257812 C 34.863281 625.851562 41.871094 614.113281 39.734375 605.351562 C 37.980469 598.175781 33.535156 593.292969 27.929688 589.15625 C 23.886719 586.179688 19.394531 584.238281 14.453125 583.339844 C 11.777344 582.84375 10.589844 581.484375 9.84375 578.949219 C 7.734375 571.691406 6.488281 564.304688 5.738281 556.800781 C 5.320312 552.585938 4.683594 548.398438 4.117188 544.199219 C 3.859375 542.253906 3.046875 540.496094 1.898438 538.953125 C -0.121094 536.234375 -2.9375 534.828125 -6.289062 535.273438 C -9.957031 535.761719 -12.613281 537.871094 -13.726562 541.507812 C -14.363281 543.59375 -14.835938 545.769531 -14.527344 547.988281 C -13.226562 557.324219 -12.878906 566.792969 -10.648438 575.996094 C -10.070312 578.390625 -9.617188 580.832031 -8.796875 583.140625 C -8.105469 585.058594 -8.523438 586.195312 -10.214844 587.222656 C -16.160156 590.832031 -20.007812 596.238281 -23.0625 602.339844 C -27.339844 610.890625 -28.003906 619.957031 -26.636719 629.1875 C -24.75 641.882812 -20.015625 653.425781 -11.65625 663.316406 C -10.386719 664.816406 -10.953125 666.015625 -11.53125 667.445312 C -14.578125 675.074219 -15.429688 683.132812 -15.269531 691.207031 C -15.09375 700.132812 -13.394531 708.871094 -9.746094 717.136719 C -4.617188 728.757812 1.785156 739.519531 11.015625 748.414062 C 16.09375 753.308594 21.824219 757.261719 28.273438 760.097656 C 31.789062 761.644531 35.429688 762.824219 39.386719 761.796875 C 43.496094 760.734375 46.269531 757.558594 46.675781 753.367188 C 46.996094 750.011719 44.621094 746.195312 41.144531 744.496094 C 38.566406 743.234375 35.746094 742.625 33.1875 741.214844 C 23.683594 735.980469 17.566406 727.667969 12.226562 718.621094 C 6.15625 708.320312 3.191406 697.261719 4.070312 685.246094 C 4.257812 683.0625 4.566406 680.898438 5 678.746094 C 5.460938 676.304688 5.808594 676.089844 8.347656 676.992188 C 13.699219 678.898438 19.144531 680.082031 24.859375 679.570312 C 31.183594 679.003906 35.960938 676.070312 38.84375 670.25 C 42.0625 663.75 38.910156 656.835938 34.957031 653.527344 C 30.015625 649.390625 23.910156 647.335938 16.042969 647.339844 Z M 16.042969 647.339844 " fill-opacity="1" fill-rule="nonzero"/><path fill="#c87062" d="M -0.832031 768.25 C -7.28125 768.261719 -9.992188 772.007812 -8.402344 777.71875 C -7.347656 781.527344 -4.820312 784.191406 -1.710938 786.222656 C 4.148438 790.046875 10.382812 793.117188 16.988281 795.425781 C 22.03125 797.183594 27.152344 795.039062 29.082031 790.683594 C 31.074219 786.179688 29.429688 780.894531 24.726562 778.378906 C 18.226562 774.898438 11.574219 771.726562 4.636719 769.1875 C 2.691406 768.46875 0.683594 768.105469 -0.832031 768.25 Z M -0.832031 768.25 " fill-opacity="1" fill-rule="nonzero"/><path fill="#c87062" d="M 61.726562 825.09375 C 61.367188 821.292969 61.183594 817.464844 60.585938 813.703125 C 60.113281 810.730469 59.128906 807.789062 56.5625 805.863281 C 53.75 803.753906 50.640625 803.082031 47.308594 804.589844 C 43.761719 806.195312 41.425781 809.15625 41.480469 812.84375 C 41.589844 820.046875 42.066406 827.304688 45.039062 834.078125 C 46 836.261719 47.636719 837.929688 49.414062 839.425781 C 52.667969 842.160156 55.132812 841.886719 57.808594 838.609375 C 60.445312 835.390625 61.191406 831.527344 61.597656 827.542969 C 61.679688 826.734375 61.609375 825.90625 61.609375 825.085938 Z M 61.726562 825.09375 " fill-opacity="1" fill-rule="nonzero"/><path fill="#7ec5cc" d="M 32.925781 706.902344 C 33.386719 712.285156 35.824219 716.171875 40.097656 718.558594 C 44 720.742188 48 720.097656 51.617188 717.417969 C 56.117188 714.078125 57.308594 707.433594 54.316406 702.332031 C 53.285156 700.578125 52.210938 698.839844 51.109375 697.113281 C 47.40625 691.28125 39.304688 691.203125 35.875 697.144531 C 34.113281 700.203125 33.566406 703.785156 32.925781 706.902344 Z M 32.925781 706.902344 " fill-opacity="1" fill-rule="nonzero"/><path fill="#7ec5cc" d="M 132.605469 766.128906 C 132.800781 767.976562 133.101562 769.878906 133.835938 771.652344 C 135.550781 775.789062 139.722656 777.90625 144.199219 777.300781 C 150.628906 776.433594 157.371094 765.339844 154.589844 759.355469 C 151.992188 753.761719 145.601562 751.046875 140.300781 754.203125 C 135.878906 756.839844 132.820312 760.578125 132.605469 766.128906 Z M 132.605469 766.128906 " fill-opacity="1" fill-rule="nonzero"/><path fill="#fbfcfa" d="M 115.996094 712.429688 L 115.820312 712.171875 C 115.886719 712.246094 115.957031 712.320312 116.023438 712.394531 Z M 115.996094 712.429688 " fill-opacity="1" fill-rule="nonzero"/><g clip-path="url(#e0794e254f)"><path fill="#c87062" d="M 1345.984375 668.003906 C 1345.90625 644.445312 1356.886719 626.738281 1375.378906 613.113281 C 1388.238281 603.640625 1402.492188 598.4375 1418.683594 599.199219 C 1431.070312 599.777344 1442.59375 602.957031 1453.015625 609.832031 C 1457.96875 613.101562 1457.960938 613.050781 1462.390625 609.078125 C 1474.171875 598.5 1487.609375 590.609375 1502.171875 584.523438 C 1517.945312 577.925781 1534.113281 572.605469 1550.867188 569.085938 C 1554.261719 568.375 1557.152344 569.125 1559.679688 571.304688 C 1562.296875 573.5625 1563.28125 576.558594 1562.496094 579.894531 C 1561.570312 583.847656 1558.785156 586.230469 1554.980469 587.300781 C 1549.734375 588.777344 1544.417969 589.996094 1539.179688 591.488281 C 1522.542969 596.207031 1506.386719 602.117188 1491.414062 610.925781 C 1485.03125 614.699219 1479.121094 619.105469 1473.679688 624.144531 C 1470.59375 626.984375 1470.570312 627.109375 1472.773438 630.648438 C 1477.9375 638.941406 1481.902344 647.773438 1483.796875 657.351562 C 1487.519531 676.15625 1486.710938 694.511719 1476.800781 711.578125 C 1471.453125 720.792969 1464.398438 728.140625 1453.980469 731.730469 C 1435.695312 738.03125 1422.496094 727.519531 1420.054688 710.332031 C 1418.140625 696.816406 1420.347656 683.691406 1423.585938 670.675781 C 1427.148438 656.359375 1432.90625 643.019531 1442.027344 631.277344 C 1442.460938 630.71875 1442.765625 630.058594 1443.238281 629.550781 C 1444.914062 627.722656 1444.164062 626.417969 1442.402344 625.285156 C 1437.914062 622.382812 1432.992188 620.550781 1427.832031 619.28125 C 1400.273438 612.503906 1376.058594 631.949219 1368.050781 650.277344 C 1364.152344 659.183594 1364.300781 668.421875 1365.636719 677.753906 C 1365.933594 679.835938 1366.734375 681.84375 1367.019531 683.921875 C 1367.628906 688.320312 1365.769531 691.871094 1362.183594 693.585938 C 1358.429688 695.378906 1354.109375 694.488281 1351.070312 691.316406 C 1348.761719 688.914062 1347.835938 685.855469 1347.304688 682.738281 C 1346.480469 677.890625 1345.636719 673.011719 1345.984375 668.003906 Z M 1457.984375 642.898438 C 1456.929688 642.964844 1456.410156 643.417969 1455.992188 643.984375 C 1455.15625 645.113281 1454.320312 646.242188 1453.558594 647.417969 C 1444.160156 661.921875 1440.007812 678.148438 1438.238281 695.085938 C 1437.734375 699.964844 1437.75 704.921875 1439.105469 709.746094 C 1440.332031 714.101562 1441.992188 715.242188 1446.429688 714.359375 C 1451.15625 713.417969 1454.691406 710.503906 1457.492188 706.78125 C 1461.25 701.816406 1463.910156 696.316406 1465.472656 690.285156 C 1467.628906 681.988281 1467.546875 673.589844 1466.277344 665.21875 C 1465.066406 657.199219 1462.484375 649.605469 1457.984375 642.898438 Z M 1457.984375 642.898438 " fill-opacity="1" fill-rule="nonzero"/></g><path fill="#e1a8ae" d="M 1593.894531 755.847656 C 1593.492188 775.761719 1584.816406 791.960938 1571.058594 805.652344 C 1562.464844 814.199219 1551.632812 818.753906 1539.910156 821.375 C 1533.964844 822.707031 1527.917969 823.21875 1521.871094 823.363281 C 1519.023438 823.433594 1517.695312 824.453125 1516.828125 826.984375 C 1514.707031 833.160156 1510.882812 838.3125 1506.78125 843.308594 C 1500.183594 851.339844 1491.449219 855.273438 1481.425781 856.855469 C 1470.375 858.601562 1459.773438 856.488281 1449.320312 853.152344 C 1437.234375 849.300781 1426.574219 842.898438 1417.054688 834.597656 C 1412.554688 830.671875 1408.929688 826.0625 1407.441406 820.089844 C 1406.03125 814.433594 1408.203125 809.667969 1413.085938 807.769531 C 1417.792969 805.941406 1422.296875 807.851562 1424.792969 813.265625 C 1426.742188 817.484375 1429.695312 820.570312 1433.347656 823.300781 C 1445.378906 832.285156 1458.582031 837.90625 1473.792969 838.332031 C 1484.417969 838.628906 1491.792969 833.589844 1496.882812 824.675781 C 1498.75 821.402344 1498.433594 820.601562 1494.617188 819.4375 C 1489.652344 817.917969 1484.753906 816.1875 1480.246094 813.652344 C 1469.863281 807.808594 1461.304688 800.132812 1457.601562 788.363281 C 1453.078125 773.976562 1461.632812 758.847656 1475.90625 756.242188 C 1482.832031 754.976562 1489.847656 755.503906 1496.210938 759.074219 C 1511.300781 767.539062 1519.765625 780.441406 1521.726562 797.625 C 1521.828125 798.511719 1521.90625 799.402344 1522.03125 800.285156 C 1522.601562 804.246094 1522.609375 804.277344 1526.554688 803.878906 C 1529.386719 803.597656 1532.246094 803.378906 1535.035156 802.835938 C 1556.636719 798.585938 1572.394531 780.5 1574.597656 758.589844 C 1576.71875 737.515625 1567.644531 721.730469 1552.628906 708.34375 C 1551.296875 707.15625 1549.871094 706.054688 1548.675781 704.746094 C 1544.90625 700.621094 1544.492188 695.855469 1547.449219 692.140625 C 1550.355469 688.5 1556.144531 687.609375 1560.585938 690.546875 C 1563.847656 692.699219 1567.023438 695.125 1569.765625 697.894531 C 1582.128906 710.375 1590.332031 725.15625 1593.753906 742.496094 C 1594.644531 746.964844 1593.898438 751.402344 1593.894531 755.847656 Z M 1482.777344 774.445312 C 1477.660156 774.109375 1474.367188 778.160156 1475.742188 783.121094 C 1476.230469 784.867188 1477.269531 786.304688 1478.34375 787.746094 C 1483.855469 795.117188 1491.574219 798.898438 1500.1875 801.203125 C 1502.855469 801.914062 1503.429688 801.433594 1502.972656 798.769531 C 1501.898438 792.511719 1499.621094 786.707031 1495.300781 781.992188 C 1491.933594 778.300781 1488.101562 775.042969 1482.777344 774.445312 Z M 1482.777344 774.445312 " fill-opacity="1" fill-rule="nonzero"/><path fill="#7ec5cc" d="M 1392.652344 734.351562 C 1396.703125 734.046875 1399.828125 735.597656 1401.996094 739.105469 C 1402.417969 739.769531 1402.9375 740.351562 1403.550781 740.84375 C 1408.707031 745.058594 1410.378906 750.433594 1408.742188 756.800781 C 1407.210938 762.785156 1403.902344 767.675781 1398.816406 771.191406 C 1390.609375 776.867188 1380.730469 774.589844 1375.613281 765.996094 C 1371.03125 758.289062 1372.285156 750.917969 1376.921875 743.804688 C 1379.351562 740.074219 1382.347656 736.921875 1386.6875 735.351562 C 1388.609375 734.648438 1390.566406 734.1875 1392.652344 734.351562 Z M 1389.871094 758.007812 C 1391.125 757.53125 1391.921875 756.351562 1392.644531 755.101562 C 1393.171875 754.195312 1393.507812 753.324219 1392.636719 752.375 C 1391.617188 751.265625 1390.792969 751.214844 1390.015625 752.503906 C 1389.28125 753.726562 1388.417969 754.949219 1388.554688 756.503906 C 1388.617188 757.195312 1388.789062 757.820312 1389.871094 758.007812 Z M 1389.871094 758.007812 " fill-opacity="1" fill-rule="nonzero"/><path fill="#9aedb6" d="M 52.5625 -27.0625 C 62.71875 -21.167969 70.582031 -13.691406 78.9375 -3.097656 C 89.9375 10.855469 101.578125 19.230469 119.5 10.9375 C 147.847656 -2.191406 165.359375 -29.285156 200.265625 -26.945312 C 226.910156 -25.160156 254.027344 -0.683594 242.132812 27.800781 C 230.789062 54.972656 183.421875 48.640625 179.058594 80.074219 C 174.042969 116.210938 223.792969 117.679688 246.761719 122.863281 C 314.796875 138.199219 289.804688 236 226.375 212.578125 C 204.847656 204.632812 168.898438 177.5 161.523438 217.007812 C 159.375 228.515625 161.796875 241.804688 152.746094 250.972656 C 144.285156 259.535156 130.324219 259.898438 119.496094 256.644531 C 91.300781 248.160156 74.953125 211.105469 42.4375 213.945312 C 11.085938 216.6875 16.355469 258.941406 -12.882812 266.992188 C -42.933594 275.273438 -66.515625 250.011719 -92.136719 239.820312 C -112.058594 231.898438 -137.222656 231.019531 -153.492188 215.617188 C -171.789062 198.304688 -169.296875 168.15625 -151.730469 151.175781 C -135.570312 135.558594 -83.746094 141.207031 -85.820312 110.960938 C -87.113281 92.050781 -109.5625 87.925781 -123.1875 81.292969 C -137.941406 74.113281 -146.96875 62.753906 -148.203125 45.992188 C -150.789062 10.914062 -116.707031 -25.660156 -85.476562 -35.480469 C -47 -47.574219 -2.386719 -48.703125 36.203125 -34.609375 C 42.363281 -32.328125 47.722656 -29.875 52.5625 -27.0625 Z M 52.5625 -27.0625 " fill-opacity="1" fill-rule="nonzero"/></svg>