<svg xmlns="http://www.w3.org/2000/svg" xmlns:xlink="http://www.w3.org/1999/xlink" width="1024" zoomAndPan="magnify" viewBox="0 0 768 576" height="768" preserveAspectRatio="xMidYMid meet" version="1.0"><defs><g/><clipPath id="119ee1f20e"><path d="M 755 159.308594 L 766 159.308594 L 766 170 L 755 170 Z M 755 159.308594 " clip-rule="nonzero"/></clipPath><clipPath id="de9d6afe64"><path d="M 629.664062 240 L 632 240 L 632 243 L 629.664062 243 Z M 629.664062 240 " clip-rule="nonzero"/></clipPath><clipPath id="48b777b28c"><path d="M 93 314 L 99.445312 314 L 99.445312 321 L 93 321 Z M 93 314 " clip-rule="nonzero"/></clipPath><clipPath id="7ea6ea5b9c"><path d="M 77 329 L 81 329 L 81 331.808594 L 77 331.808594 Z M 77 329 " clip-rule="nonzero"/></clipPath><clipPath id="a4430ef0b9"><path d="M 621 0 L 768 0 L 768 165.050781 L 621 165.050781 Z M 621 0 " clip-rule="nonzero"/></clipPath><clipPath id="452ad51205"><path d="M 649 427.523438 L 689.613281 427.523438 L 689.613281 549 L 649 549 Z M 649 427.523438 " clip-rule="nonzero"/></clipPath><clipPath id="2260614337"><path d="M 360 445.433594 L 453 445.433594 L 453 531 L 360 531 Z M 360 445.433594 " clip-rule="nonzero"/></clipPath><clipPath id="c17f4f056c"><path d="M 456 485 L 496.835938 485 L 496.835938 542 L 456 542 Z M 456 485 " clip-rule="nonzero"/></clipPath><clipPath id="1cb8574d16"><path d="M 328.085938 549 L 441 549 L 441 576 L 328.085938 576 Z M 328.085938 549 " clip-rule="nonzero"/></clipPath><clipPath id="afd12f250b"><path d="M 328.085938 507 L 347 507 L 347 528 L 328.085938 528 Z M 328.085938 507 " clip-rule="nonzero"/></clipPath><clipPath id="441b8dcfd8"><path d="M 172.335938 445.433594 L 289 445.433594 L 289 534 L 172.335938 534 Z M 172.335938 445.433594 " clip-rule="nonzero"/></clipPath><clipPath id="498d7856c5"><path d="M 0 418.566406 L 20 418.566406 L 20 540 L 0 540 Z M 0 418.566406 " clip-rule="nonzero"/></clipPath><clipPath id="549ce0afe3"><path d="M 712.15625 436.476562 L 768 436.476562 L 768 525 L 712.15625 525 Z M 712.15625 436.476562 " clip-rule="nonzero"/></clipPath></defs><rect x="-76.8" width="921.6" fill="#ffffff" y="-57.6" height="691.2" fill-opacity="1"/><rect x="-76.8" width="921.6" fill="#516953" y="-57.6" height="691.2" fill-opacity="1"/><g fill="#5bd886" fill-opacity="0.4"><g transform="translate(162.582132, 214.906597)"><g><path d="M 39.421875 0.980469 L 41.1875 0.980469 C 58.054688 0.882812 67.664062 -10.101562 68.351562 -20.984375 C 69.136719 -32.359375 60.503906 -45.109375 39.714844 -47.757812 L 39.519531 -47.757812 C 31.96875 -48.640625 24.125 -52.367188 24.515625 -57.859375 C 24.808594 -61.78125 30.695312 -65.410156 41.382812 -64.917969 L 41.675781 -64.917969 C 47.5625 -64.917969 54.621094 -62.074219 58.25 -59.425781 L 66.683594 -71.195312 C 61.09375 -75.214844 51.289062 -79.332031 41.875 -79.332031 C 21.082031 -80.414062 10.984375 -69.820312 10.101562 -59.035156 C 9.609375 -52.757812 12.257812 -46.582031 17.355469 -41.875 C 22.359375 -37.265625 29.515625 -34.324219 37.949219 -33.441406 C 49.425781 -31.871094 54.230469 -26.574219 53.933594 -21.964844 C 53.640625 -17.75 49.128906 -13.53125 40.992188 -13.53125 L 40.5 -13.53125 C 40.402344 -13.53125 29.714844 -12.945312 23.144531 -18.339844 C 21.476562 -19.613281 20.101562 -21.183594 18.828125 -23.046875 L 6.863281 -14.90625 C 8.824219 -11.964844 11.277344 -9.316406 14.023438 -7.0625 C 22.945312 0.195312 34.714844 0.980469 39.421875 0.980469 Z M 39.421875 0.980469 "/></g></g></g><g fill="#5bd886" fill-opacity="0.4"><g transform="translate(237.79608, 214.906597)"><g><path d="M 53.445312 -77.863281 L 53.445312 -42.070312 L 21.574219 -42.070312 L 21.574219 -77.863281 L 6.863281 -77.863281 L 6.863281 0.6875 L 21.574219 0.6875 L 21.574219 -27.457031 L 53.445312 -27.457031 L 53.445312 0.6875 L 68.054688 0.6875 L 68.054688 -77.863281 Z M 53.445312 -77.863281 "/></g></g></g><g fill="#5bd886" fill-opacity="0.4"><g transform="translate(312.715849, 214.906597)"><g><path d="M 53.152344 0 L 68.449219 0 L 45.402344 -78.253906 L 45.402344 -78.453125 L 30.007812 -78.453125 L 6.863281 0 L 22.261719 0 L 28.046875 -19.515625 L 47.363281 -19.515625 Z M 32.359375 -34.125 L 37.753906 -52.367188 L 43.050781 -34.125 Z M 32.359375 -34.125 "/></g></g></g><g fill="#5bd886" fill-opacity="0.4"><g transform="translate(388.027862, 214.906597)"><g><path d="M 40.695312 -78.453125 L 6.863281 -78.453125 L 6.863281 0 L 21.574219 0 L 21.574219 -19.515625 L 40.695312 -19.515625 C 61.386719 -19.515625 68.15625 -32.753906 68.15625 -49.03125 C 68.15625 -65.3125 60.703125 -78.453125 40.695312 -78.453125 Z M 50.699219 -37.363281 C 49.03125 -35.203125 45.699219 -34.222656 40.695312 -34.222656 L 21.574219 -34.222656 L 21.574219 -63.839844 L 40.695312 -63.839844 C 47.953125 -63.839844 49.914062 -61.386719 50.601562 -60.605469 C 52.464844 -58.25 53.445312 -54.132812 53.445312 -49.03125 C 53.445312 -43.636719 52.464844 -39.519531 50.699219 -37.363281 Z M 50.699219 -37.363281 "/></g></g></g><g fill="#5bd886" fill-opacity="0.4"><g transform="translate(463.045686, 214.906597)"><g><path d="M 52.367188 -63.9375 L 52.367188 -78.550781 L 6.863281 -78.550781 L 6.863281 0 L 52.367188 0 L 52.367188 -14.613281 L 21.574219 -14.613281 L 21.574219 -32.066406 L 39.910156 -32.066406 L 39.910156 -46.679688 L 21.574219 -46.679688 L 21.574219 -63.9375 Z M 52.367188 -63.9375 "/></g></g></g><g fill="#5bd886" fill-opacity="0.4"><g transform="translate(522.275447, 214.906597)"><g><path d="M 39.421875 0.980469 L 41.1875 0.980469 C 58.054688 0.882812 67.664062 -10.101562 68.351562 -20.984375 C 69.136719 -32.359375 60.503906 -45.109375 39.714844 -47.757812 L 39.519531 -47.757812 C 31.96875 -48.640625 24.125 -52.367188 24.515625 -57.859375 C 24.808594 -61.78125 30.695312 -65.410156 41.382812 -64.917969 L 41.675781 -64.917969 C 47.5625 -64.917969 54.621094 -62.074219 58.25 -59.425781 L 66.683594 -71.195312 C 61.09375 -75.214844 51.289062 -79.332031 41.875 -79.332031 C 21.082031 -80.414062 10.984375 -69.820312 10.101562 -59.035156 C 9.609375 -52.757812 12.257812 -46.582031 17.355469 -41.875 C 22.359375 -37.265625 29.515625 -34.324219 37.949219 -33.441406 C 49.425781 -31.871094 54.230469 -26.574219 53.933594 -21.964844 C 53.640625 -17.75 49.128906 -13.53125 40.992188 -13.53125 L 40.5 -13.53125 C 40.402344 -13.53125 29.714844 -12.945312 23.144531 -18.339844 C 21.476562 -19.613281 20.101562 -21.183594 18.828125 -23.046875 L 6.863281 -14.90625 C 8.824219 -11.964844 11.277344 -9.316406 14.023438 -7.0625 C 22.945312 0.195312 34.714844 0.980469 39.421875 0.980469 Z M 39.421875 0.980469 "/></g></g></g><g fill="#5bd886" fill-opacity="1"><g transform="translate(168.304207, 212.710093)"><g><path d="M 39.421875 0.980469 L 41.1875 0.980469 C 58.054688 0.882812 67.664062 -10.101562 68.351562 -20.984375 C 69.136719 -32.359375 60.503906 -45.109375 39.714844 -47.757812 L 39.519531 -47.757812 C 31.96875 -48.640625 24.125 -52.367188 24.515625 -57.859375 C 24.808594 -61.78125 30.695312 -65.410156 41.382812 -64.917969 L 41.675781 -64.917969 C 47.5625 -64.917969 54.621094 -62.074219 58.25 -59.425781 L 66.683594 -71.195312 C 61.09375 -75.214844 51.289062 -79.332031 41.875 -79.332031 C 21.082031 -80.414062 10.984375 -69.820312 10.101562 -59.035156 C 9.609375 -52.757812 12.257812 -46.582031 17.355469 -41.875 C 22.359375 -37.265625 29.515625 -34.324219 37.949219 -33.441406 C 49.425781 -31.871094 54.230469 -26.574219 53.933594 -21.964844 C 53.640625 -17.75 49.128906 -13.53125 40.992188 -13.53125 L 40.5 -13.53125 C 40.402344 -13.53125 29.714844 -12.945312 23.144531 -18.339844 C 21.476562 -19.613281 20.101562 -21.183594 18.828125 -23.046875 L 6.863281 -14.90625 C 8.824219 -11.964844 11.277344 -9.316406 14.023438 -7.0625 C 22.945312 0.195312 34.714844 0.980469 39.421875 0.980469 Z M 39.421875 0.980469 "/></g></g></g><g fill="#5bd886" fill-opacity="1"><g transform="translate(243.518155, 212.710093)"><g><path d="M 53.445312 -77.863281 L 53.445312 -42.070312 L 21.574219 -42.070312 L 21.574219 -77.863281 L 6.863281 -77.863281 L 6.863281 0.6875 L 21.574219 0.6875 L 21.574219 -27.457031 L 53.445312 -27.457031 L 53.445312 0.6875 L 68.054688 0.6875 L 68.054688 -77.863281 Z M 53.445312 -77.863281 "/></g></g></g><g fill="#5bd886" fill-opacity="1"><g transform="translate(318.437924, 212.710093)"><g><path d="M 53.152344 0 L 68.449219 0 L 45.402344 -78.253906 L 45.402344 -78.453125 L 30.007812 -78.453125 L 6.863281 0 L 22.261719 0 L 28.046875 -19.515625 L 47.363281 -19.515625 Z M 32.359375 -34.125 L 37.753906 -52.367188 L 43.050781 -34.125 Z M 32.359375 -34.125 "/></g></g></g><g fill="#5bd886" fill-opacity="1"><g transform="translate(393.749936, 212.710093)"><g><path d="M 40.695312 -78.453125 L 6.863281 -78.453125 L 6.863281 0 L 21.574219 0 L 21.574219 -19.515625 L 40.695312 -19.515625 C 61.386719 -19.515625 68.15625 -32.753906 68.15625 -49.03125 C 68.15625 -65.3125 60.703125 -78.453125 40.695312 -78.453125 Z M 50.699219 -37.363281 C 49.03125 -35.203125 45.699219 -34.222656 40.695312 -34.222656 L 21.574219 -34.222656 L 21.574219 -63.839844 L 40.695312 -63.839844 C 47.953125 -63.839844 49.914062 -61.386719 50.601562 -60.605469 C 52.464844 -58.25 53.445312 -54.132812 53.445312 -49.03125 C 53.445312 -43.636719 52.464844 -39.519531 50.699219 -37.363281 Z M 50.699219 -37.363281 "/></g></g></g><g fill="#5bd886" fill-opacity="1"><g transform="translate(468.767761, 212.710093)"><g><path d="M 52.367188 -63.9375 L 52.367188 -78.550781 L 6.863281 -78.550781 L 6.863281 0 L 52.367188 0 L 52.367188 -14.613281 L 21.574219 -14.613281 L 21.574219 -32.066406 L 39.910156 -32.066406 L 39.910156 -46.679688 L 21.574219 -46.679688 L 21.574219 -63.9375 Z M 52.367188 -63.9375 "/></g></g></g><g fill="#5bd886" fill-opacity="1"><g transform="translate(527.997522, 212.710093)"><g><path d="M 39.421875 0.980469 L 41.1875 0.980469 C 58.054688 0.882812 67.664062 -10.101562 68.351562 -20.984375 C 69.136719 -32.359375 60.503906 -45.109375 39.714844 -47.757812 L 39.519531 -47.757812 C 31.96875 -48.640625 24.125 -52.367188 24.515625 -57.859375 C 24.808594 -61.78125 30.695312 -65.410156 41.382812 -64.917969 L 41.675781 -64.917969 C 47.5625 -64.917969 54.621094 -62.074219 58.25 -59.425781 L 66.683594 -71.195312 C 61.09375 -75.214844 51.289062 -79.332031 41.875 -79.332031 C 21.082031 -80.414062 10.984375 -69.820312 10.101562 -59.035156 C 9.609375 -52.757812 12.257812 -46.582031 17.355469 -41.875 C 22.359375 -37.265625 29.515625 -34.324219 37.949219 -33.441406 C 49.425781 -31.871094 54.230469 -26.574219 53.933594 -21.964844 C 53.640625 -17.75 49.128906 -13.53125 40.992188 -13.53125 L 40.5 -13.53125 C 40.402344 -13.53125 29.714844 -12.945312 23.144531 -18.339844 C 21.476562 -19.613281 20.101562 -21.183594 18.828125 -23.046875 L 6.863281 -14.90625 C 8.824219 -11.964844 11.277344 -9.316406 14.023438 -7.0625 C 22.945312 0.195312 34.714844 0.980469 39.421875 0.980469 Z M 39.421875 0.980469 "/></g></g></g><g clip-path="url(#119ee1f20e)"><path fill="#ffffff" d="M 760.550781 159.316406 L 761.105469 163.277344 C 761.132812 163.457031 761.21875 163.625 761.347656 163.757812 C 761.480469 163.886719 761.648438 163.96875 761.832031 164 L 765.789062 164.554688 L 761.824219 165.105469 C 761.640625 165.132812 761.472656 165.21875 761.34375 165.347656 C 761.214844 165.480469 761.128906 165.648438 761.101562 165.828125 L 760.546875 169.78125 L 759.992188 165.824219 C 759.949219 165.65625 759.855469 165.507812 759.722656 165.398438 C 759.589844 165.269531 759.421875 165.183594 759.238281 165.15625 L 755.28125 164.601562 L 759.246094 164.050781 C 759.4375 164.003906 759.605469 163.894531 759.722656 163.738281 C 759.851562 163.609375 759.9375 163.441406 759.964844 163.257812 Z M 760.550781 159.316406 " fill-opacity="1" fill-rule="nonzero"/></g><path fill="#ffffff" d="M 693.585938 317.980469 L 694.039062 321.101562 C 694.0625 321.246094 694.128906 321.378906 694.234375 321.484375 C 694.332031 321.589844 694.464844 321.65625 694.609375 321.671875 L 697.738281 322.125 L 694.609375 322.578125 C 694.464844 322.601562 694.332031 322.667969 694.226562 322.773438 C 694.121094 322.871094 694.054688 323.003906 694.039062 323.148438 L 693.585938 326.269531 L 693.132812 323.148438 C 693.109375 323.003906 693.042969 322.871094 692.9375 322.765625 C 692.839844 322.660156 692.707031 322.59375 692.5625 322.578125 L 689.433594 322.125 L 692.5625 321.671875 C 692.707031 321.648438 692.839844 321.582031 692.945312 321.476562 C 693.050781 321.378906 693.117188 321.246094 693.132812 321.101562 Z M 693.585938 317.980469 " fill-opacity="1" fill-rule="nonzero"/><path fill="#ffffff" d="M 714.339844 180.324219 C 714.339844 180.542969 714.296875 180.757812 714.214844 180.960938 C 714.128906 181.164062 714.007812 181.34375 713.851562 181.496094 C 713.699219 181.652344 713.519531 181.773438 713.316406 181.855469 C 713.113281 181.941406 712.898438 181.984375 712.679688 181.984375 C 712.460938 181.984375 712.246094 181.941406 712.042969 181.855469 C 711.839844 181.773438 711.660156 181.652344 711.503906 181.496094 C 711.351562 181.34375 711.230469 181.164062 711.144531 180.960938 C 711.0625 180.757812 711.019531 180.542969 711.019531 180.324219 C 711.019531 180.105469 711.0625 179.894531 711.144531 179.691406 C 711.230469 179.488281 711.351562 179.308594 711.503906 179.152344 C 711.660156 178.996094 711.839844 178.875 712.042969 178.792969 C 712.246094 178.707031 712.460938 178.667969 712.679688 178.667969 C 712.898438 178.667969 713.113281 178.707031 713.316406 178.792969 C 713.519531 178.875 713.699219 178.996094 713.851562 179.152344 C 714.007812 179.308594 714.128906 179.488281 714.214844 179.691406 C 714.296875 179.894531 714.339844 180.105469 714.339844 180.324219 Z M 714.339844 180.324219 " fill-opacity="1" fill-rule="nonzero"/><path fill="#ffffff" d="M 682.515625 265.460938 L 683.152344 269.832031 C 683.175781 270.042969 683.269531 270.238281 683.417969 270.386719 C 683.570312 270.535156 683.761719 270.628906 683.972656 270.65625 L 688.328125 271.265625 L 683.949219 271.902344 C 683.742188 271.921875 683.546875 272.015625 683.398438 272.164062 C 683.25 272.316406 683.152344 272.511719 683.125 272.71875 L 682.515625 277.070312 L 681.878906 272.695312 C 681.859375 272.488281 681.765625 272.292969 681.613281 272.144531 C 681.464844 271.996094 681.269531 271.898438 681.0625 271.871094 L 676.707031 271.265625 L 681.082031 270.628906 C 681.292969 270.605469 681.488281 270.511719 681.636719 270.363281 C 681.785156 270.214844 681.882812 270.019531 681.910156 269.8125 Z M 682.515625 265.460938 " fill-opacity="1" fill-rule="nonzero"/><path fill="#ffffff" d="M 644.328125 308.582031 L 644.660156 310.875 C 644.679688 310.976562 644.730469 311.074219 644.800781 311.152344 C 644.878906 311.222656 644.976562 311.273438 645.082031 311.289062 L 647.375 311.621094 L 645.078125 311.953125 C 644.972656 311.972656 644.878906 312.019531 644.800781 312.089844 C 644.726562 312.167969 644.679688 312.265625 644.660156 312.375 L 644.328125 314.660156 L 643.996094 312.367188 C 643.980469 312.265625 643.929688 312.167969 643.859375 312.089844 C 643.78125 312.019531 643.683594 311.96875 643.578125 311.953125 L 641.285156 311.621094 L 643.582031 311.289062 C 643.6875 311.269531 643.78125 311.222656 643.859375 311.152344 C 643.933594 311.074219 643.980469 310.976562 643.996094 310.871094 Z M 644.328125 308.582031 " fill-opacity="1" fill-rule="nonzero"/><path fill="#ffffff" d="M 676.429688 308.582031 L 676.761719 310.871094 C 676.789062 311.089844 676.960938 311.261719 677.183594 311.289062 L 679.472656 311.621094 L 677.183594 311.953125 C 676.960938 311.980469 676.789062 312.152344 676.761719 312.375 L 676.429688 314.660156 L 676.097656 312.367188 C 676.078125 312.265625 676.03125 312.167969 675.957031 312.089844 C 675.882812 312.015625 675.78125 311.96875 675.675781 311.953125 L 673.386719 311.621094 L 675.675781 311.289062 C 675.898438 311.261719 676.070312 311.089844 676.097656 310.871094 Z M 676.429688 308.582031 " fill-opacity="1" fill-rule="nonzero"/><path fill="#ffffff" d="M 760 203.542969 L 760.453125 206.667969 C 760.472656 206.8125 760.542969 206.945312 760.644531 207.046875 C 760.746094 207.152344 760.878906 207.21875 761.023438 207.238281 L 764.148438 207.691406 L 761.023438 208.144531 C 760.878906 208.164062 760.742188 208.234375 760.640625 208.335938 C 760.535156 208.4375 760.46875 208.570312 760.453125 208.710938 L 760 211.835938 L 759.542969 208.710938 C 759.523438 208.566406 759.453125 208.433594 759.351562 208.332031 C 759.25 208.226562 759.117188 208.160156 758.972656 208.144531 L 755.847656 207.691406 L 758.972656 207.238281 C 759.117188 207.214844 759.253906 207.144531 759.355469 207.042969 C 759.460938 206.945312 759.527344 206.8125 759.542969 206.667969 Z M 760 203.542969 " fill-opacity="1" fill-rule="nonzero"/><path fill="#ffffff" d="M 634.644531 283.152344 C 634.644531 283.371094 634.601562 283.582031 634.519531 283.785156 C 634.433594 283.988281 634.3125 284.167969 634.160156 284.324219 C 634.003906 284.480469 633.824219 284.597656 633.621094 284.683594 C 633.417969 284.765625 633.203125 284.808594 632.984375 284.808594 C 632.765625 284.808594 632.550781 284.765625 632.347656 284.683594 C 632.144531 284.597656 631.964844 284.480469 631.808594 284.324219 C 631.65625 284.167969 631.535156 283.988281 631.449219 283.785156 C 631.367188 283.582031 631.324219 283.371094 631.324219 283.152344 C 631.324219 282.929688 631.367188 282.71875 631.449219 282.515625 C 631.535156 282.3125 631.65625 282.132812 631.808594 281.976562 C 631.964844 281.824219 632.144531 281.703125 632.347656 281.617188 C 632.550781 281.535156 632.765625 281.492188 632.984375 281.492188 C 633.203125 281.492188 633.417969 281.535156 633.621094 281.617188 C 633.824219 281.703125 634.003906 281.824219 634.160156 281.976562 C 634.3125 282.132812 634.433594 282.3125 634.519531 282.515625 C 634.601562 282.71875 634.644531 282.929688 634.644531 283.152344 Z M 634.644531 283.152344 " fill-opacity="1" fill-rule="nonzero"/><path fill="#ffffff" d="M 763.042969 263.289062 C 763.042969 263.507812 763 263.71875 762.914062 263.921875 C 762.832031 264.125 762.710938 264.304688 762.554688 264.460938 C 762.398438 264.617188 762.222656 264.734375 762.015625 264.820312 C 761.8125 264.902344 761.601562 264.945312 761.382812 264.945312 C 761.160156 264.945312 760.949219 264.902344 760.746094 264.820312 C 760.542969 264.734375 760.363281 264.617188 760.207031 264.460938 C 760.050781 264.304688 759.933594 264.125 759.847656 263.921875 C 759.765625 263.71875 759.722656 263.507812 759.722656 263.289062 C 759.722656 263.066406 759.765625 262.855469 759.847656 262.652344 C 759.933594 262.449219 760.050781 262.269531 760.207031 262.113281 C 760.363281 261.960938 760.542969 261.839844 760.746094 261.753906 C 760.949219 261.671875 761.160156 261.628906 761.382812 261.628906 C 761.601562 261.628906 761.8125 261.671875 762.015625 261.753906 C 762.222656 261.839844 762.398438 261.960938 762.554688 262.113281 C 762.710938 262.269531 762.832031 262.449219 762.914062 262.652344 C 763 262.855469 763.042969 263.066406 763.042969 263.289062 Z M 763.042969 263.289062 " fill-opacity="1" fill-rule="nonzero"/><g clip-path="url(#de9d6afe64)"><path fill="#ffffff" d="M 631.878906 241.6875 C 631.878906 241.835938 631.847656 241.976562 631.792969 242.113281 C 631.738281 242.246094 631.65625 242.367188 631.554688 242.46875 C 631.449219 242.574219 631.328125 242.652344 631.195312 242.710938 C 631.058594 242.765625 630.917969 242.792969 630.769531 242.792969 C 630.625 242.792969 630.484375 242.765625 630.347656 242.710938 C 630.210938 242.652344 630.089844 242.574219 629.988281 242.46875 C 629.882812 242.367188 629.804688 242.246094 629.746094 242.113281 C 629.691406 241.976562 629.664062 241.835938 629.664062 241.6875 C 629.664062 241.542969 629.691406 241.402344 629.746094 241.265625 C 629.804688 241.128906 629.882812 241.011719 629.988281 240.90625 C 630.089844 240.804688 630.210938 240.722656 630.347656 240.667969 C 630.484375 240.609375 630.625 240.582031 630.769531 240.582031 C 630.917969 240.582031 631.058594 240.609375 631.195312 240.667969 C 631.328125 240.722656 631.449219 240.804688 631.554688 240.90625 C 631.65625 241.011719 631.738281 241.128906 631.792969 241.265625 C 631.847656 241.402344 631.878906 241.542969 631.878906 241.6875 Z M 631.878906 241.6875 " fill-opacity="1" fill-rule="nonzero"/></g><path fill="#ffffff" d="M 75.921875 215.707031 L 76.683594 220.914062 C 76.714844 221.152344 76.824219 221.375 76.996094 221.542969 C 77.167969 221.714844 77.390625 221.824219 77.628906 221.863281 L 82.839844 222.617188 L 77.628906 223.375 C 77.132812 223.4375 76.746094 223.824219 76.675781 224.320312 L 75.921875 229.527344 L 75.164062 224.320312 C 75.132812 224.078125 75.019531 223.859375 74.851562 223.6875 C 74.679688 223.519531 74.457031 223.40625 74.21875 223.367188 L 69.003906 222.617188 L 74.21875 221.859375 C 74.714844 221.792969 75.101562 221.40625 75.171875 220.914062 Z M 75.921875 215.707031 " fill-opacity="1" fill-rule="nonzero"/><path fill="#ffffff" d="M 32.203125 246.664062 L 32.535156 248.957031 C 32.550781 249.0625 32.601562 249.15625 32.671875 249.234375 C 32.75 249.308594 32.847656 249.355469 32.953125 249.371094 L 35.246094 249.703125 L 32.953125 250.035156 C 32.734375 250.0625 32.558594 250.238281 32.535156 250.457031 L 32.203125 252.746094 L 31.871094 250.449219 C 31.851562 250.347656 31.804688 250.25 31.730469 250.175781 C 31.652344 250.101562 31.554688 250.054688 31.449219 250.035156 L 29.15625 249.703125 L 31.449219 249.371094 C 31.667969 249.347656 31.84375 249.171875 31.871094 248.953125 Z M 32.203125 246.664062 " fill-opacity="1" fill-rule="nonzero"/><g clip-path="url(#48b777b28c)"><path fill="#ffffff" d="M 96.402344 314.109375 L 96.734375 316.402344 C 96.75 316.507812 96.800781 316.605469 96.875 316.679688 C 96.953125 316.75 97.050781 316.800781 97.152344 316.816406 L 99.445312 317.148438 L 97.152344 317.480469 C 96.933594 317.507812 96.757812 317.679688 96.734375 317.902344 L 96.402344 320.191406 L 96.070312 317.894531 C 96.050781 317.792969 96 317.695312 95.929688 317.621094 C 95.851562 317.546875 95.753906 317.5 95.648438 317.480469 L 93.355469 317.148438 L 95.652344 316.816406 C 95.757812 316.800781 95.851562 316.75 95.929688 316.679688 C 96.003906 316.601562 96.050781 316.503906 96.070312 316.398438 Z M 96.402344 314.109375 " fill-opacity="1" fill-rule="nonzero"/></g><path fill="#ffffff" d="M 59.875 319.636719 L 60.328125 322.761719 C 60.351562 322.90625 60.417969 323.039062 60.519531 323.140625 C 60.621094 323.246094 60.753906 323.3125 60.898438 323.328125 L 64.023438 323.785156 L 60.898438 324.238281 C 60.753906 324.257812 60.621094 324.328125 60.515625 324.429688 C 60.410156 324.53125 60.34375 324.664062 60.328125 324.804688 L 59.875 327.929688 L 59.421875 324.804688 C 59.398438 324.660156 59.328125 324.527344 59.226562 324.425781 C 59.125 324.320312 58.992188 324.253906 58.851562 324.238281 L 55.722656 323.785156 L 58.851562 323.328125 C 58.996094 323.308594 59.128906 323.238281 59.230469 323.136719 C 59.335938 323.035156 59.402344 322.90625 59.421875 322.761719 Z M 59.875 319.636719 " fill-opacity="1" fill-rule="nonzero"/><path fill="#ffffff" d="M 2.871094 256.0625 L 3.324219 259.1875 C 3.34375 259.328125 3.414062 259.464844 3.515625 259.566406 C 3.617188 259.671875 3.75 259.738281 3.894531 259.753906 L 7.019531 260.207031 L 3.894531 260.660156 C 3.75 260.683594 3.613281 260.75 3.511719 260.855469 C 3.40625 260.953125 3.339844 261.085938 3.324219 261.230469 L 2.871094 264.355469 L 2.414062 261.230469 C 2.394531 261.085938 2.324219 260.953125 2.222656 260.851562 C 2.121094 260.746094 1.988281 260.679688 1.84375 260.660156 L -1.28125 260.207031 L 1.84375 259.753906 C 1.988281 259.734375 2.125 259.664062 2.226562 259.5625 C 2.332031 259.460938 2.398438 259.328125 2.414062 259.1875 Z M 2.871094 256.0625 " fill-opacity="1" fill-rule="nonzero"/><path fill="#ffffff" d="M 17.8125 221.785156 L 18.640625 227.410156 C 18.679688 227.667969 18.800781 227.910156 18.984375 228.09375 C 19.171875 228.277344 19.410156 228.398438 19.667969 228.4375 L 25.285156 229.25 L 19.65625 230.078125 C 19.125 230.15625 18.707031 230.570312 18.625 231.101562 L 17.8125 236.714844 L 16.980469 231.089844 C 16.945312 230.832031 16.824219 230.589844 16.640625 230.40625 C 16.453125 230.222656 16.214844 230.105469 15.957031 230.0625 L 10.339844 229.25 L 15.96875 228.421875 C 16.5 228.34375 16.917969 227.929688 17 227.398438 Z M 17.8125 221.785156 " fill-opacity="1" fill-rule="nonzero"/><path fill="#ffffff" d="M 17.535156 163.738281 C 17.535156 163.960938 17.492188 164.171875 17.410156 164.375 C 17.324219 164.578125 17.203125 164.757812 17.050781 164.914062 C 16.894531 165.070312 16.714844 165.1875 16.511719 165.273438 C 16.308594 165.355469 16.09375 165.398438 15.875 165.398438 C 15.65625 165.398438 15.445312 165.355469 15.238281 165.273438 C 15.035156 165.1875 14.855469 165.070312 14.703125 164.914062 C 14.546875 164.757812 14.425781 164.578125 14.339844 164.375 C 14.257812 164.171875 14.214844 163.960938 14.214844 163.738281 C 14.214844 163.519531 14.257812 163.308594 14.339844 163.105469 C 14.425781 162.902344 14.546875 162.722656 14.703125 162.566406 C 14.855469 162.410156 15.035156 162.292969 15.238281 162.207031 C 15.445312 162.125 15.65625 162.082031 15.875 162.082031 C 16.09375 162.082031 16.308594 162.125 16.511719 162.207031 C 16.714844 162.292969 16.894531 162.410156 17.050781 162.566406 C 17.203125 162.722656 17.324219 162.902344 17.410156 163.105469 C 17.492188 163.308594 17.535156 163.519531 17.535156 163.738281 Z M 17.535156 163.738281 " fill-opacity="1" fill-rule="nonzero"/><g clip-path="url(#7ea6ea5b9c)"><path fill="#ffffff" d="M 80.074219 330.695312 C 80.074219 330.839844 80.046875 330.980469 79.988281 331.117188 C 79.933594 331.253906 79.855469 331.371094 79.75 331.476562 C 79.644531 331.578125 79.527344 331.660156 79.390625 331.714844 C 79.253906 331.769531 79.113281 331.800781 78.96875 331.800781 C 78.820312 331.800781 78.679688 331.769531 78.542969 331.714844 C 78.40625 331.660156 78.289062 331.578125 78.183594 331.476562 C 78.082031 331.371094 78 331.253906 77.945312 331.117188 C 77.886719 330.980469 77.859375 330.839844 77.859375 330.695312 C 77.859375 330.546875 77.886719 330.40625 77.945312 330.269531 C 78 330.136719 78.082031 330.015625 78.183594 329.910156 C 78.289062 329.808594 78.40625 329.726562 78.542969 329.671875 C 78.679688 329.617188 78.820312 329.589844 78.96875 329.589844 C 79.113281 329.589844 79.253906 329.617188 79.390625 329.671875 C 79.527344 329.726562 79.644531 329.808594 79.75 329.910156 C 79.855469 330.015625 79.933594 330.136719 79.988281 330.269531 C 80.046875 330.40625 80.074219 330.546875 80.074219 330.695312 Z M 80.074219 330.695312 " fill-opacity="1" fill-rule="nonzero"/></g><path fill="#ffffff" d="M 50.1875 178.113281 C 50.1875 178.40625 50.132812 178.6875 50.019531 178.960938 C 49.90625 179.230469 49.746094 179.46875 49.539062 179.675781 C 49.332031 179.882812 49.09375 180.042969 48.820312 180.15625 C 48.550781 180.269531 48.269531 180.324219 47.976562 180.324219 C 47.679688 180.324219 47.398438 180.269531 47.128906 180.15625 C 46.855469 180.042969 46.617188 179.882812 46.410156 179.675781 C 46.203125 179.46875 46.042969 179.230469 45.929688 178.960938 C 45.816406 178.6875 45.761719 178.40625 45.761719 178.113281 C 45.761719 177.820312 45.816406 177.539062 45.929688 177.265625 C 46.042969 176.996094 46.203125 176.757812 46.410156 176.550781 C 46.617188 176.34375 46.855469 176.183594 47.128906 176.070312 C 47.398438 175.957031 47.679688 175.902344 47.976562 175.902344 C 48.269531 175.902344 48.550781 175.957031 48.820312 176.070312 C 49.09375 176.183594 49.332031 176.34375 49.539062 176.550781 C 49.746094 176.757812 49.90625 176.996094 50.019531 177.265625 C 50.132812 177.539062 50.1875 177.820312 50.1875 178.113281 Z M 50.1875 178.113281 " fill-opacity="1" fill-rule="nonzero"/><g clip-path="url(#a4430ef0b9)"><path fill="#9aedb6" d="M 1041.441406 -52.371094 C 1046.421875 -46.328125 1049.734375 -40.648438 1050.640625 -36.351562 C 1051.519531 -32.183594 1050.167969 -29.5 1047.550781 -27.910156 C 1045.535156 -26.6875 1042.707031 -26.160156 1040.050781 -25.457031 C 1037.316406 -24.734375 1034.667969 -23.882812 1032.710938 -22.464844 C 1030.921875 -21.167969 1029.597656 -19.367188 1030.261719 -16.421875 C 1030.925781 -13.46875 1033.835938 -9.605469 1037.996094 -5.457031 C 1044.386719 0.886719 1051.941406 6.664062 1059.101562 11.660156 C 1067.257812 17.34375 1074.671875 21.765625 1082 26.714844 C 1089.484375 31.789062 1097.144531 37.679688 1104.71875 46.269531 C 1111.445312 53.886719 1117.660156 63.113281 1122.472656 72.457031 C 1127.269531 81.738281 1130.539062 90.835938 1132.273438 98.675781 C 1133.628906 104.789062 1134.09375 110.101562 1133.449219 113.636719 C 1132.871094 116.804688 1131.433594 118.4375 1129.488281 118.910156 C 1127.484375 119.398438 1124.984375 118.738281 1122.300781 117.640625 C 1119.457031 116.476562 1116.386719 114.8125 1113.261719 113.132812 C 1110.132812 111.449219 1106.9375 109.726562 1103.816406 108.320312 C 1100.46875 106.8125 1097.253906 105.742188 1094.382812 105.464844 C 1090.621094 105.101562 1087.324219 105.683594 1083.890625 106.050781 C 1080.503906 106.421875 1076.984375 106.628906 1072.804688 105.71875 C 1068.664062 104.828125 1063.863281 102.746094 1058.386719 99.261719 C 1054.125 96.546875 1049.691406 93.230469 1045.203125 89.039062 C 1041.433594 85.515625 1037.871094 81.699219 1034.425781 77.957031 C 1030.90625 74.132812 1027.476562 70.34375 1023.820312 66.71875 C 1020.347656 63.277344 1016.617188 59.945312 1012.5625 57.183594 C 1008.410156 54.359375 1004.089844 52.359375 1000.109375 51.4375 C 995.222656 50.296875 990.898438 50.535156 987.753906 51.722656 C 984.683594 52.882812 982.691406 54.953125 981.246094 57.296875 C 979.757812 59.726562 978.800781 62.449219 977.765625 65.109375 C 976.734375 67.773438 975.636719 70.410156 973.957031 72.726562 C 972.28125 75.050781 970 77.070312 966.824219 78.359375 C 963.523438 79.699219 959.390625 80.363281 954.964844 80.320312 C 950.703125 80.269531 946.078125 79.523438 941.886719 77.707031 C 936.519531 75.394531 932.914062 71.574219 928.710938 68.304688 C 926.59375 66.660156 924.222656 65.082031 921.414062 64.058594 C 919.035156 63.1875 916.449219 62.792969 913.988281 62.945312 C 909.199219 63.230469 905.335938 65.390625 902.699219 67.976562 C 899.445312 71.160156 898.078125 75.136719 896.792969 79.050781 C 895.40625 83.328125 894.054688 87.722656 891.152344 91.582031 C 888.679688 94.882812 885.355469 97.730469 881.695312 99.949219 C 878.035156 102.160156 874.015625 103.75 869.890625 104.375 C 865.519531 105.035156 861.074219 104.605469 856.882812 103.207031 C 852.867188 101.863281 849.042969 99.605469 846.011719 96.476562 C 846.164062 96.636719 841.824219 99.402344 841.585938 99.597656 C 838.484375 101.636719 835.453125 103.714844 832.511719 105.878906 C 830.152344 107.609375 827.875 109.441406 825.558594 111.164062 C 824.085938 112.261719 822.410156 113.089844 820.789062 113.910156 C 818.105469 115.265625 815.320312 116.414062 812.421875 117.261719 C 806.980469 118.84375 800.945312 119.453125 794.996094 118.199219 C 790.074219 117.152344 785.484375 114.621094 781.867188 110.871094 C 778.4375 107.332031 776.265625 102.960938 774.132812 98.578125 C 772.144531 94.523438 770.113281 90.234375 766.464844 87.351562 C 763 84.605469 757.925781 83.855469 752.722656 85.605469 C 748.785156 86.929688 745.558594 89.773438 743.457031 93.269531 C 741.105469 97.167969 740.03125 101.5 739.390625 105.671875 C 738.667969 110.339844 738.515625 115.003906 738.382812 119.671875 C 738.261719 123.90625 738.242188 128.222656 737.542969 132.5 C 736.714844 137.523438 734.304688 142.226562 731.445312 146.472656 C 727.910156 151.707031 723.371094 156.3125 718.058594 159.742188 C 712.777344 163.140625 706.707031 165.320312 700.589844 165.332031 C 693.886719 165.351562 687.640625 162.59375 682.390625 158.496094 C 676.914062 154.253906 672.414062 148.6875 667.921875 143.296875 C 665.710938 140.652344 663.492188 138.035156 661.085938 135.679688 C 658.78125 133.417969 656.265625 131.46875 653.632812 129.699219 C 648.214844 126.042969 642.355469 123.128906 636.933594 119.507812 C 631.683594 115.980469 626.734375 111.71875 623.953125 105.242188 C 621.394531 99.304688 620.667969 91.105469 623.535156 82.394531 C 625.6875 75.824219 629.921875 69.359375 634.859375 63.605469 C 639.890625 57.738281 645.558594 52.542969 651.132812 47.417969 C 656.421875 42.554688 661.816406 37.640625 666.058594 32.378906 C 670.832031 26.460938 673.355469 20.722656 674.21875 15.480469 C 675.179688 9.660156 673.796875 4.925781 670.820312 1.175781 C 667.792969 -2.652344 663.351562 -5.488281 658.804688 -8.179688 C 654.214844 -10.910156 649.386719 -13.484375 645.699219 -16.933594 C 641.957031 -20.441406 639.691406 -24.988281 640.484375 -31.019531 C 641.351562 -37.722656 645.996094 -46.40625 656.277344 -53.71875 C 667.257812 -61.511719 680.125 -64.320312 691.894531 -66.5625 C 702.117188 -68.523438 713.769531 -70.617188 723.824219 -75.011719 C 731.859375 -78.527344 736.351562 -82.855469 738.652344 -86.921875 C 741.746094 -92.375 741.699219 -97.464844 741.074219 -102.308594 C 740.449219 -107.296875 739.03125 -112.28125 741.835938 -117.726562 C 744.851562 -123.574219 753.546875 -129.460938 765.605469 -133.636719 C 777.167969 -137.671875 791.503906 -139.917969 805.671875 -139.957031 C 819.847656 -140.03125 833.878906 -137.894531 844.914062 -134.160156 C 855.753906 -130.503906 863.519531 -125.574219 867.644531 -120.695312 C 871.652344 -115.945312 872.3125 -111.210938 869.304688 -107.191406 C 870.371094 -108.625 873.972656 -109.476562 877.136719 -110.074219 C 881.378906 -110.882812 886.109375 -111.347656 890.933594 -111.625 C 901.050781 -112.207031 911.664062 -112.148438 922.789062 -110.929688 C 936.664062 -109.417969 951.328125 -106.140625 965.824219 -101.109375 C 979.90625 -96.242188 993.929688 -89.671875 1006.644531 -81.738281 C 1019.195312 -73.9375 1030.382812 -64.765625 1038.507812 -55.734375 C 1039.550781 -54.613281 1040.519531 -53.488281 1041.441406 -52.371094 Z M 1041.441406 -52.371094 " fill-opacity="1" fill-rule="nonzero"/></g><path fill="#e1a8ae" d="M 624.832031 519.527344 C 624.363281 520.164062 624.269531 520.953125 624.039062 521.6875 C 622.648438 526.128906 620.621094 530.230469 617.367188 533.617188 C 614.894531 536.195312 612.085938 538.15625 608.28125 538.335938 C 605.097656 538.484375 601.550781 536.269531 600.304688 532.910156 C 598.742188 528.703125 599.566406 524.714844 601.320312 520.832031 C 603.105469 516.878906 606.015625 513.828125 609.472656 511.269531 C 610.878906 510.226562 612.273438 509.152344 613.882812 508.414062 C 614.710938 508.03125 615.117188 507.480469 614.996094 506.527344 C 614.425781 502.082031 613.023438 498.019531 609.71875 494.796875 C 608.761719 493.847656 607.628906 493.210938 606.320312 492.882812 C 604.722656 492.488281 604.398438 492.738281 604.335938 494.394531 C 604.136719 499.671875 603.328125 504.835938 601.339844 509.757812 C 599.378906 514.605469 596.792969 519.066406 592.941406 522.691406 C 591.097656 524.421875 588.972656 525.710938 586.414062 526.035156 C 580.640625 526.769531 577.199219 523.71875 575.882812 518.695312 C 574.703125 514.179688 575.234375 509.675781 576.855469 505.375 C 579.863281 497.394531 584.691406 490.75 591.984375 486.09375 C 592.925781 485.488281 593.082031 484.910156 592.683594 483.933594 C 591.675781 481.449219 590.195312 479.324219 588.117188 477.609375 C 587.128906 476.796875 586.003906 476.308594 584.730469 476.152344 C 579.640625 475.5 575.292969 476.917969 572.078125 481.042969 C 568.550781 485.578125 566.246094 490.613281 566.03125 496.460938 C 565.988281 497.265625 565.859375 498.050781 565.636719 498.824219 C 565.042969 501.023438 563.367188 502.484375 561.34375 502.652344 C 559.464844 502.808594 557.140625 501.300781 556.34375 499.328125 C 555.878906 498.175781 555.585938 496.953125 555.710938 495.699219 C 556.554688 487.015625 559.722656 479.332031 565.710938 472.890625 C 568.945312 469.414062 572.949219 467.28125 577.585938 466.277344 C 584.378906 464.808594 590.542969 466.0625 595.808594 470.691406 C 598.820312 473.339844 600.875 476.722656 602.253906 480.464844 C 602.75 481.804688 603.363281 482.335938 604.894531 482.410156 C 612.253906 482.800781 617.46875 486.660156 621.070312 492.875 C 623.097656 496.378906 624.46875 500.136719 625.011719 504.160156 C 625.199219 505.523438 625.652344 506.433594 627.113281 507.09375 C 631.125 508.902344 633.515625 512.277344 635.085938 516.28125 C 636.671875 520.3125 637.472656 524.542969 638.027344 528.800781 C 638.589844 533.128906 639.160156 537.476562 638.980469 541.863281 C 638.800781 546.320312 638.125 550.703125 636.628906 554.929688 C 636.078125 556.472656 635.273438 557.828125 633.753906 558.644531 C 631.816406 559.675781 629.71875 559.582031 628.199219 558.292969 C 626.535156 556.878906 625.882812 555.085938 626.632812 553 C 628.675781 547.316406 628.964844 541.4375 628.484375 535.511719 C 628.09375 530.726562 627.519531 525.945312 626.011719 521.34375 C 625.816406 520.796875 625.585938 520.265625 625.324219 519.746094 C 625.277344 519.664062 625.085938 519.636719 624.832031 519.527344 Z M 612.703125 522.105469 C 611.472656 523.15625 610.554688 524.386719 610.40625 526.0625 C 611.34375 524.839844 612.664062 523.832031 612.683594 522.085938 C 612.71875 522.046875 612.757812 522.007812 612.792969 521.96875 Z M 585.808594 514.910156 C 589.574219 512.875 594.523438 501.894531 593.441406 497.96875 C 588.511719 502.207031 584.722656 510.617188 585.808594 514.910156 Z M 585.808594 514.910156 " fill-opacity="1" fill-rule="nonzero"/><path fill="#ead089" d="M 543.808594 560.976562 C 543.902344 555.742188 544.757812 550.691406 547.527344 546.113281 C 548.257812 544.90625 549.199219 543.894531 550.390625 543.144531 C 554.792969 540.386719 560.007812 542.234375 561.84375 547.128906 C 563.429688 551.34375 562.375 555.332031 560.820312 559.242188 C 559.625 562.25 557.984375 564.996094 555.902344 567.480469 C 555.339844 568.152344 555.082031 568.742188 555.402344 569.648438 C 556.949219 574.027344 558.894531 578.144531 562.421875 581.347656 C 563.84375 582.65625 565.492188 583.554688 567.367188 584.046875 C 568.328125 584.300781 569.261719 584.324219 570.15625 583.910156 C 572.375 582.882812 573.835938 581.082031 574.921875 578.976562 C 575.316406 578.214844 574.921875 577.417969 574.625 576.660156 C 573.519531 573.824219 573.144531 570.910156 573.601562 567.882812 C 573.839844 566.257812 574.472656 564.804688 575.503906 563.523438 C 577.503906 561.019531 581.519531 560.675781 583.949219 562.789062 C 585.125 563.816406 586.007812 565.015625 586.488281 566.542969 C 587.308594 569.144531 587.664062 571.769531 587.292969 574.492188 C 586.96875 576.894531 587.730469 577.839844 590.160156 578.089844 C 591.65625 578.242188 593.0625 577.808594 594.414062 577.222656 C 596.523438 576.328125 598.402344 575.085938 600.054688 573.5 C 602.105469 571.523438 604.199219 569.59375 606.320312 567.691406 C 607.886719 566.28125 609.710938 565.289062 611.882812 565.589844 C 615.0625 566.035156 616.667969 568.945312 615.523438 571.972656 C 615.242188 572.722656 614.886719 573.46875 614.304688 574.03125 C 610.316406 577.898438 606.503906 581.957031 601.757812 584.9375 C 597.867188 587.375 593.648438 588.554688 589.027344 588.214844 C 587.390625 588.097656 585.882812 587.578125 584.390625 586.96875 C 582.609375 586.242188 582.550781 586.179688 581.328125 587.765625 C 579.785156 589.765625 577.976562 591.421875 575.746094 592.605469 C 570.140625 595.582031 564.6875 594.679688 559.4375 591.726562 C 553.644531 588.46875 550.140625 583.21875 547.40625 577.367188 C 547.3125 577.171875 547.273438 576.949219 547.183594 576.75 C 546.535156 575.300781 546.363281 575.171875 544.863281 575.648438 C 543.042969 576.230469 541.203125 576.710938 539.292969 576.753906 C 531.828125 576.925781 525.515625 572.648438 522.328125 565.417969 C 519.363281 558.691406 519.699219 551.792969 521.605469 544.878906 C 522.667969 540.984375 524.144531 537.265625 526.605469 534.007812 C 528.484375 531.523438 530.671875 529.398438 533.667969 528.300781 C 536.261719 527.355469 538.945312 528.097656 540.601562 530.128906 C 541.867188 531.671875 541.929688 533.363281 540.71875 534.9375 C 540 535.863281 539.191406 536.757812 538.136719 537.277344 C 536.058594 538.300781 534.671875 539.9375 533.671875 541.933594 C 530.914062 547.429688 529.648438 553.167969 530.988281 559.289062 C 531.402344 561.179688 532.394531 562.808594 533.625 564.273438 C 536.195312 567.335938 540.773438 566.667969 543.105469 565.304688 C 543.683594 564.96875 543.828125 564.445312 543.8125 563.816406 C 543.789062 562.875 543.808594 561.925781 543.808594 560.976562 Z M 543.808594 560.976562 " fill-opacity="1" fill-rule="nonzero"/><g clip-path="url(#452ad51205)"><path fill="#bbc494" d="M 666.089844 487.449219 C 667.914062 487.277344 669.964844 487.785156 671.929688 488.632812 C 673.011719 489.101562 673.683594 488.835938 674.304688 487.859375 C 677.191406 483.339844 679.019531 478.480469 678.996094 473.066406 C 678.980469 470.296875 678.046875 467.777344 676.351562 465.5625 C 675.199219 464.0625 674.925781 464.066406 673.886719 465.601562 C 672.449219 467.726562 670.871094 469.726562 668.96875 471.457031 C 667.261719 473.007812 665.351562 474.175781 663.058594 474.628906 C 656.035156 476.011719 652.292969 469.761719 653.433594 465.097656 C 654.371094 461.273438 656.746094 458.675781 659.742188 456.472656 C 661.902344 454.886719 664.300781 453.855469 666.9375 453.375 C 668.367188 453.113281 669.003906 452.386719 669.398438 451.039062 C 670.527344 447.175781 671.191406 443.242188 671.59375 439.246094 C 671.816406 437.003906 672.15625 434.773438 672.457031 432.539062 C 672.597656 431.5 673.03125 430.566406 673.644531 429.742188 C 674.722656 428.296875 676.226562 427.546875 678.019531 427.785156 C 679.976562 428.046875 681.394531 429.167969 681.988281 431.105469 C 682.328125 432.214844 682.582031 433.375 682.417969 434.554688 C 681.722656 439.523438 681.535156 444.566406 680.34375 449.464844 C 680.035156 450.742188 679.796875 452.042969 679.355469 453.269531 C 678.988281 454.292969 679.210938 454.894531 680.113281 455.441406 C 683.289062 457.367188 685.34375 460.242188 686.976562 463.492188 C 689.261719 468.046875 689.617188 472.871094 688.882812 477.785156 C 687.878906 484.542969 685.347656 490.691406 680.882812 495.957031 C 680.207031 496.753906 680.507812 497.394531 680.816406 498.152344 C 682.445312 502.214844 682.898438 506.507812 682.8125 510.804688 C 682.71875 515.558594 681.8125 520.207031 679.863281 524.609375 C 677.125 530.796875 673.703125 536.527344 668.773438 541.261719 C 666.0625 543.867188 663 545.972656 659.554688 547.484375 C 657.679688 548.308594 655.734375 548.933594 653.621094 548.390625 C 651.425781 547.820312 649.945312 546.132812 649.726562 543.898438 C 649.554688 542.113281 650.824219 540.082031 652.683594 539.175781 C 654.058594 538.503906 655.566406 538.179688 656.929688 537.429688 C 662.007812 534.644531 665.277344 530.21875 668.125 525.398438 C 671.371094 519.917969 672.953125 514.03125 672.484375 507.632812 C 672.382812 506.46875 672.21875 505.316406 671.988281 504.171875 C 671.742188 502.871094 671.554688 502.757812 670.199219 503.238281 C 667.339844 504.25 664.433594 504.882812 661.378906 504.609375 C 658 504.308594 655.449219 502.746094 653.910156 499.648438 C 652.191406 496.1875 653.875 492.503906 655.984375 490.746094 C 658.625 488.542969 661.886719 487.449219 666.089844 487.449219 Z M 666.089844 487.449219 " fill-opacity="1" fill-rule="nonzero"/></g><path fill="#c87062" d="M 675.101562 551.824219 C 678.546875 551.828125 679.996094 553.824219 679.144531 556.863281 C 678.582031 558.890625 677.230469 560.308594 675.570312 561.390625 C 672.441406 563.429688 669.113281 565.0625 665.585938 566.292969 C 662.890625 567.226562 660.15625 566.085938 659.125 563.765625 C 658.0625 561.367188 658.9375 558.554688 661.449219 557.214844 C 664.921875 555.363281 668.476562 553.675781 672.183594 552.320312 C 673.21875 551.941406 674.292969 551.746094 675.101562 551.824219 Z M 675.101562 551.824219 " fill-opacity="1" fill-rule="nonzero"/><path fill="#c87062" d="M 641.6875 582.085938 C 641.882812 580.0625 641.980469 578.027344 642.296875 576.023438 C 642.550781 574.441406 643.078125 572.875 644.445312 571.847656 C 645.949219 570.726562 647.609375 570.367188 649.386719 571.171875 C 651.28125 572.027344 652.53125 573.601562 652.5 575.566406 C 652.445312 579.398438 652.191406 583.265625 650.601562 586.871094 C 650.089844 588.035156 649.214844 588.921875 648.265625 589.71875 C 646.527344 591.175781 645.210938 591.027344 643.78125 589.285156 C 642.375 587.570312 641.972656 585.511719 641.757812 583.390625 C 641.714844 582.960938 641.75 582.519531 641.75 582.082031 Z M 641.6875 582.085938 " fill-opacity="1" fill-rule="nonzero"/><path fill="#7ec5cc" d="M 657.070312 519.160156 C 656.824219 522.027344 655.523438 524.097656 653.242188 525.367188 C 651.15625 526.53125 649.019531 526.1875 647.089844 524.757812 C 644.683594 522.984375 644.046875 519.445312 645.644531 516.730469 C 646.199219 515.792969 646.773438 514.867188 647.359375 513.949219 C 649.335938 510.84375 653.664062 510.800781 655.496094 513.964844 C 656.4375 515.59375 656.726562 517.5 657.070312 519.160156 Z M 657.070312 519.160156 " fill-opacity="1" fill-rule="nonzero"/><path fill="#7ec5cc" d="M 603.832031 550.695312 C 603.726562 551.679688 603.566406 552.691406 603.175781 553.636719 C 602.257812 555.839844 600.027344 556.964844 597.640625 556.644531 C 594.203125 556.179688 590.601562 550.273438 592.085938 547.089844 C 593.476562 544.109375 596.890625 542.664062 599.71875 544.34375 C 602.082031 545.746094 603.714844 547.738281 603.832031 550.695312 Z M 603.832031 550.695312 " fill-opacity="1" fill-rule="nonzero"/><path fill="#fbfcfa" d="M 612.703125 522.105469 L 612.796875 521.96875 C 612.761719 522.007812 612.722656 522.046875 612.6875 522.085938 Z M 612.703125 522.105469 " fill-opacity="1" fill-rule="nonzero"/><g clip-path="url(#2260614337)"><path fill="#c87062" d="M 384.488281 490.542969 C 381.589844 490.738281 379.183594 491.730469 377.054688 493.3125 C 372.191406 496.921875 369.285156 501.824219 367.875 507.632812 C 366.820312 511.914062 366.550781 516.246094 367.0625 520.628906 C 367.269531 522.414062 367.433594 524.203125 367.753906 525.976562 C 367.859375 526.625 367.886719 527.277344 367.839844 527.933594 C 367.765625 529.34375 366.863281 530.347656 365.566406 530.550781 C 364.203125 530.765625 363.046875 530.167969 362.464844 528.929688 C 362.0625 528.078125 362 527.144531 361.84375 526.230469 C 361.175781 522.292969 360.773438 518.328125 361 514.339844 C 361.425781 506.835938 363.359375 499.820312 368.191406 493.835938 C 371.988281 489.140625 376.589844 485.726562 382.757812 484.816406 C 383.789062 484.664062 384.824219 484.632812 385.867188 484.714844 C 386.871094 484.796875 387.460938 484.441406 387.992188 483.585938 C 390.109375 480.207031 392.796875 477.367188 396.066406 475.070312 C 399.285156 472.757812 402.863281 471.363281 406.804688 470.886719 C 407.835938 470.757812 408.859375 470.523438 409.902344 470.582031 C 410.691406 470.628906 410.917969 470.226562 411.050781 469.535156 C 411.648438 466.464844 412.617188 463.523438 414.1875 460.789062 C 416.8125 456.210938 420.132812 452.292969 424.816406 449.671875 C 428.289062 447.722656 432.070312 446.683594 435.980469 446.003906 C 439.242188 445.429688 442.40625 445.835938 445.5625 446.625 C 447.046875 446.996094 448.546875 447.316406 450.019531 447.738281 C 451.203125 448.074219 452.039062 448.859375 452.285156 450.097656 C 452.507812 451.21875 452.101562 452.171875 451.1875 452.832031 C 450.367188 453.429688 449.425781 453.613281 448.386719 453.332031 C 446.59375 452.84375 444.773438 452.449219 442.972656 451.980469 C 440.011719 451.210938 437.085938 451.601562 434.199219 452.292969 C 424.914062 454.527344 419.445312 460.546875 417.070312 469.59375 C 416.769531 470.75 416.796875 470.824219 418.035156 471.042969 C 421.367188 471.628906 424.492188 472.765625 427.3125 474.625 C 433.300781 478.574219 436.757812 484.222656 438.148438 491.160156 C 438.90625 494.921875 438.035156 498.40625 435.957031 501.613281 C 433.578125 505.28125 430.453125 506.207031 426.285156 504.710938 C 421.5625 503.015625 418.042969 499.808594 415.449219 495.59375 C 413.039062 491.675781 411.875 487.292969 410.941406 482.847656 C 410.566406 481.136719 410.347656 479.410156 410.292969 477.660156 C 410.265625 476.464844 410.167969 476.371094 408.921875 476.480469 C 404.832031 476.847656 401.121094 478.164062 398.03125 480.9375 C 396.398438 482.398438 394.84375 483.933594 393.550781 485.714844 C 393.113281 486.320312 393.214844 486.621094 393.828125 486.992188 C 400.199219 490.847656 404.375 496.4375 406.574219 503.46875 C 408.078125 508.261719 408.183594 513.070312 405.550781 517.570312 C 403.6875 520.746094 400.914062 522.832031 397.160156 523.230469 C 394.113281 523.554688 391.433594 522.425781 389.160156 520.453125 C 383.402344 515.457031 381.421875 509.039062 382.183594 501.617188 C 382.371094 499.773438 382.527344 497.921875 382.988281 496.121094 C 383.449219 494.320312 383.949219 492.546875 384.488281 490.542969 Z M 390.429688 491.804688 C 388.679688 496.203125 387.835938 500.546875 387.890625 505.082031 C 387.945312 509.363281 389.539062 512.933594 392.683594 515.820312 C 395.492188 518.398438 398.765625 517.824219 400.605469 514.480469 C 401.769531 512.371094 401.9375 510.101562 401.582031 507.796875 C 400.898438 503.359375 398.867188 499.527344 395.929688 496.175781 C 394.421875 494.449219 392.726562 492.90625 390.429688 491.804688 Z M 416.179688 478.519531 C 416.425781 480.90625 416.886719 483.253906 417.5625 485.558594 C 418.53125 488.929688 419.726562 492.210938 422.132812 494.894531 C 423.871094 496.839844 425.851562 498.449219 428.371094 499.269531 C 429.808594 499.738281 430.488281 499.492188 431.25 498.183594 C 432.175781 496.597656 432.835938 494.851562 432.53125 493.027344 C 431.484375 486.777344 428.480469 481.785156 422.757812 478.675781 C 421.113281 477.78125 419.335938 477.230469 417.503906 476.867188 C 416.367188 476.640625 416.195312 476.808594 416.183594 478.015625 C 416.179688 478.125 416.183594 478.234375 416.183594 478.519531 Z M 416.179688 478.519531 " fill-opacity="1" fill-rule="nonzero"/></g><g clip-path="url(#c17f4f056c)"><path fill="#adbd8c" d="M 485.027344 505.683594 C 485.542969 505.921875 486.089844 505.8125 486.617188 505.816406 C 488.589844 505.835938 490.5625 505.851562 492.535156 505.839844 C 493.425781 505.824219 494.277344 505.996094 495.09375 506.359375 C 496.097656 506.8125 496.808594 507.5 496.792969 508.726562 C 496.777344 509.910156 496.1875 510.667969 495.132812 511.121094 C 493.894531 511.664062 492.609375 511.839844 491.269531 511.652344 C 488.140625 511.195312 485.046875 511.96875 481.9375 511.632812 C 481.75 512.390625 482.308594 512.601562 482.609375 512.917969 C 485.179688 515.605469 487.921875 518.128906 490.375 520.929688 C 491.046875 521.695312 491.539062 522.507812 491.320312 523.585938 C 490.894531 525.65625 488.679688 526.585938 486.847656 525.421875 C 486.347656 525.101562 485.933594 524.644531 485.5 524.226562 C 483.859375 522.636719 482.222656 521.039062 480.589844 519.433594 C 480.085938 519.695312 480.289062 520.128906 480.320312 520.457031 C 480.566406 523.226562 480.867188 525.992188 481.113281 528.757812 C 481.378906 531.796875 481.882812 534.816406 481.988281 537.871094 C 482.019531 538.707031 481.917969 539.488281 481.355469 540.175781 C 479.957031 541.886719 477.382812 541.5625 476.527344 539.53125 C 476.226562 538.820312 476.15625 538.058594 476.082031 537.292969 C 475.546875 531.710938 474.984375 526.128906 474.410156 520.433594 C 473.679688 520.730469 473.511719 521.351562 473.179688 521.800781 C 472.628906 522.542969 472.207031 523.382812 471.519531 524.027344 C 470.511719 524.964844 469.074219 525.191406 468.058594 524.558594 C 466.929688 523.847656 466.507812 522.683594 466.835938 521.28125 C 466.976562 520.683594 467.273438 520.171875 467.613281 519.671875 C 468.925781 517.722656 470.234375 515.773438 471.542969 513.820312 C 471.84375 513.371094 472.125 512.910156 472.398438 512.492188 C 472.160156 511.921875 471.714844 512.089844 471.378906 512.121094 C 468.769531 512.382812 466.167969 512.703125 463.550781 512.941406 C 462.238281 513.0625 460.925781 513.105469 459.609375 513.074219 C 458.1875 513.039062 457.179688 512.121094 456.96875 510.832031 C 456.734375 509.402344 457.375 508.203125 458.703125 507.65625 C 459.46875 507.339844 460.28125 507.246094 461.113281 507.203125 C 462.914062 507.113281 464.710938 506.957031 466.511719 506.816406 C 467 506.777344 467.484375 506.695312 468.023438 506.382812 C 466.90625 505.09375 465.792969 503.839844 464.714844 502.554688 C 464.160156 501.890625 463.609375 501.207031 463.523438 500.273438 C 463.386719 498.808594 463.960938 497.636719 465.101562 497.144531 C 466.28125 496.640625 467.773438 497.019531 468.648438 498.125 C 469.773438 499.535156 470.917969 500.925781 472.1875 502.210938 C 472.488281 502.515625 472.726562 502.902344 473.207031 503.046875 C 473.609375 502.710938 473.414062 502.246094 473.40625 501.851562 C 473.347656 497.980469 473.269531 494.105469 473.179688 490.230469 C 473.167969 489.300781 473.257812 488.378906 473.453125 487.46875 C 473.75 485.96875 474.90625 485.125 476.417969 485.210938 C 477.824219 485.292969 478.847656 486.242188 479.011719 487.699219 C 479.085938 488.347656 479.066406 489.007812 479.054688 489.660156 C 478.972656 493.96875 479.144531 498.273438 479.367188 502.71875 C 479.972656 502.367188 480.269531 501.847656 480.613281 501.394531 C 482.027344 499.519531 483.417969 497.628906 484.832031 495.75 C 485.988281 494.214844 487.375 493.761719 488.640625 494.476562 C 490.019531 495.257812 490.5 496.953125 489.828125 498.636719 C 489.621094 499.148438 489.3125 499.59375 488.976562 500.027344 C 487.90625 501.410156 486.84375 502.796875 485.8125 504.210938 C 485.496094 504.628906 485.03125 504.988281 485.027344 505.683594 Z M 485.027344 505.683594 " fill-opacity="1" fill-rule="nonzero"/></g><g clip-path="url(#1cb8574d16)"><path fill="#ead089" d="M 368.382812 564.714844 C 371.921875 562.050781 375.148438 559.824219 378.695312 558.039062 C 385.699219 554.507812 392.886719 554.636719 400.191406 556.65625 C 410.667969 559.550781 414.9375 567.578125 416.234375 578.175781 C 416.511719 580.460938 416.453125 582.789062 416.558594 585.222656 C 420.175781 584.546875 423.6875 583.945312 427.3125 584.300781 C 435.585938 585.121094 441.164062 591.191406 440.878906 599.445312 C 440.683594 605.105469 438.683594 610.285156 435.992188 615.191406 C 434.882812 617.214844 432.726562 617.929688 430.683594 617.246094 C 428.417969 616.488281 427.164062 614.660156 427.351562 612.335938 C 427.453125 611.070312 427.90625 609.90625 428.484375 608.777344 C 429.632812 606.535156 430.3125 604.125 430.945312 601.699219 C 431.160156 600.828125 431.25 599.941406 431.210938 599.039062 C 431.128906 595.75 429.574219 594.089844 426.289062 593.867188 C 424.410156 593.738281 422.542969 593.800781 420.671875 594.230469 C 417.414062 594.984375 414.902344 596.53125 413.554688 599.75 C 412.890625 601.347656 411.714844 602.667969 410.003906 603.226562 C 406.507812 604.375 403.257812 601.511719 403.890625 597.730469 C 404.304688 595.269531 405.136719 592.894531 405.753906 590.46875 C 406.875 586.082031 407.21875 581.625 406.425781 577.167969 C 405.816406 573.714844 404.78125 570.382812 401.863281 568 C 400.8125 567.140625 399.640625 566.507812 398.34375 566.101562 C 391.832031 564.003906 385.679688 564.402344 379.820312 568.300781 C 375.503906 571.171875 371.492188 574.242188 369.289062 579.097656 C 368.664062 580.480469 368.253906 581.960938 367.601562 583.328125 C 366.386719 585.878906 363.929688 587.148438 361.746094 586.480469 C 359.355469 585.753906 357.988281 583.632812 358.292969 580.792969 C 358.816406 575.980469 359.148438 571.171875 358.84375 566.332031 C 358.769531 565.164062 358.679688 564.019531 358.300781 562.902344 C 357.488281 560.492188 355.824219 559.308594 353.25 559.347656 C 350.75 559.378906 348.464844 560.09375 346.394531 561.488281 C 342.453125 564.140625 339.191406 567.359375 338.371094 572.378906 C 337.925781 575.105469 335.828125 576.667969 333.253906 576.464844 C 331.035156 576.28125 329.058594 574.179688 328.957031 571.691406 C 328.847656 569.394531 329.351562 567.242188 330.472656 565.234375 C 333.691406 559.503906 337.851562 554.675781 344.027344 551.921875 C 346.59375 550.777344 349.277344 550.078125 352.074219 549.828125 C 359.023438 549.191406 365.703125 553.078125 367.441406 560.101562 C 367.773438 561.480469 368.179688 562.84375 368.382812 564.714844 Z M 368.382812 564.714844 " fill-opacity="1" fill-rule="nonzero"/></g><path fill="#e1a8ae" d="M 439.984375 545.289062 C 439.976562 549.898438 437.144531 553.957031 433.210938 555.320312 C 428.109375 557.09375 420.40625 553.640625 419.378906 547.21875 C 419.15625 545.90625 419.226562 544.613281 419.585938 543.335938 C 420.410156 540.464844 421.957031 538.109375 424.535156 536.472656 C 426.222656 535.402344 428 535.195312 429.867188 535.785156 C 431.273438 536.226562 432.761719 536.265625 434.152344 536.828125 C 437.742188 538.273438 439.992188 541.460938 439.984375 545.289062 Z M 432.378906 545.386719 C 432.433594 544.765625 432.140625 544.285156 431.527344 544.011719 C 430.976562 543.769531 430.414062 543.574219 429.871094 543.328125 C 429.183594 543.015625 428.5 542.832031 427.929688 543.492188 C 427.289062 544.246094 426.742188 545.085938 427.027344 546.140625 C 427.335938 547.261719 429.269531 548.378906 430.457031 548.1875 C 431.40625 548.035156 432.363281 546.671875 432.378906 545.386719 Z M 432.378906 545.386719 " fill-opacity="1" fill-rule="nonzero"/><g clip-path="url(#afd12f250b)"><path fill="#7ec5cc" d="M 338.617188 507.761719 C 340.589844 507.613281 342.109375 508.367188 343.160156 510.0625 C 343.367188 510.386719 343.621094 510.667969 343.917969 510.90625 C 346.425781 512.945312 347.238281 515.554688 346.445312 518.632812 C 345.699219 521.535156 344.089844 523.902344 341.617188 525.605469 C 337.625 528.355469 332.820312 527.25 330.332031 523.085938 C 328.105469 519.359375 328.714844 515.789062 330.972656 512.335938 C 332.15625 510.527344 333.613281 509 335.726562 508.234375 C 336.65625 507.90625 337.605469 507.679688 338.617188 507.761719 Z M 337.265625 519.21875 C 337.875 518.988281 338.261719 518.417969 338.617188 517.8125 C 338.871094 517.371094 339.035156 516.953125 338.609375 516.492188 C 338.113281 515.953125 337.714844 515.929688 337.335938 516.554688 C 336.980469 517.144531 336.558594 517.738281 336.625 518.492188 C 336.65625 518.828125 336.742188 519.132812 337.265625 519.21875 Z M 337.265625 519.21875 " fill-opacity="1" fill-rule="nonzero"/></g><g clip-path="url(#441b8dcfd8)"><path fill="#c87062" d="M 172.523438 498.730469 C 172.480469 486.128906 178.335938 476.660156 188.195312 469.371094 C 195.050781 464.304688 202.648438 461.523438 211.28125 461.929688 C 217.882812 462.238281 224.027344 463.9375 229.585938 467.617188 C 232.226562 469.367188 232.222656 469.335938 234.582031 467.210938 C 240.863281 461.554688 248.027344 457.335938 255.792969 454.082031 C 264.203125 450.550781 272.820312 447.707031 281.75 445.824219 C 283.5625 445.441406 285.101562 445.84375 286.449219 447.011719 C 287.847656 448.21875 288.371094 449.820312 287.953125 451.605469 C 287.457031 453.71875 285.976562 454.992188 283.945312 455.566406 C 281.148438 456.355469 278.316406 457.007812 275.519531 457.804688 C 266.652344 460.328125 258.039062 463.492188 250.058594 468.203125 C 246.652344 470.21875 243.503906 472.578125 240.601562 475.273438 C 238.957031 476.789062 238.941406 476.855469 240.117188 478.75 C 242.871094 483.1875 244.984375 487.910156 245.996094 493.03125 C 247.980469 503.089844 247.550781 512.910156 242.265625 522.035156 C 239.414062 526.964844 235.652344 530.894531 230.097656 532.816406 C 220.351562 536.183594 213.316406 530.5625 212.011719 521.371094 C 210.992188 514.140625 212.167969 507.121094 213.894531 500.160156 C 215.792969 492.503906 218.863281 485.367188 223.726562 479.085938 C 223.957031 478.789062 224.121094 478.4375 224.371094 478.164062 C 225.265625 477.183594 224.863281 476.488281 223.925781 475.882812 C 221.535156 474.328125 218.910156 473.351562 216.160156 472.671875 C 201.464844 469.046875 188.554688 479.445312 184.285156 489.25 C 182.210938 494.011719 182.289062 498.953125 183 503.945312 C 183.160156 505.058594 183.585938 506.132812 183.738281 507.246094 C 184.0625 509.597656 183.070312 511.496094 181.160156 512.414062 C 179.15625 513.371094 176.855469 512.894531 175.234375 511.199219 C 174.003906 509.914062 173.507812 508.277344 173.226562 506.613281 C 172.785156 504.019531 172.335938 501.410156 172.523438 498.730469 Z M 232.234375 485.304688 C 231.671875 485.335938 231.394531 485.582031 231.171875 485.882812 C 230.726562 486.488281 230.28125 487.089844 229.875 487.71875 C 224.863281 495.476562 222.648438 504.15625 221.707031 513.21875 C 221.4375 515.824219 221.445312 518.476562 222.167969 521.058594 C 222.824219 523.386719 223.707031 523.996094 226.074219 523.523438 C 228.59375 523.019531 230.480469 521.464844 231.972656 519.472656 C 233.972656 516.816406 235.390625 513.875 236.226562 510.648438 C 237.375 506.210938 237.332031 501.71875 236.65625 497.242188 C 236.011719 492.953125 234.632812 488.890625 232.234375 485.304688 Z M 232.234375 485.304688 " fill-opacity="1" fill-rule="nonzero"/></g><path fill="#e1a8ae" d="M 304.691406 545.714844 C 304.476562 556.367188 299.851562 565.03125 292.515625 572.355469 C 287.9375 576.925781 282.160156 579.359375 275.910156 580.761719 C 272.742188 581.476562 269.515625 581.75 266.292969 581.828125 C 264.777344 581.863281 264.066406 582.410156 263.605469 583.761719 C 262.476562 587.066406 260.433594 589.824219 258.25 592.496094 C 254.730469 596.789062 250.074219 598.894531 244.730469 599.742188 C 238.839844 600.671875 233.1875 599.542969 227.613281 597.761719 C 221.171875 595.699219 215.488281 592.277344 210.414062 587.835938 C 208.015625 585.734375 206.082031 583.269531 205.289062 580.074219 C 204.535156 577.050781 205.695312 574.5 208.296875 573.488281 C 210.808594 572.507812 213.207031 573.53125 214.539062 576.425781 C 215.578125 578.683594 217.152344 580.332031 219.097656 581.792969 C 225.511719 586.597656 232.550781 589.605469 240.660156 589.832031 C 246.328125 589.992188 250.257812 587.296875 252.972656 582.527344 C 253.96875 580.777344 253.800781 580.347656 251.765625 579.726562 C 249.117188 578.914062 246.503906 577.988281 244.101562 576.632812 C 238.566406 573.507812 234.003906 569.402344 232.03125 563.105469 C 229.617188 555.414062 234.179688 547.320312 241.789062 545.925781 C 245.480469 545.25 249.222656 545.53125 252.613281 547.441406 C 260.65625 551.96875 265.171875 558.867188 266.214844 568.0625 C 266.269531 568.535156 266.3125 569.007812 266.378906 569.480469 C 266.683594 571.601562 266.6875 571.617188 268.789062 571.40625 C 270.300781 571.253906 271.824219 571.136719 273.3125 570.847656 C 284.828125 568.574219 293.230469 558.898438 294.40625 547.183594 C 295.535156 535.910156 290.699219 527.464844 282.691406 520.304688 C 281.980469 519.671875 281.222656 519.082031 280.585938 518.382812 C 278.574219 516.175781 278.351562 513.628906 279.929688 511.640625 C 281.480469 509.691406 284.566406 509.214844 286.933594 510.789062 C 288.671875 511.9375 290.367188 513.238281 291.828125 514.71875 C 298.417969 521.394531 302.792969 529.300781 304.617188 538.574219 C 305.09375 540.964844 304.691406 543.335938 304.691406 545.714844 Z M 245.453125 555.664062 C 242.722656 555.484375 240.96875 557.648438 241.703125 560.300781 C 241.960938 561.234375 242.515625 562.003906 243.089844 562.777344 C 246.027344 566.71875 250.140625 568.742188 254.734375 569.972656 C 256.15625 570.355469 256.460938 570.097656 256.21875 568.671875 C 255.644531 565.324219 254.433594 562.21875 252.128906 559.699219 C 250.332031 557.722656 248.289062 555.980469 245.453125 555.664062 Z M 245.453125 555.664062 " fill-opacity="1" fill-rule="nonzero"/><path fill="#ead089" d="M 279.71875 498.09375 C 279.707031 503.179688 276.601562 507.664062 272.292969 509.167969 C 266.695312 511.125 258.25 507.3125 257.125 500.222656 C 256.878906 498.777344 256.957031 497.347656 257.355469 495.9375 C 258.257812 492.765625 259.953125 490.164062 262.78125 488.359375 C 264.628906 487.175781 266.578125 486.949219 268.625 487.597656 C 270.167969 488.085938 271.796875 488.132812 273.320312 488.75 C 277.257812 490.34375 279.722656 493.863281 279.71875 498.09375 Z M 271.378906 498.199219 C 271.4375 497.515625 271.117188 496.984375 270.445312 496.683594 C 269.847656 496.414062 269.226562 496.195312 268.628906 495.925781 C 267.875 495.582031 267.117188 495.378906 266.5 496.105469 C 265.796875 496.933594 265.195312 497.863281 265.511719 499.027344 C 265.851562 500.265625 267.96875 501.5 269.269531 501.289062 C 270.3125 501.125 271.363281 499.617188 271.378906 498.199219 Z M 271.378906 498.199219 " fill-opacity="1" fill-rule="nonzero"/><path fill="#7ec5cc" d="M 197.402344 534.21875 C 199.5625 534.054688 201.230469 534.886719 202.382812 536.757812 C 202.609375 537.117188 202.886719 537.425781 203.214844 537.691406 C 205.964844 539.945312 206.851562 542.820312 205.980469 546.222656 C 205.164062 549.425781 203.402344 552.039062 200.6875 553.921875 C 196.3125 556.957031 191.046875 555.738281 188.320312 551.144531 C 185.878906 547.023438 186.542969 543.078125 189.015625 539.273438 C 190.3125 537.277344 191.910156 535.59375 194.222656 534.75 C 195.246094 534.375 196.289062 534.128906 197.402344 534.21875 Z M 195.921875 546.871094 C 196.589844 546.617188 197.011719 545.984375 197.398438 545.316406 C 197.679688 544.832031 197.859375 544.367188 197.394531 543.855469 C 196.851562 543.265625 196.414062 543.238281 195.996094 543.925781 C 195.605469 544.582031 195.144531 545.234375 195.21875 546.066406 C 195.25 546.4375 195.34375 546.769531 195.921875 546.871094 Z M 195.921875 546.871094 " fill-opacity="1" fill-rule="nonzero"/><path fill="#e1a8ae" d="M 44.070312 510.574219 C 44.542969 511.207031 44.636719 512 44.867188 512.734375 C 46.253906 517.171875 48.285156 521.277344 51.539062 524.664062 C 54.011719 527.238281 56.820312 529.203125 60.625 529.378906 C 63.808594 529.527344 67.355469 527.3125 68.597656 523.957031 C 70.164062 519.746094 69.335938 515.761719 67.582031 511.875 C 65.800781 507.921875 62.886719 504.871094 59.433594 502.3125 C 58.027344 501.269531 56.632812 500.195312 55.023438 499.457031 C 54.195312 499.074219 53.789062 498.523438 53.910156 497.574219 C 54.480469 493.125 55.882812 489.0625 59.1875 485.839844 C 60.144531 484.894531 61.277344 484.257812 62.585938 483.929688 C 64.183594 483.53125 64.507812 483.78125 64.570312 485.441406 C 64.765625 490.71875 65.574219 495.878906 67.566406 500.804688 C 69.523438 505.652344 72.113281 510.113281 75.964844 513.734375 C 77.808594 515.46875 79.933594 516.757812 82.492188 517.082031 C 88.265625 517.8125 91.707031 514.761719 93.023438 509.738281 C 94.203125 505.222656 93.667969 500.71875 92.046875 496.417969 C 89.042969 488.4375 84.214844 481.796875 76.917969 477.136719 C 75.980469 476.535156 75.824219 475.953125 76.222656 474.976562 C 77.230469 472.492188 78.710938 470.367188 80.789062 468.65625 C 81.773438 467.839844 82.902344 467.355469 84.171875 467.195312 C 89.261719 466.546875 93.613281 467.960938 96.828125 472.089844 C 100.351562 476.621094 102.660156 481.660156 102.875 487.507812 C 102.917969 488.308594 103.046875 489.097656 103.269531 489.871094 C 103.859375 492.066406 105.539062 493.53125 107.5625 493.699219 C 109.4375 493.855469 111.765625 492.34375 112.558594 490.375 C 113.023438 489.21875 113.320312 487.996094 113.195312 486.742188 C 112.351562 478.058594 109.183594 470.375 103.195312 463.933594 C 99.960938 460.457031 95.953125 458.324219 91.320312 457.320312 C 84.527344 455.855469 78.363281 457.105469 73.097656 461.734375 C 70.085938 464.386719 68.03125 467.765625 66.652344 471.507812 C 66.15625 472.851562 65.542969 473.378906 64.007812 473.457031 C 56.652344 473.847656 51.4375 477.707031 47.835938 483.921875 C 45.808594 487.425781 44.4375 491.179688 43.894531 495.207031 C 43.707031 496.570312 43.253906 497.476562 41.792969 498.136719 C 37.78125 499.949219 35.390625 503.320312 33.816406 507.324219 C 32.234375 511.355469 31.433594 515.585938 30.878906 519.847656 C 30.316406 524.175781 29.746094 528.523438 29.925781 532.90625 C 30.105469 537.367188 30.78125 541.746094 32.277344 545.972656 C 32.824219 547.519531 33.632812 548.871094 35.152344 549.6875 C 37.085938 550.722656 39.1875 550.628906 40.707031 549.339844 C 42.371094 547.925781 43.019531 546.132812 42.273438 544.046875 C 40.230469 538.359375 39.9375 532.484375 40.421875 526.558594 C 40.8125 521.773438 41.382812 516.992188 42.894531 512.390625 C 43.089844 511.84375 43.316406 511.308594 43.582031 510.792969 C 43.625 510.707031 43.820312 510.683594 44.070312 510.574219 Z M 56.203125 513.148438 C 57.433594 514.203125 58.351562 515.429688 58.5 517.105469 C 57.558594 515.882812 56.242188 514.875 56.222656 513.132812 C 56.183594 513.089844 56.148438 513.050781 56.113281 513.011719 Z M 83.097656 505.957031 C 79.328125 503.917969 74.382812 492.941406 75.464844 489.011719 C 80.394531 493.25 84.183594 501.660156 83.097656 505.957031 Z M 83.097656 505.957031 " fill-opacity="1" fill-rule="nonzero"/><path fill="#ead089" d="M 125.097656 552.023438 C 125.003906 546.785156 124.148438 541.734375 121.378906 537.160156 C 120.644531 535.949219 119.707031 534.9375 118.515625 534.191406 C 114.113281 531.433594 108.898438 533.28125 107.0625 538.175781 C 105.476562 542.390625 106.53125 546.375 108.082031 550.285156 C 109.28125 553.296875 110.921875 556.042969 113.003906 558.527344 C 113.566406 559.195312 113.824219 559.789062 113.503906 560.695312 C 111.957031 565.070312 110.011719 569.1875 106.484375 572.390625 C 105.0625 573.699219 103.410156 574.597656 101.539062 575.089844 C 100.578125 575.34375 99.640625 575.371094 98.75 574.953125 C 96.53125 573.925781 95.070312 572.125 93.980469 570.019531 C 93.589844 569.261719 93.980469 568.460938 94.28125 567.703125 C 95.386719 564.871094 95.761719 561.953125 95.304688 558.929688 C 95.066406 557.300781 94.429688 555.847656 93.402344 554.566406 C 91.402344 552.0625 87.386719 551.71875 84.957031 553.832031 C 83.78125 554.859375 82.898438 556.0625 82.417969 557.585938 C 81.59375 560.191406 81.242188 562.816406 81.613281 565.535156 C 81.9375 567.9375 81.175781 568.882812 78.742188 569.132812 C 77.25 569.285156 75.84375 568.851562 74.488281 568.269531 C 72.382812 567.371094 70.5 566.128906 68.851562 564.542969 C 66.800781 562.566406 64.703125 560.636719 62.585938 558.734375 C 61.019531 557.324219 59.195312 556.332031 57.023438 556.636719 C 53.84375 557.078125 52.238281 559.992188 53.382812 563.019531 C 53.664062 563.765625 54.019531 564.515625 54.601562 565.074219 C 58.589844 568.941406 62.398438 573.003906 67.148438 575.980469 C 71.035156 578.417969 75.253906 579.601562 79.878906 579.261719 C 81.515625 579.140625 83.023438 578.621094 84.515625 578.015625 C 86.296875 577.289062 86.355469 577.222656 87.578125 578.808594 C 89.121094 580.808594 90.929688 582.464844 93.160156 583.648438 C 98.765625 586.625 104.21875 585.722656 109.464844 582.773438 C 115.261719 579.511719 118.761719 574.261719 121.496094 568.414062 C 121.589844 568.214844 121.632812 567.996094 121.722656 567.796875 C 122.367188 566.34375 122.542969 566.21875 124.042969 566.695312 C 125.863281 567.273438 127.703125 567.753906 129.613281 567.800781 C 137.078125 567.972656 143.390625 563.691406 146.578125 556.460938 C 149.542969 549.734375 149.203125 542.835938 147.300781 535.921875 C 146.238281 532.03125 144.761719 528.308594 142.296875 525.050781 C 140.421875 522.566406 138.230469 520.441406 135.238281 519.347656 C 132.644531 518.402344 129.957031 519.140625 128.300781 521.171875 C 127.039062 522.71875 126.976562 524.40625 128.1875 525.980469 C 128.90625 526.90625 129.714844 527.804688 130.769531 528.324219 C 132.847656 529.34375 134.234375 530.980469 135.234375 532.980469 C 137.992188 538.472656 139.257812 544.210938 137.917969 550.335938 C 137.503906 552.222656 136.511719 553.851562 135.28125 555.320312 C 132.707031 558.378906 128.132812 557.714844 125.800781 556.347656 C 125.222656 556.011719 125.078125 555.488281 125.089844 554.859375 C 125.113281 553.917969 125.097656 552.96875 125.097656 552.023438 Z M 125.097656 552.023438 " fill-opacity="1" fill-rule="nonzero"/><g clip-path="url(#498d7856c5)"><path fill="#bbc494" d="M 2.816406 478.492188 C 0.992188 478.320312 -1.058594 478.828125 -3.023438 479.679688 C -4.105469 480.144531 -4.777344 479.878906 -5.398438 478.90625 C -8.285156 474.382812 -10.113281 469.527344 -10.089844 464.113281 C -10.078125 461.339844 -9.144531 458.820312 -7.445312 456.609375 C -6.292969 455.105469 -6.019531 455.113281 -4.980469 456.648438 C -3.542969 458.769531 -1.96875 460.769531 -0.0625 462.5 C 1.644531 464.054688 3.554688 465.21875 5.847656 465.671875 C 12.867188 467.054688 16.609375 460.804688 15.472656 456.140625 C 14.53125 452.316406 12.160156 449.71875 9.164062 447.515625 C 7.003906 445.933594 4.605469 444.898438 1.96875 444.421875 C 0.539062 444.15625 -0.0976562 443.429688 -0.496094 442.082031 C -1.621094 438.21875 -2.285156 434.285156 -2.6875 430.292969 C -2.910156 428.046875 -3.25 425.816406 -3.554688 423.582031 C -3.691406 422.546875 -4.125 421.609375 -4.738281 420.789062 C -5.816406 419.339844 -7.320312 418.59375 -9.113281 418.832031 C -11.070312 419.089844 -12.488281 420.210938 -13.085938 422.148438 C -13.425781 423.261719 -13.675781 424.417969 -13.511719 425.597656 C -12.816406 430.570312 -12.628906 435.609375 -11.441406 440.511719 C -11.128906 441.785156 -10.890625 443.085938 -10.449219 444.3125 C -10.082031 445.335938 -10.304688 445.941406 -11.210938 446.488281 C -14.382812 448.410156 -16.441406 451.285156 -18.070312 454.535156 C -20.355469 459.089844 -20.710938 463.914062 -19.980469 468.828125 C -18.972656 475.589844 -16.441406 481.734375 -11.976562 487 C -11.300781 487.800781 -11.601562 488.4375 -11.910156 489.199219 C -13.539062 493.261719 -13.996094 497.550781 -13.90625 501.851562 C -13.8125 506.601562 -12.90625 511.253906 -10.957031 515.65625 C -8.21875 521.84375 -4.796875 527.570312 0.132812 532.308594 C 2.84375 534.914062 5.902344 537.015625 9.347656 538.527344 C 11.226562 539.351562 13.171875 539.976562 15.285156 539.433594 C 17.480469 538.867188 18.960938 537.175781 19.175781 534.945312 C 19.351562 533.15625 18.082031 531.125 16.222656 530.222656 C 14.847656 529.550781 13.339844 529.226562 11.972656 528.476562 C 6.898438 525.6875 3.628906 521.261719 0.777344 516.445312 C -2.464844 510.960938 -4.046875 505.074219 -3.578125 498.675781 C -3.476562 497.511719 -3.3125 496.359375 -3.082031 495.214844 C -2.835938 493.914062 -2.652344 493.800781 -1.292969 494.28125 C 1.566406 495.296875 4.472656 495.925781 7.527344 495.65625 C 10.902344 495.351562 13.453125 493.792969 14.996094 490.691406 C 16.714844 487.230469 15.03125 483.550781 12.917969 481.789062 C 10.28125 479.585938 7.019531 478.492188 2.816406 478.492188 Z M 2.816406 478.492188 " fill-opacity="1" fill-rule="nonzero"/></g><path fill="#c87062" d="M -6.195312 542.867188 C -9.640625 542.875 -11.089844 544.867188 -10.238281 547.910156 C -9.675781 549.9375 -8.328125 551.355469 -6.664062 552.4375 C -3.535156 554.472656 -0.207031 556.105469 3.320312 557.335938 C 6.015625 558.273438 8.75 557.128906 9.78125 554.8125 C 10.84375 552.414062 9.96875 549.601562 7.453125 548.261719 C 3.984375 546.410156 0.429688 544.71875 -3.277344 543.367188 C -4.3125 542.984375 -5.386719 542.792969 -6.195312 542.867188 Z M -6.195312 542.867188 " fill-opacity="1" fill-rule="nonzero"/><path fill="#c87062" d="M 46.433594 573.175781 C 43.546875 573.167969 42.609375 574.375 43.324219 577.058594 C 43.933594 579.363281 45.070312 581.375 46.730469 583.089844 C 48.449219 584.878906 50.257812 586.578125 52.019531 588.324219 C 52.757812 589.058594 53.625 589.585938 54.558594 590.015625 C 56.753906 591.03125 59.097656 590.605469 60.589844 588.945312 C 62.113281 587.238281 62.636719 584.59375 60.996094 582.925781 C 57.410156 579.289062 54.273438 574.953125 48.90625 573.554688 C 48.054688 573.332031 47.207031 573.105469 46.433594 573.175781 Z M 46.433594 573.175781 " fill-opacity="1" fill-rule="nonzero"/><path fill="#c87062" d="M 27.21875 573.132812 C 27.023438 571.109375 26.925781 569.070312 26.609375 567.066406 C 26.355469 565.484375 25.828125 563.917969 24.457031 562.894531 C 22.957031 561.769531 21.292969 561.414062 19.515625 562.214844 C 17.621094 563.070312 16.375 564.648438 16.402344 566.609375 C 16.460938 570.445312 16.714844 574.308594 18.304688 577.914062 C 18.816406 579.078125 19.691406 579.964844 20.640625 580.761719 C 22.378906 582.21875 23.695312 582.070312 25.125 580.328125 C 26.53125 578.613281 26.929688 576.554688 27.148438 574.4375 C 27.191406 574.003906 27.15625 573.566406 27.15625 573.128906 Z M 27.21875 573.132812 " fill-opacity="1" fill-rule="nonzero"/><path fill="#7ec5cc" d="M 11.832031 510.203125 C 12.078125 513.070312 13.382812 515.140625 15.664062 516.410156 C 17.75 517.574219 19.886719 517.230469 21.816406 515.804688 C 24.222656 514.027344 24.859375 510.488281 23.257812 507.773438 C 22.707031 506.839844 22.132812 505.914062 21.546875 504.992188 C 19.570312 501.886719 15.242188 501.847656 13.410156 505.011719 C 12.46875 506.640625 12.175781 508.546875 11.832031 510.203125 Z M 11.832031 510.203125 " fill-opacity="1" fill-rule="nonzero"/><path fill="#7ec5cc" d="M 65.074219 541.738281 C 65.179688 542.722656 65.339844 543.734375 65.730469 544.679688 C 66.648438 546.882812 68.875 548.007812 71.265625 547.6875 C 74.703125 547.226562 78.304688 541.320312 76.816406 538.132812 C 75.429688 535.15625 72.015625 533.707031 69.183594 535.390625 C 66.824219 536.792969 65.191406 538.78125 65.074219 541.738281 Z M 65.074219 541.738281 " fill-opacity="1" fill-rule="nonzero"/><path fill="#fbfcfa" d="M 56.203125 513.148438 L 56.109375 513.011719 C 56.144531 513.050781 56.183594 513.089844 56.21875 513.132812 Z M 56.203125 513.148438 " fill-opacity="1" fill-rule="nonzero"/><g clip-path="url(#549ce0afe3)"><path fill="#c87062" d="M 712.339844 489.777344 C 712.300781 477.175781 718.152344 467.703125 728.011719 460.417969 C 734.867188 455.351562 742.464844 452.566406 751.101562 452.972656 C 757.703125 453.285156 763.847656 454.984375 769.402344 458.660156 C 772.042969 460.410156 772.039062 460.382812 774.402344 458.257812 C 780.683594 452.601562 787.847656 448.378906 795.609375 445.125 C 804.019531 441.597656 812.636719 438.75 821.570312 436.867188 C 823.378906 436.488281 824.921875 436.886719 826.269531 438.054688 C 827.664062 439.261719 828.1875 440.867188 827.769531 442.648438 C 827.277344 444.761719 825.792969 446.035156 823.761719 446.609375 C 820.96875 447.398438 818.132812 448.050781 815.339844 448.851562 C 806.472656 451.371094 797.855469 454.535156 789.875 459.246094 C 786.472656 461.265625 783.320312 463.621094 780.417969 466.316406 C 778.773438 467.835938 778.761719 467.902344 779.9375 469.796875 C 782.691406 474.230469 784.804688 478.957031 785.8125 484.078125 C 787.796875 494.136719 787.367188 503.953125 782.085938 513.082031 C 779.234375 518.011719 775.46875 521.941406 769.917969 523.859375 C 760.167969 527.230469 753.132812 521.605469 751.832031 512.414062 C 750.808594 505.183594 751.984375 498.164062 753.710938 491.207031 C 755.613281 483.546875 758.683594 476.410156 763.546875 470.132812 C 763.773438 469.832031 763.9375 469.480469 764.191406 469.207031 C 765.082031 468.230469 764.683594 467.53125 763.746094 466.925781 C 761.351562 465.375 758.726562 464.394531 755.976562 463.714844 C 741.285156 460.089844 728.375 470.492188 724.105469 480.292969 C 722.027344 485.054688 722.105469 489.996094 722.816406 494.992188 C 722.976562 496.101562 723.402344 497.175781 723.554688 498.289062 C 723.878906 500.640625 722.886719 502.539062 720.976562 503.457031 C 718.976562 504.417969 716.671875 503.941406 715.054688 502.246094 C 713.820312 500.960938 713.328125 499.324219 713.042969 497.65625 C 712.605469 495.0625 712.15625 492.453125 712.339844 489.777344 Z M 772.050781 476.347656 C 771.488281 476.382812 771.210938 476.625 770.992188 476.929688 C 770.542969 477.53125 770.097656 478.132812 769.691406 478.765625 C 764.683594 486.523438 762.46875 495.199219 761.523438 504.261719 C 761.257812 506.867188 761.265625 509.523438 761.988281 512.101562 C 762.640625 514.429688 763.527344 515.042969 765.894531 514.570312 C 768.410156 514.066406 770.296875 512.507812 771.789062 510.515625 C 773.792969 507.859375 775.210938 504.917969 776.042969 501.691406 C 777.195312 497.253906 777.148438 492.761719 776.472656 488.285156 C 775.828125 483.996094 774.449219 479.933594 772.050781 476.347656 Z M 772.050781 476.347656 " fill-opacity="1" fill-rule="nonzero"/></g><path fill="#e1a8ae" d="M 844.507812 536.757812 C 844.292969 547.410156 839.667969 556.074219 832.335938 563.398438 C 827.753906 567.96875 821.976562 570.40625 815.730469 571.808594 C 812.558594 572.519531 809.335938 572.792969 806.109375 572.871094 C 804.59375 572.910156 803.886719 573.453125 803.421875 574.804688 C 802.292969 578.113281 800.253906 580.867188 798.066406 583.539062 C 794.546875 587.835938 789.894531 589.9375 784.550781 590.785156 C 778.65625 591.71875 773.007812 590.585938 767.433594 588.804688 C 760.988281 586.742188 755.308594 583.320312 750.230469 578.878906 C 747.832031 576.78125 745.898438 574.316406 745.105469 571.121094 C 744.351562 568.09375 745.511719 565.546875 748.113281 564.53125 C 750.625 563.550781 753.023438 564.574219 754.355469 567.46875 C 755.394531 569.726562 756.96875 571.375 758.917969 572.835938 C 765.332031 577.640625 772.371094 580.648438 780.480469 580.875 C 786.144531 581.035156 790.074219 578.339844 792.789062 573.574219 C 793.785156 571.824219 793.617188 571.394531 791.582031 570.769531 C 788.933594 569.957031 786.324219 569.03125 783.921875 567.675781 C 778.382812 564.550781 773.824219 560.445312 771.847656 554.148438 C 769.4375 546.457031 773.996094 538.363281 781.605469 536.96875 C 785.300781 536.292969 789.039062 536.574219 792.433594 538.484375 C 800.476562 543.011719 804.988281 549.914062 806.035156 559.105469 C 806.089844 559.578125 806.132812 560.054688 806.199219 560.527344 C 806.5 562.644531 806.503906 562.664062 808.609375 562.449219 C 810.117188 562.300781 811.644531 562.179688 813.128906 561.890625 C 824.648438 559.617188 833.046875 549.945312 834.222656 538.226562 C 835.355469 526.953125 830.515625 518.511719 822.507812 511.351562 C 821.800781 510.71875 821.039062 510.128906 820.402344 509.425781 C 818.394531 507.21875 818.171875 504.671875 819.746094 502.6875 C 821.296875 500.738281 824.382812 500.261719 826.753906 501.832031 C 828.492188 502.984375 830.183594 504.28125 831.644531 505.761719 C 838.238281 512.4375 842.609375 520.34375 844.4375 529.617188 C 844.910156 532.007812 844.511719 534.382812 844.507812 536.757812 Z M 785.269531 546.707031 C 782.542969 546.527344 780.789062 548.695312 781.519531 551.347656 C 781.777344 552.28125 782.332031 553.050781 782.90625 553.820312 C 785.84375 557.761719 789.960938 559.785156 794.550781 561.015625 C 795.972656 561.398438 796.28125 561.140625 796.035156 559.714844 C 795.464844 556.367188 794.25 553.265625 791.945312 550.742188 C 790.152344 548.769531 788.109375 547.027344 785.269531 546.707031 Z M 785.269531 546.707031 " fill-opacity="1" fill-rule="nonzero"/><path fill="#7ec5cc" d="M 737.21875 525.261719 C 739.382812 525.097656 741.046875 525.929688 742.203125 527.804688 C 742.429688 528.160156 742.703125 528.46875 743.03125 528.734375 C 745.78125 530.988281 746.671875 533.863281 745.800781 537.269531 C 744.980469 540.46875 743.21875 543.085938 740.507812 544.964844 C 736.132812 548 730.863281 546.78125 728.136719 542.1875 C 725.695312 538.066406 726.363281 534.121094 728.835938 530.316406 C 730.128906 528.320312 731.726562 526.636719 734.042969 525.796875 C 735.066406 525.421875 736.109375 525.175781 737.21875 525.261719 Z M 735.738281 537.914062 C 736.40625 537.660156 736.832031 537.027344 737.21875 536.359375 C 737.5 535.875 737.675781 535.410156 737.210938 534.902344 C 736.667969 534.308594 736.230469 534.28125 735.816406 534.972656 C 735.425781 535.625 734.964844 536.277344 735.035156 537.109375 C 735.070312 537.480469 735.160156 537.816406 735.738281 537.914062 Z M 735.738281 537.914062 " fill-opacity="1" fill-rule="nonzero"/><path fill="#9aedb6" d="M 20.3125 -21.886719 C 25.726562 -18.742188 29.921875 -14.753906 34.378906 -9.105469 C 40.246094 -1.664062 46.453125 2.804688 56.011719 -1.621094 C 71.128906 -8.621094 80.46875 -23.074219 99.089844 -21.824219 C 113.296875 -20.871094 127.761719 -7.816406 121.417969 7.375 C 115.367188 21.867188 90.105469 18.488281 87.777344 35.253906 C 85.101562 54.527344 111.636719 55.3125 123.886719 58.074219 C 160.171875 66.253906 146.84375 118.417969 113.011719 105.925781 C 101.53125 101.6875 82.359375 87.214844 78.425781 108.285156 C 77.277344 114.425781 78.570312 121.511719 73.742188 126.402344 C 69.230469 130.96875 61.785156 131.164062 56.007812 129.425781 C 40.972656 124.902344 32.253906 105.140625 14.910156 106.652344 C -1.8125 108.117188 1 130.652344 -14.59375 134.945312 C -30.621094 139.363281 -43.199219 125.890625 -56.863281 120.453125 C -67.488281 116.226562 -80.910156 115.761719 -89.585938 107.546875 C -99.34375 98.3125 -98.015625 82.230469 -88.648438 73.175781 C -80.027344 64.847656 -52.386719 67.859375 -53.492188 51.726562 C -54.183594 41.640625 -66.15625 39.441406 -73.421875 35.90625 C -81.292969 32.074219 -86.105469 26.015625 -86.765625 17.078125 C -88.144531 -1.632812 -69.964844 -21.136719 -53.3125 -26.375 C -32.789062 -32.824219 -8.996094 -33.429688 11.585938 -25.910156 C 14.871094 -24.695312 17.730469 -23.386719 20.3125 -21.886719 Z M 20.3125 -21.886719 " fill-opacity="1" fill-rule="nonzero"/></svg>